<svg xmlns="http://www.w3.org/2000/svg" viewBox="0 0 176.62 61.1"><defs><style>.cls-1,.cls-2{fill:#ffdb58;}.cls-1{opacity:0.6;isolation:isolate;}.cls-3{fill:#27664e;}</style></defs><g id="Layer_2" data-name="Layer 2"><g id="Layer_1-2" data-name="Layer 1"><rect class="cls-1" x="32.82" width="11" height="11"/><rect class="cls-1" x="43.82" y="11" width="11" height="11"/><rect class="cls-1" x="32.82" y="22" width="11" height="11"/><rect class="cls-1" x="21.82" y="11" width="11" height="11"/><rect class="cls-2" x="21.82" width="11" height="11"/><rect class="cls-2" x="43.82" width="11" height="11"/><rect class="cls-2" x="43.82" y="22" width="11" height="11"/><rect class="cls-2" x="21.82" y="22" width="11" height="11"/><path class="cls-2" d="M91.62,30.8a2.32,2.32,0,0,1-.7,1.72,2.52,2.52,0,0,1-3.44,0,2.28,2.28,0,0,1-.7-1.72V29.48A10.73,10.73,0,0,1,83.9,32.3a7.68,7.68,0,0,1-4.32,1.14A9.54,9.54,0,0,1,76,32.72a9,9,0,0,1-3.14-2.12,10.64,10.64,0,0,1-2.2-3.44,12.21,12.21,0,0,1-.84-4.68V22.4a12.41,12.41,0,0,1,.82-4.68,10.28,10.28,0,0,1,2.18-3.44,9,9,0,0,1,3.14-2.12,9.63,9.63,0,0,1,3.66-.72,7.89,7.89,0,0,1,4.34,1.1,11.4,11.4,0,0,1,2.86,2.62V6a2.28,2.28,0,0,1,.7-1.72,2.35,2.35,0,0,1,1.7-.68,2.42,2.42,0,0,1,1.74.68A2.32,2.32,0,0,1,91.62,6ZM80.72,15.64a6,6,0,0,0-2.35.46,5.67,5.67,0,0,0-2,1.34,6.34,6.34,0,0,0-1.32,2.14,7.87,7.87,0,0,0-.48,2.82v.08a7.76,7.76,0,0,0,.48,2.78,6.34,6.34,0,0,0,1.32,2.14A5.91,5.91,0,0,0,83,28.76a5.76,5.76,0,0,0,2-1.38,6.76,6.76,0,0,0,1.34-2.14,7.22,7.22,0,0,0,.51-2.76V22.4a7.36,7.36,0,0,0-.51-2.78A6.54,6.54,0,0,0,85,17.48a6,6,0,0,0-4.29-1.84Z"/><path class="cls-2" d="M103.78,33.44a9.52,9.52,0,0,1-2.84-.42,7,7,0,0,1-2.38-1.24,6.19,6.19,0,0,1-1.64-2,6,6,0,0,1-.62-2.82v-.08a6.57,6.57,0,0,1,.64-3,5.8,5.8,0,0,1,1.78-2.12,8,8,0,0,1,2.76-1.26A14.08,14.08,0,0,1,105,20a17.67,17.67,0,0,1,3.12.24,19.55,19.55,0,0,1,2.56.64V20.4A4.31,4.31,0,0,0,109.36,17a5.84,5.84,0,0,0-3.9-1.16,13.13,13.13,0,0,0-2.54.22,11.59,11.59,0,0,0-2.14.62,2.66,2.66,0,0,1-.76.12,2,2,0,0,1-1.44-.58,1.9,1.9,0,0,1-.6-1.42,2,2,0,0,1,.38-1.2,1.89,1.89,0,0,1,.94-.72,23.28,23.28,0,0,1,3.12-.9,17.53,17.53,0,0,1,3.68-.34c3.14,0,5.48.79,7,2.36a7.29,7.29,0,0,1,1.72,2.8,11.54,11.54,0,0,1,.56,3.72v10.4a2.22,2.22,0,0,1-.68,1.66,2.34,2.34,0,0,1-1.68.66,2.39,2.39,0,0,1-1.7-.62,1.9,1.9,0,0,1-.66-1.42v-.8a9.36,9.36,0,0,1-2.76,2.18A8.65,8.65,0,0,1,103.78,33.44Zm1.36-3.52a7.72,7.72,0,0,0,2.24-.32,5.27,5.27,0,0,0,1.78-.92,4.7,4.7,0,0,0,1.18-1.44,3.93,3.93,0,0,0,.44-1.84V24a12.82,12.82,0,0,0-2.14-.6,13.84,13.84,0,0,0-2.66-.24,6.26,6.26,0,0,0-3.66.92,3,3,0,0,0-1.3,2.6v.08a2.73,2.73,0,0,0,1.18,2.36A4.91,4.91,0,0,0,105.14,29.92Z"/><path class="cls-2" d="M121.17,14.08a2.42,2.42,0,0,1,.68-1.74,2.3,2.3,0,0,1,1.72-.7,2.33,2.33,0,0,1,1.74.7,2.36,2.36,0,0,1,.7,1.74v1a14.71,14.71,0,0,1,1.12-1.36,7.85,7.85,0,0,1,1.38-1.16,6.62,6.62,0,0,1,1.76-.82,7.46,7.46,0,0,1,2.18-.3,7.05,7.05,0,0,1,3.88,1,6.68,6.68,0,0,1,2.44,2.7,10.65,10.65,0,0,1,3-2.7,7.94,7.94,0,0,1,4.12-1,7.07,7.07,0,0,1,5.44,2.1,8.42,8.42,0,0,1,2,6V30.8a2.33,2.33,0,0,1-2.4,2.4,2.42,2.42,0,0,1-1.74-.68,2.32,2.32,0,0,1-.7-1.72V21a5.77,5.77,0,0,0-1.12-3.84,3.91,3.91,0,0,0-3.16-1.32,4.29,4.29,0,0,0-3.26,1.34,5.48,5.48,0,0,0-1.26,3.9V30.8a2.28,2.28,0,0,1-.7,1.72,2.35,2.35,0,0,1-1.7.68,2.42,2.42,0,0,1-1.74-.68,2.32,2.32,0,0,1-.7-1.72V21a5.71,5.71,0,0,0-1.12-3.8,3.91,3.91,0,0,0-3.16-1.32,4.18,4.18,0,0,0-3.28,1.4A5.61,5.61,0,0,0,126,21.08V30.8a2.28,2.28,0,0,1-.7,1.72,2.39,2.39,0,0,1-1.74.68,2.34,2.34,0,0,1-1.69-.68,2.29,2.29,0,0,1-.71-1.72Z"/><path class="cls-3" d="M3,50.86A4.93,4.93,0,0,1,6.6,52.23a5.59,5.59,0,0,1,0,7.33A4.93,4.93,0,0,1,3,60.92H0V50.86Zm-1.7,9H3a3.4,3.4,0,0,0,2.67-1.11,4.09,4.09,0,0,0,1-2.83,4,4,0,0,0-1-2.8A3.42,3.42,0,0,0,3,52H1.26Z"/><path class="cls-3" d="M10.59,50.86h1.27V60.92H10.59Z"/><path class="cls-3" d="M21.3,59.2a2.57,2.57,0,0,1-2.61,1.9,4.05,4.05,0,0,1-3.18-1.41,5.56,5.56,0,0,1-1.24-3.79,5.25,5.25,0,0,1,1.35-3.79A4.5,4.5,0,0,1,19,50.7a4.28,4.28,0,0,1,2.07.48,4,4,0,0,1,1.53,1.54l-1.21.41a3.08,3.08,0,0,0-2.44-1.29A3,3,0,0,0,16.58,53a4.42,4.42,0,0,0-1,3,4.67,4.67,0,0,0,.83,2.92A2.65,2.65,0,0,0,18.69,60a2.39,2.39,0,0,0,1.85-.77,3.25,3.25,0,0,0,.71-2.27v0l-2.53-.1V56h3.76v5h-1Z"/><path class="cls-3" d="M25.39,50.86h1.27V60.92H25.39Z"/><path class="cls-3" d="M28.35,50.86h7.83V52H32.9v9H31.63V52H28.35Z"/><path class="cls-3" d="M39.5,50.86H41l3.38,10.06H43.1l-.86-2.56h-4l-.86,2.56H36.05Zm-.92,6.51h3.34l-1.66-5Z"/><path class="cls-3" d="M47.71,59.82h4.48v1.1H46.45V50.86h1.26Z"/><path class="cls-3" d="M60,50.86h1.54l3.37,10.06H63.6l-.87-2.56h-4l-.86,2.56H56.54Zm-.93,6.51h3.35l-1.67-5Z"/><path class="cls-3" d="M72.3,53.31q-.27-1.47-2.16-1.47a2.37,2.37,0,0,0-1.55.44,1.31,1.31,0,0,0-.54,1,1.25,1.25,0,0,0,.33.94,3,3,0,0,0,1.09.56l2.1.72a4.23,4.23,0,0,1,1.7,1,2.61,2.61,0,0,1-.36,3.75,4.12,4.12,0,0,1-2.65.79,4.28,4.28,0,0,1-2.73-.84,2.92,2.92,0,0,1-1.1-2.36h1.23a1.81,1.81,0,0,0,.7,1.52,2.88,2.88,0,0,0,1.79.53,2.79,2.79,0,0,0,1.74-.49,1.43,1.43,0,0,0,.64-1.15,1.42,1.42,0,0,0-.39-1.05A3,3,0,0,0,71,56.62L69.2,56a5.2,5.2,0,0,1-1.89-1,2.13,2.13,0,0,1-.64-1.69,2.3,2.3,0,0,1,.9-1.85,3.78,3.78,0,0,1,2.51-.75,3.73,3.73,0,0,1,2.47.72,2.78,2.78,0,0,1,1,1.91Z"/><path class="cls-3" d="M82,53.31q-.27-1.47-2.16-1.47a2.37,2.37,0,0,0-1.55.44,1.31,1.31,0,0,0-.54,1,1.25,1.25,0,0,0,.33.94,3,3,0,0,0,1.09.56l2.1.72a4.23,4.23,0,0,1,1.7,1,2.61,2.61,0,0,1-.36,3.75,4.12,4.12,0,0,1-2.65.79,4.28,4.28,0,0,1-2.73-.84,2.92,2.92,0,0,1-1.1-2.36h1.23a1.78,1.78,0,0,0,.7,1.52,2.88,2.88,0,0,0,1.79.53,2.79,2.79,0,0,0,1.74-.49,1.43,1.43,0,0,0,.64-1.15,1.39,1.39,0,0,0-.4-1.05,2.87,2.87,0,0,0-1.16-.64L78.88,56A5.2,5.2,0,0,1,77,55a2.13,2.13,0,0,1-.64-1.69,2.3,2.3,0,0,1,.9-1.85,3.78,3.78,0,0,1,2.51-.75,3.73,3.73,0,0,1,2.47.72,2.73,2.73,0,0,1,1,1.91Z"/><path class="cls-3" d="M86.29,50.86h6.19V52H87.55v3.37h4.64V56.4H87.55v3.42h4.93v1.1H86.29Z"/><path class="cls-3" d="M93.77,50.86h7.83V52H98.32v9H97.05V52H93.77Z"/><path class="cls-3" d="M108.93,50.86l3.39,6.82,3.36-6.82h1.78V60.92h-1.27V52.65l-3.46,7h-.84l-3.51-7.12v8.38h-1.26V50.86Z"/><path class="cls-3" d="M122.94,50.86h1.54l3.37,10.06h-1.31l-.86-2.56h-4l-.87,2.56h-1.32ZM122,57.37h3.35l-1.67-5Z"/><path class="cls-3" d="M131.36,50.86l5,8.08V50.86h1.26V60.92h-1.4l-5.08-8.19v8.19h-1.28V50.86Z"/><path class="cls-3" d="M143.1,50.86h1.54L148,60.92H146.7l-.86-2.56h-4L141,60.92h-1.32Zm-.93,6.51h3.35l-1.67-5Z"/><path class="cls-3" d="M156.27,59.2a2.57,2.57,0,0,1-2.61,1.9,4,4,0,0,1-3.17-1.41,5.51,5.51,0,0,1-1.24-3.79,5.25,5.25,0,0,1,1.35-3.79A4.47,4.47,0,0,1,154,50.7a4.28,4.28,0,0,1,2.07.48,4.1,4.1,0,0,1,1.53,1.54l-1.22.41a3,3,0,0,0-2.43-1.29A3,3,0,0,0,151.56,53a4.37,4.37,0,0,0-1,3,4.73,4.73,0,0,0,.83,2.92A2.66,2.66,0,0,0,153.66,60a2.41,2.41,0,0,0,1.86-.77,3.25,3.25,0,0,0,.7-2.27v0l-2.53-.1V56h3.76v5h-1Z"/><path class="cls-3" d="M160.35,50.86h6.19V52h-4.93v3.37h4.64V56.4h-4.64v3.42h4.93v1.1h-6.19Z"/><path class="cls-3" d="M176.37,53.74a3,3,0,0,1-.67,2,3.2,3.2,0,0,1-2,1l2.88,4.17H175l-2.61-4.11h-1.76v4.11h-1.26V50.86h3.5a3.72,3.72,0,0,1,2.6.82A2.66,2.66,0,0,1,176.37,53.74Zm-3.6,2.19a2.42,2.42,0,0,0,1.72-.55,2.12,2.12,0,0,0,0-2.9,2.33,2.33,0,0,0-1.64-.53h-2.24v4Z"/></g></g></svg>