<?xml version="1.0" encoding="UTF-8"?>
<svg xmlns="http://www.w3.org/2000/svg" xmlns:xlink="http://www.w3.org/1999/xlink" version="1.2" >
<font id="Gotham Rounded Medium">
<font-face  font-family="Gotham Rounded" units-per-em="1000" ascent="800" descent="-200" font-style="normal" font-weight="500" font-stretch="normal" cap-height="700" x-height="528" underline-position="-75" underline-thickness="50" />
<missing-glyph  horiz-adv-x="500" d="M0 -200 L500 -200 L500 800 L0 800 L0 -200 Z M71 750 L429 750 L250 360 L71 750 Z M50 -76 L50 676 L222 300 L50 -76 Z M450 676 L450 -76 L278 300 L450 676 Z M250 240 L429 -150 L71 -150 L250 240 Z " />
<glyph glyph-name="NULL" d="" />
<glyph glyph-name="CR" unicode="&#xd;" horiz-adv-x="300" d="" />
<glyph glyph-name="space" unicode="&#x20;" horiz-adv-x="300" d="" />
<glyph glyph-name="exclam" unicode="&#x21;" horiz-adv-x="302" d="M115 252 C117 230 131 216 151 216 C171 216 186 230 188 252 L223 660 C225 684 210 703 187 703 L115 703 C92 703 78 684 80 660 L115 252 Z M80 74 L80 64 C80 25 111 -5 151 -5 C192 -5 222 25 222 64 L222 74 C222 113 192 143 151 143 C111 143 80 113 80 74 L80 74 Z " />
<glyph glyph-name="quotedbl" unicode="&#x22;" horiz-adv-x="487" d="M282 433 C280 410 296 395 315 395 C334 395 344 407 351 426 L424 648 C426 656 428 664 428 670 C428 691 414 703 396 703 L356 703 C323 703 301 679 299 647 L282 433 Z M62 433 C61 410 76 395 96 395 C115 395 125 407 132 426 L205 648 C207 656 209 664 209 670 C209 691 195 703 176 703 L137 703 C104 703 82 679 80 647 L62 433 Z " />
<glyph glyph-name="numbersign" unicode="&#x23;" horiz-adv-x="700" d="M114 56 C109 22 133 -5 165 -5 C195 -5 214 16 218 38 L239 161 L396 161 L377 56 C372 25 396 -5 429 -5 C455 -5 477 13 481 38 L502 161 L577 161 C606 161 629 185 629 213 C629 242 606 265 577 265 L520 265 L550 439 L614 439 C642 439 666 463 666 491 C666 520 642 543 614 543 L568 543 L585 644 C590 675 566 705 534 705 C507 705 485 688 481 662 L461 543 L304 543 L322 644 C326 675 303 705 270 705 C244 705 222 688 218 662 L198 543 L122 543 C94 543 70 519 70 491 C70 463 94 439 122 439 L180 439 L150 265 L86 265 C57 265 34 241 34 213 C34 184 57 161 86 161 L132 161 L114 56 Z M257 265 L287 439 L443 439 L413 265 L257 265 Z " />
<glyph glyph-name="dollar" unicode="&#x24;" horiz-adv-x="642" d="M285 720 L285 699 C160 689 75 615 75 508 C75 395 143 340 289 302 L289 105 C234 115 188 138 141 172 C132 179 120 183 108 183 C77 183 53 159 53 128 C53 107 63 91 80 80 C141 37 210 10 285 2 L285 -60 C285 -84 305 -103 329 -103 C353 -103 372 -84 372 -60 L372 0 C499 12 585 85 585 195 C585 302 520 363 368 401 L368 593 C402 585 436 570 471 549 C481 543 491 540 501 540 C532 540 557 564 557 595 C557 619 543 634 527 643 C481 672 431 691 372 698 L372 720 C372 744 353 763 329 763 C305 763 285 744 285 720 L285 720 Z M467 188 C467 140 432 108 368 101 L368 283 C445 259 467 232 467 188 L467 188 Z M193 515 C193 559 225 593 289 599 L289 422 C212 447 193 473 193 515 L193 515 Z " />
<glyph glyph-name="percent" unicode="&#x25;" horiz-adv-x="849" d="M212 350 C312 350 378 432 378 529 L378 531 C378 627 313 708 214 708 C115 708 48 627 48 529 L48 527 C48 431 114 350 212 350 L212 350 Z M154 34 C154 12 171 -5 193 -5 C207 -5 220 1 228 13 L687 640 C692 647 696 656 696 666 C696 688 678 705 656 705 C642 705 629 699 622 687 L163 60 C158 53 154 44 154 34 L154 34 Z M635 -8 C734 -8 801 74 801 171 L801 173 C801 269 735 350 637 350 C538 350 471 269 471 171 L471 169 C471 73 537 -8 635 -8 L635 -8 Z M214 427 C169 427 137 472 137 529 L137 531 C137 585 165 631 212 631 C257 631 289 585 289 529 L289 527 C289 473 261 427 214 427 L214 427 Z M637 69 C592 69 560 114 560 171 L560 173 C560 227 588 273 635 273 C680 273 712 227 712 171 L712 169 C712 115 684 69 637 69 L637 69 Z " />
<glyph glyph-name="ampersand" unicode="&#x26;" horiz-adv-x="696" d="M600 -10 C631 -10 654 14 654 45 C654 63 647 75 635 87 L557 165 C584 203 610 245 633 288 C637 296 640 306 640 315 C640 343 616 367 587 367 C562 367 546 349 541 338 C523 302 504 268 483 238 L364 359 C456 394 517 449 517 541 L517 543 C517 637 442 712 331 712 C206 712 130 630 130 536 L130 534 C130 483 148 439 188 388 C92 347 39 282 39 192 L39 190 C39 69 137 -10 268 -10 C354 -10 425 26 484 83 L557 9 C570 -4 582 -10 600 -10 L600 -10 Z M298 425 C259 468 245 494 245 529 L245 531 C245 580 279 615 329 615 C375 615 408 583 408 536 L408 534 C408 483 370 451 298 425 L298 425 Z M280 92 C212 92 163 135 163 194 L163 196 C163 241 191 284 257 313 L413 154 C373 116 329 92 280 92 L280 92 Z " />
<glyph glyph-name="quotesingle" unicode="&#x27;" horiz-adv-x="269" d="M62 433 C61 410 76 395 96 395 C115 395 126 407 133 426 L206 648 C208 656 210 664 210 670 C210 691 195 703 176 703 L137 703 C104 703 82 679 80 647 L62 433 Z " />
<glyph glyph-name="parenleft" unicode="&#x28;" horiz-adv-x="441" d="M346 -135 C370 -135 392 -111 392 -86 C392 -67 384 -54 372 -45 C245 44 184 145 184 287 C184 429 245 530 372 619 C384 628 392 641 392 660 C392 685 370 709 346 709 C333 709 321 705 317 702 C152 603 63 468 63 287 C63 106 152 -29 317 -128 C321 -131 333 -135 346 -135 L346 -135 Z " />
<glyph glyph-name="parenright" unicode="&#x29;" horiz-adv-x="441" d="M94 -135 C108 -135 119 -131 123 -128 C289 -29 378 106 378 287 C378 468 289 603 123 702 C119 705 108 709 94 709 C70 709 48 685 48 660 C48 641 57 628 69 619 C195 530 257 429 257 287 C257 145 195 44 69 -45 C57 -54 48 -67 48 -86 C48 -111 70 -135 94 -135 L94 -135 Z " />
<glyph glyph-name="asterisk" unicode="&#x2a;" horiz-adv-x="430" d="M184 414 C181 393 195 377 215 377 C235 377 249 394 246 415 L236 504 L311 449 C320 443 327 439 335 439 C353 439 369 454 369 472 C369 488 358 499 346 504 L258 542 L346 581 C358 586 369 596 369 612 C369 630 354 645 336 645 C327 645 320 642 311 635 L236 580 L246 670 C249 691 235 707 215 707 C195 707 181 690 184 669 L194 580 L119 635 C110 642 104 645 95 645 C77 645 61 630 61 612 C61 597 72 586 84 581 L172 542 L84 504 C73 499 61 488 61 473 C61 455 76 439 94 439 C103 439 110 443 119 449 L194 504 L184 414 Z " />
<glyph glyph-name="plus" unicode="&#x2b;" horiz-adv-x="634" d="M260 158 C260 126 285 101 317 101 C348 101 374 126 374 158 L374 297 L516 297 C546 297 571 321 571 352 C571 382 546 407 516 407 L374 407 L374 546 C374 578 348 603 317 603 C285 603 260 578 260 546 L260 407 L118 407 C88 407 63 382 63 352 C63 321 88 297 118 297 L260 297 L260 158 Z " />
<glyph glyph-name="comma" unicode="&#x2c;" horiz-adv-x="269" d="M30 -117 C30 -132 40 -145 61 -145 C89 -145 128 -128 155 -102 C186 -70 204 -24 204 44 L204 55 C204 109 177 143 132 143 C91 143 64 114 64 76 L64 68 C64 32 92 8 121 0 C123 -44 99 -75 53 -90 C40 -93 30 -103 30 -117 L30 -117 Z " />
<glyph glyph-name="hyphen" unicode="&#x2d;" horiz-adv-x="408" d="M110 247 L298 247 C330 247 357 274 357 306 C357 339 330 366 298 366 L110 366 C78 366 51 339 51 306 C51 274 78 247 110 247 L110 247 Z " />
<glyph glyph-name="period" unicode="&#x2e;" horiz-adv-x="269" d="M64 74 L64 64 C64 25 94 -5 135 -5 C175 -5 205 25 205 64 L205 74 C205 113 175 143 135 143 C94 143 64 113 64 74 L64 74 Z " />
<glyph glyph-name="slash" unicode="&#x2f;" horiz-adv-x="521" d="M0 -87 C0 -112 22 -133 48 -133 C68 -133 82 -123 91 -105 L501 733 C503 739 506 748 506 757 C506 782 485 803 459 803 C439 803 424 793 415 775 L6 -63 C3 -69 0 -78 0 -87 L0 -87 Z " />
<glyph glyph-name="zero" unicode="0" horiz-adv-x="724" d="M361 -12 C545 -12 667 150 667 350 L667 352 C667 552 546 712 363 712 C179 712 57 550 57 350 L57 348 C57 148 177 -12 361 -12 L361 -12 Z M363 99 C254 99 184 212 184 350 L184 352 C184 491 253 601 361 601 C469 601 540 488 540 350 L540 348 C540 211 472 99 363 99 L363 99 Z " />
<glyph glyph-name="one" unicode="1" horiz-adv-x="396" d="M178 56 C178 22 206 -5 239 -5 C273 -5 300 22 300 56 L300 648 C300 682 274 709 239 709 L237 709 C219 709 201 705 177 698 L71 664 C46 657 30 637 30 611 C30 583 55 559 84 559 C90 559 99 560 106 562 L178 584 L178 56 Z " />
<glyph glyph-name="two" unicode="2" horiz-adv-x="613" d="M43 58 C43 22 71 0 109 0 L506 0 C536 0 560 24 560 54 C560 84 536 108 506 108 L222 108 L366 228 C490 329 548 389 548 499 L548 501 C548 626 454 710 317 710 C207 710 142 668 85 597 C76 586 71 572 71 559 C71 528 96 503 127 503 C147 503 161 512 170 522 C213 574 252 600 308 600 C372 600 421 560 421 491 C421 428 386 383 290 302 L75 119 C54 102 43 82 43 58 L43 58 Z " />
<glyph glyph-name="three" unicode="3" horiz-adv-x="618" d="M311 -12 C457 -12 556 81 556 210 L556 212 C556 341 456 395 350 408 L515 579 C536 600 550 617 550 646 C550 679 524 700 489 700 L131 700 C101 700 77 676 77 646 C77 617 101 593 131 593 L385 593 L221 418 C202 399 195 384 195 368 C195 339 219 315 248 315 L273 315 C371 315 434 276 434 207 L434 205 C434 141 382 99 313 99 C248 99 198 122 154 166 C144 175 131 182 113 182 C81 182 54 155 54 123 C54 105 63 88 74 79 C131 24 208 -12 311 -12 L311 -12 Z " />
<glyph glyph-name="four" unicode="4" horiz-adv-x="682" d="M412 53 C412 20 438 -5 471 -5 C504 -5 530 20 530 53 L530 157 L584 157 C613 157 635 179 635 207 C635 235 613 258 584 258 L530 258 L530 651 C530 684 503 710 470 710 C434 710 417 696 395 670 L66 280 C48 259 39 239 39 215 C39 181 66 157 99 157 L412 157 L412 53 Z M182 258 L412 535 L412 258 L182 258 Z " />
<glyph glyph-name="five" unicode="5" horiz-adv-x="623" d="M308 -12 C458 -12 564 83 564 225 L564 227 C564 375 457 447 320 447 C273 447 242 439 209 427 L220 591 L483 591 C513 591 538 615 538 645 C538 675 513 700 483 700 L166 700 C136 700 112 677 110 645 L95 393 C94 370 101 352 119 339 C143 322 158 315 177 315 C196 315 229 339 297 339 C382 339 442 295 442 223 L442 221 C442 147 385 100 306 100 C251 100 202 120 154 159 C144 167 133 171 118 171 C86 171 59 144 59 112 C59 92 69 76 84 64 C141 20 213 -12 308 -12 L308 -12 Z " />
<glyph glyph-name="six" unicode="6" horiz-adv-x="656" d="M337 -12 C484 -12 597 87 597 226 L597 228 C597 368 488 448 353 448 C270 448 222 414 185 378 C191 506 249 600 353 600 C400 600 435 586 473 561 C482 556 493 552 504 552 C536 552 563 577 563 609 C563 634 551 650 532 662 C486 693 429 712 357 712 C159 712 57 545 57 331 L57 329 C57 188 89 115 142 62 C189 15 251 -12 337 -12 L337 -12 Z M334 95 C247 95 189 149 189 220 L189 222 C189 289 244 345 331 345 C418 345 474 293 474 223 L474 221 C474 149 421 95 334 95 L334 95 Z " />
<glyph glyph-name="seven" unicode="7" horiz-adv-x="609" d="M137 50 C137 15 167 -5 200 -5 C225 -5 244 8 259 36 L549 586 C559 605 566 627 566 645 C566 680 544 700 510 700 L117 700 C87 700 63 676 63 646 C63 616 87 592 117 592 L420 592 L148 88 C142 77 137 60 137 50 L137 50 Z " />
<glyph glyph-name="eight" unicode="8" horiz-adv-x="630" d="M315 -10 C468 -10 582 68 582 193 L582 195 C582 278 533 328 456 363 C515 394 558 441 558 519 L558 521 C558 629 455 710 315 710 C175 710 72 628 72 521 L72 519 C72 441 115 394 174 363 C95 330 48 277 48 193 L48 191 C48 70 162 -10 315 -10 L315 -10 Z M315 404 C243 404 190 447 190 508 L190 510 C190 563 240 607 315 607 C390 607 440 563 440 509 L440 507 C440 447 387 404 315 404 L315 404 Z M315 93 C223 93 169 141 169 198 L169 200 C169 264 232 306 315 306 C398 306 462 264 462 200 L462 198 C462 140 407 93 315 93 L315 93 Z " />
<glyph glyph-name="nine" unicode="9" horiz-adv-x="656" d="M299 -12 C488 -12 599 144 599 369 L599 371 C599 509 566 586 515 638 C465 687 408 712 320 712 C165 712 59 607 59 470 L59 468 C59 333 158 246 307 246 C382 246 436 278 471 320 C467 191 405 100 302 100 C254 100 215 114 174 143 C164 149 153 153 140 153 C108 153 82 129 82 97 C82 74 93 57 110 46 C162 11 220 -12 299 -12 L299 -12 Z M325 349 C238 349 182 401 182 474 L182 476 C182 548 234 606 321 606 C410 606 467 550 467 477 L467 475 C467 407 414 349 325 349 L325 349 Z " />
<glyph glyph-name="colon" unicode="&#x3a;" horiz-adv-x="279" d="M69 464 L69 455 C69 415 99 385 140 385 C180 385 210 415 210 455 L210 464 C210 504 180 534 140 534 C99 534 69 504 69 464 L69 464 Z M69 74 L69 64 C69 25 99 -5 140 -5 C180 -5 210 25 210 64 L210 74 C210 113 180 143 140 143 C99 143 69 113 69 74 L69 74 Z " />
<glyph glyph-name="semicolon" unicode="&#x3b;" horiz-adv-x="279" d="M69 464 L69 455 C69 415 99 385 140 385 C180 385 210 415 210 455 L210 464 C210 504 180 534 140 534 C99 534 69 504 69 464 L69 464 Z M35 -117 C35 -132 45 -145 66 -145 C94 -145 133 -128 160 -102 C191 -70 209 -24 209 44 L209 55 C209 109 182 143 137 143 C96 143 69 114 69 76 L69 68 C69 32 97 8 126 0 C128 -44 104 -75 58 -90 C45 -93 35 -103 35 -117 L35 -117 Z " />
<glyph glyph-name="less" unicode="&#x3c;" horiz-adv-x="634" d="M497 96 C527 96 550 117 550 147 C550 170 537 188 516 198 L187 353 L516 507 C537 517 550 534 550 557 C550 586 527 609 501 608 C489 608 480 605 470 600 L109 423 C79 409 61 386 61 356 L61 348 C61 318 79 295 109 281 L470 104 C478 100 488 96 497 96 L497 96 Z " />
<glyph glyph-name="equal" unicode="&#x3d;" horiz-adv-x="634" d="M127 421 L507 421 C538 421 563 446 563 477 C563 508 538 533 507 533 L127 533 C96 533 71 508 71 477 C71 446 96 421 127 421 L127 421 Z M127 171 L507 171 C538 171 563 196 563 227 C563 257 538 283 507 283 L127 283 C96 283 71 257 71 227 C71 196 96 171 127 171 L127 171 Z " />
<glyph glyph-name="greater" unicode="&#x3e;" horiz-adv-x="634" d="M137 608 C107 608 84 587 84 557 C84 534 97 516 118 506 L447 351 L118 196 C97 187 84 170 84 147 C84 118 107 95 133 96 C145 96 154 99 164 104 L524 281 C555 295 573 318 573 348 L573 356 C573 386 555 409 524 423 L164 600 C156 604 146 608 137 608 L137 608 Z " />
<glyph glyph-name="question" unicode="&#x3f;" horiz-adv-x="541" d="M251 216 C274 216 290 234 294 256 L298 302 C409 321 500 378 500 504 L500 506 C500 631 405 709 265 709 C173 709 106 676 53 626 C39 614 33 598 33 583 C33 553 58 528 89 528 C103 528 116 534 126 542 C166 578 209 597 262 597 C334 597 377 558 377 502 L377 500 C377 437 325 401 231 392 C204 389 188 369 192 342 L202 256 C205 233 222 216 245 216 L251 216 Z M174 74 L174 64 C174 25 204 -5 245 -5 C286 -5 316 25 316 64 L316 74 C316 113 286 143 245 143 C204 143 174 113 174 74 L174 74 Z " />
<glyph glyph-name="at" unicode="&#x40;" horiz-adv-x="980" d="M499 -162 C599 -162 681 -136 755 -92 C760 -90 764 -85 764 -77 C764 -68 757 -59 748 -59 C745 -59 740 -60 737 -62 C665 -103 595 -124 499 -124 C262 -124 93 53 93 274 C93 494 264 674 491 674 C718 674 887 500 887 316 C887 179 826 111 755 111 C706 111 677 139 677 182 C677 191 679 207 682 225 L720 439 C726 475 701 500 672 500 C644 500 626 483 620 450 L617 432 C591 472 548 506 476 506 C360 506 249 398 249 256 C249 141 330 67 430 67 C500 67 549 100 585 137 C608 100 655 67 733 67 C836 67 927 148 927 316 C927 523 736 712 491 712 C246 712 53 513 53 274 C53 35 243 -162 499 -162 L499 -162 Z M457 154 C395 154 352 193 352 262 C352 352 417 420 490 420 C550 420 595 376 595 312 C595 226 530 154 457 154 L457 154 Z " />
<glyph glyph-name="A" unicode="A" horiz-adv-x="773" d="M42 52 C42 20 67 -5 99 -5 C125 -5 146 9 156 34 L215 169 L555 169 L612 38 C623 12 643 -5 672 -5 C705 -5 730 21 730 54 C730 62 728 71 723 80 L463 660 C449 691 425 710 390 710 L384 710 C349 710 324 691 310 660 L50 80 C45 70 42 61 42 52 L42 52 Z M262 278 L385 561 L508 278 L262 278 Z " />
<glyph glyph-name="B" unicode="B" horiz-adv-x="722" d="M90 62 C90 27 117 0 152 0 L414 0 C570 0 673 67 673 192 L673 194 C673 289 616 336 534 364 C586 391 634 436 634 520 L634 522 C634 569 618 607 587 638 C547 678 484 700 404 700 L152 700 C117 700 90 673 90 638 L90 62 Z M211 405 L211 591 L388 591 C467 591 511 557 511 502 L511 500 C511 436 458 405 379 405 L211 405 Z M211 109 L211 301 L406 301 C503 301 550 266 550 207 L550 205 C550 142 499 109 415 109 L211 109 Z " />
<glyph glyph-name="C" unicode="C" horiz-adv-x="738" d="M415 -12 C528 -12 603 24 669 82 C680 92 689 107 689 126 C689 157 662 183 631 183 C616 183 603 177 594 169 C543 126 493 102 419 102 C285 102 188 213 188 350 L188 352 C188 489 286 599 419 599 C486 599 538 575 586 536 C594 530 606 524 623 524 C657 524 684 550 684 584 C684 606 673 623 660 633 C599 680 528 712 420 712 C208 712 59 549 59 350 L59 348 C59 147 211 -12 415 -12 L415 -12 Z " />
<glyph glyph-name="D" unicode="D" horiz-adv-x="782" d="M90 62 C90 27 117 0 152 0 L351 0 C571 0 723 153 723 350 L723 352 C723 549 571 700 351 700 L152 700 C117 700 90 673 90 638 L90 62 Z M213 112 L213 588 L351 588 C498 588 594 487 594 350 L594 348 C594 211 498 112 351 112 L213 112 Z " />
<glyph glyph-name="E" unicode="E" horiz-adv-x="670" d="M152 0 L564 0 C594 0 619 24 619 55 C619 85 594 110 564 110 L213 110 L213 298 L514 298 C544 298 569 322 569 352 C569 383 544 408 514 408 L213 408 L213 590 L559 590 C589 590 614 614 614 645 C614 675 589 700 559 700 L152 700 C117 700 90 673 90 638 L90 62 C90 27 117 0 152 0 L152 0 Z " />
<glyph glyph-name="F" unicode="F" horiz-adv-x="656" d="M90 56 C90 22 117 -5 152 -5 C186 -5 213 22 213 56 L213 285 L515 285 C546 285 571 310 571 341 C571 372 546 397 515 397 L213 397 L213 588 L560 588 C591 588 616 613 616 644 C616 675 591 700 560 700 L152 700 C117 700 90 673 90 638 L90 56 Z " />
<glyph glyph-name="G" unicode="G" horiz-adv-x="784" d="M422 -12 C527 -12 611 24 671 64 C700 82 714 107 714 142 L714 329 C714 364 687 391 652 391 L457 391 C427 391 402 367 402 337 C402 307 427 284 457 284 L595 284 L595 153 C552 121 492 100 426 100 C283 100 188 206 188 350 L188 352 C188 486 286 599 415 599 C491 599 540 577 585 544 C595 537 607 530 623 530 C657 530 684 558 684 591 C684 615 671 632 659 641 C595 687 525 712 420 712 C209 712 59 546 59 350 L59 348 C59 144 203 -12 422 -12 L422 -12 Z " />
<glyph glyph-name="H" unicode="H" horiz-adv-x="760" d="M90 56 C90 22 117 -5 152 -5 C186 -5 213 22 213 56 L213 295 L547 295 L547 56 C547 22 574 -5 608 -5 C643 -5 670 22 670 56 L670 644 C670 678 643 705 608 705 C574 705 547 678 547 644 L547 409 L213 409 L213 644 C213 678 186 705 152 705 C117 705 90 678 90 644 L90 56 Z " />
<glyph glyph-name="I" unicode="I" horiz-adv-x="317" d="M97 56 C97 22 124 -5 159 -5 C193 -5 220 22 220 56 L220 644 C220 678 193 705 159 705 C124 705 97 678 97 644 L97 56 Z " />
<glyph glyph-name="J" unicode="J" horiz-adv-x="560" d="M245 -10 C315 -10 374 11 415 52 C456 93 481 155 481 238 L481 644 C481 678 453 705 419 705 C385 705 357 678 357 644 L357 242 C357 148 312 104 244 104 C197 104 164 123 130 158 C119 167 108 172 92 172 C59 172 33 146 33 113 C33 94 43 77 54 67 C98 23 160 -10 245 -10 L245 -10 Z " />
<glyph glyph-name="K" unicode="K" horiz-adv-x="713" d="M90 56 C90 22 117 -5 152 -5 C186 -5 213 22 213 56 L213 201 L327 311 L552 24 C565 7 580 -5 604 -5 C639 -5 666 21 666 55 C666 74 659 86 649 99 L413 392 L631 602 C645 615 653 629 653 648 C653 678 630 705 596 705 C574 705 559 697 545 682 L213 348 L213 644 C213 678 186 705 152 705 C117 705 90 678 90 644 L90 56 Z " />
<glyph glyph-name="L" unicode="L" horiz-adv-x="619" d="M90 62 C90 27 117 0 152 0 L530 0 C561 0 586 25 586 56 C586 87 561 112 530 112 L213 112 L213 644 C213 678 186 705 152 705 C117 705 90 678 90 644 L90 62 Z " />
<glyph glyph-name="M" unicode="M" horiz-adv-x="868" d="M90 55 C90 21 116 -5 150 -5 C184 -5 211 21 211 55 L211 474 L381 219 C394 199 410 187 432 187 C455 187 471 199 484 219 L655 476 L655 56 C655 23 683 -5 716 -5 C751 -5 778 22 778 56 L778 642 C778 676 751 704 716 704 L703 704 C678 704 660 693 647 672 L434 339 L222 671 C210 690 192 704 165 704 L152 704 C117 704 90 676 90 642 L90 55 Z " />
<glyph glyph-name="N" unicode="N" horiz-adv-x="790" d="M90 55 C90 22 117 -5 151 -5 C184 -5 211 22 211 55 L211 499 L571 33 C588 11 606 -4 635 -4 L640 -4 C674 -4 700 23 700 57 L700 645 C700 678 673 705 639 705 C606 705 579 678 579 645 L579 215 L229 668 C212 689 195 704 165 704 L152 704 C117 704 90 676 90 642 L90 55 Z " />
<glyph glyph-name="O" unicode="O" horiz-adv-x="850" d="M424 -12 C639 -12 791 153 791 350 L791 352 C791 549 641 712 426 712 C211 712 59 547 59 350 L59 348 C59 151 209 -12 424 -12 L424 -12 Z M426 102 C287 102 188 214 188 350 L188 352 C188 488 285 599 424 599 C563 599 662 486 662 350 L662 348 C662 212 565 102 426 102 L426 102 Z " />
<glyph glyph-name="P" unicode="P" horiz-adv-x="668" d="M90 56 C90 22 117 -5 152 -5 C186 -5 213 22 213 56 L213 225 L352 225 C506 225 632 307 632 464 L632 466 C632 607 530 700 366 700 L152 700 C117 700 90 673 90 638 L90 56 Z M213 336 L213 588 L356 588 C448 588 507 545 507 463 L507 461 C507 388 449 336 356 336 L213 336 Z " />
<glyph glyph-name="Q" unicode="Q" horiz-adv-x="850" d="M424 -12 C505 -12 578 12 637 54 L687 9 C698 -2 712 -9 730 -9 C762 -9 788 18 788 50 C788 71 779 86 765 98 L720 135 C765 196 791 271 791 350 L791 352 C791 549 641 712 426 712 C211 712 59 547 59 350 L59 348 C59 151 209 -12 424 -12 L424 -12 Z M460 208 L547 134 C513 114 472 102 426 102 C287 102 188 214 188 350 L188 352 C188 488 285 599 424 599 C563 599 662 486 662 350 L662 348 C662 298 650 253 628 215 L538 297 C524 309 513 315 495 315 C463 315 437 288 437 256 C437 235 446 220 460 208 L460 208 Z " />
<glyph glyph-name="R" unicode="R" horiz-adv-x="723" d="M90 56 C90 22 117 -5 152 -5 C186 -5 213 22 213 56 L213 244 L368 244 L538 27 C552 8 570 -5 598 -5 C628 -5 657 18 657 52 C657 71 649 84 637 99 L503 268 C597 297 662 365 662 477 L662 479 C662 540 641 592 604 630 C559 674 490 700 402 700 L152 700 C117 700 90 673 90 638 L90 56 Z M213 353 L213 588 L392 588 C483 588 537 547 537 472 L537 470 C537 399 481 353 393 353 L213 353 Z " />
<glyph glyph-name="S" unicode="S" horiz-adv-x="640" d="M335 -10 C482 -10 585 68 585 199 L585 201 C585 317 509 370 361 406 C226 438 194 462 194 516 L194 518 C194 564 236 601 308 601 C363 601 415 583 469 548 C479 542 489 539 501 539 C533 539 559 564 559 596 C559 620 546 637 532 645 C469 687 398 710 310 710 C171 710 71 627 71 507 L71 505 C71 376 155 332 304 296 C434 266 462 239 462 189 L462 187 C462 135 414 99 338 99 C262 99 200 125 142 171 C134 177 123 182 106 182 C74 182 48 157 48 125 C48 105 58 88 72 78 C150 20 240 -10 335 -10 L335 -10 Z " />
<glyph glyph-name="T" unicode="T" horiz-adv-x="648" d="M262 56 C262 22 290 -5 324 -5 C358 -5 386 22 386 56 L386 586 L557 586 C588 586 613 612 613 643 C613 674 588 700 557 700 L92 700 C60 700 35 674 35 643 C35 612 60 586 92 586 L262 586 L262 56 Z " />
<glyph glyph-name="U" unicode="U" horiz-adv-x="757" d="M377 -11 C560 -11 678 94 678 303 L678 644 C678 678 651 705 617 705 C582 705 555 678 555 644 L555 297 C555 168 488 103 379 103 C269 103 202 172 202 302 L202 644 C202 678 175 705 141 705 C106 705 79 678 79 644 L79 297 C79 94 195 -11 377 -11 L377 -11 Z " />
<glyph glyph-name="V" unicode="V" horiz-adv-x="733" d="M363 -10 L370 -10 C405 -10 428 9 441 40 L687 620 C690 627 693 637 693 646 C693 679 666 705 632 705 C603 705 581 686 573 665 L368 156 L166 661 C156 687 135 705 103 705 C68 705 41 678 41 645 C41 634 44 625 48 616 L293 40 C306 9 329 -10 363 -10 L363 -10 Z " />
<glyph glyph-name="W" unicode="W" horiz-adv-x="1099" d="M254 41 C266 9 288 -10 318 -10 L330 -10 C360 -10 383 9 394 41 L550 498 L706 41 C717 9 739 -10 769 -10 L781 -10 C811 -10 834 10 845 41 L1052 621 C1055 628 1058 638 1058 646 C1058 679 1030 705 997 705 C967 705 946 686 937 661 L776 179 L618 658 C609 687 587 707 556 707 L547 707 C516 707 495 687 485 658 L327 179 L166 660 C158 686 135 705 105 705 C71 705 42 679 42 645 C42 637 44 628 47 621 L254 41 Z " />
<glyph glyph-name="X" unicode="X" horiz-adv-x="714" d="M54 52 C54 17 82 -5 110 -5 C137 -5 153 7 170 29 L355 270 L543 25 C558 5 573 -5 599 -5 C634 -5 660 21 660 55 C660 73 651 88 641 101 L435 358 L631 602 C643 617 650 631 650 649 C650 683 621 705 594 705 C567 705 550 693 534 671 L359 442 L182 675 C167 695 152 705 126 705 C91 705 65 679 65 645 C65 628 74 612 84 599 L280 356 L72 98 C61 83 54 69 54 52 L54 52 Z " />
<glyph glyph-name="Y" unicode="Y" horiz-adv-x="696" d="M287 56 C287 22 314 -5 348 -5 C383 -5 410 22 410 56 L410 275 L649 602 C658 614 666 629 666 646 C666 679 642 706 606 706 C580 706 562 691 547 669 L349 387 L154 668 C139 690 121 705 94 705 C59 705 32 679 32 646 C32 629 38 615 46 603 L287 272 L287 56 Z " />
<glyph glyph-name="Z" unicode="Z" horiz-adv-x="702" d="M116 0 L589 0 C619 0 644 24 644 54 C644 84 619 109 589 109 L225 109 L620 586 C634 604 642 622 642 643 L642 646 C642 675 617 700 587 700 L127 700 C98 700 73 675 73 645 C73 615 98 591 127 591 L478 591 L84 114 C69 97 61 78 61 57 L61 54 C61 25 87 0 116 0 L116 0 Z " />
<glyph glyph-name="bracketleft" unicode="&#x5b;" horiz-adv-x="455" d="M88 -70 C88 -103 114 -130 147 -130 L353 -130 C379 -130 401 -108 401 -82 C401 -56 379 -35 353 -35 L204 -35 L204 605 L353 605 C379 605 401 626 401 652 C401 678 379 700 353 700 L147 700 C114 700 88 673 88 640 L88 -70 Z " />
<glyph glyph-name="backslash" unicode="&#x5c;" horiz-adv-x="521" d="M521 -87 C521 -78 518 -69 515 -63 L106 775 C97 793 82 803 62 803 C36 803 15 782 15 757 C15 748 18 739 20 733 L430 -105 C439 -123 453 -133 473 -133 C499 -133 521 -112 521 -87 L521 -87 Z " />
<glyph glyph-name="bracketright" unicode="&#x5d;" horiz-adv-x="455" d="M367 640 C367 673 340 700 307 700 L101 700 C75 700 54 678 54 652 C54 626 75 605 101 605 L251 605 L251 -35 L101 -35 C75 -35 54 -56 54 -82 C54 -108 75 -130 101 -130 L307 -130 C340 -130 367 -103 367 -70 L367 640 Z " />
<glyph glyph-name="asciicircum" unicode="&#x5e;" horiz-adv-x="500" d="M249 625 L321 532 C348 497 364 488 394 488 C410 488 422 496 422 508 C422 517 418 527 411 538 L316 668 C299 691 282 704 254 704 L245 704 C217 704 200 691 184 668 L89 538 C81 527 77 517 77 508 C77 496 89 488 105 488 C134 488 150 497 177 532 L249 625 Z " />
<glyph glyph-name="underscore" unicode="&#x5f;" horiz-adv-x="600" d="M-2 -160 L602 -160 C628 -160 649 -139 649 -113 C649 -87 628 -66 602 -66 L-2 -66 C-28 -66 -49 -87 -49 -113 C-49 -139 -28 -160 -2 -160 L-2 -160 Z " />
<glyph glyph-name="grave" unicode="&#x60;" horiz-adv-x="500" d="M293 590 C311 590 324 598 324 611 C324 618 319 627 315 633 L258 721 C247 739 231 750 210 750 C178 750 138 730 138 711 C138 700 145 690 155 681 L223 617 C246 595 265 590 293 590 L293 590 Z " />
<glyph glyph-name="a" unicode="a" horiz-adv-x="587" d="M228 -11 C309 -11 364 23 400 66 L400 46 C400 19 424 -5 459 -5 C492 -5 518 20 518 53 L518 313 C518 382 500 438 461 476 C424 514 365 535 286 535 C217 535 166 523 116 504 C98 497 83 478 83 456 C83 428 106 406 134 406 C140 406 146 407 153 409 C186 422 224 430 270 430 C355 430 401 390 401 315 L401 302 C360 315 318 324 259 324 C130 324 41 268 41 154 L41 152 C41 46 129 -11 228 -11 L228 -11 Z M262 77 C204 77 159 106 159 157 L159 159 C159 214 205 247 283 247 C331 247 372 238 403 226 L403 190 C403 123 342 77 262 77 L262 77 Z " />
<glyph glyph-name="b" unicode="b" horiz-adv-x="671" d="M76 55 C76 22 103 -5 136 -5 C170 -5 197 22 197 55 L197 82 C234 33 289 -11 377 -11 C502 -11 622 88 622 263 L622 265 C622 441 501 539 377 539 C291 539 236 495 197 440 L197 675 C197 709 170 735 136 735 C102 735 76 709 76 675 L76 55 Z M348 94 C266 94 194 162 194 263 L194 265 C194 366 266 434 348 434 C430 434 499 367 499 265 L499 263 C499 159 431 94 348 94 L348 94 Z " />
<glyph glyph-name="c" unicode="c" horiz-adv-x="571" d="M320 -12 C408 -12 465 18 512 63 C523 72 529 85 529 101 C529 130 506 154 477 154 C463 154 451 147 444 141 C411 113 374 94 326 94 C233 94 168 169 168 263 L168 265 C168 357 233 433 321 433 C369 433 403 414 434 388 C442 382 455 376 470 376 C501 376 526 400 526 431 C526 451 515 466 507 473 C462 512 405 539 322 539 C163 539 47 413 47 263 L47 261 C47 111 163 -12 320 -12 L320 -12 Z " />
<glyph glyph-name="d" unicode="d" horiz-adv-x="671" d="M595 675 C595 709 568 735 534 735 C501 735 474 709 474 675 L474 446 C436 496 381 539 294 539 C168 539 49 440 49 265 L49 263 C49 88 170 -11 294 -11 C380 -11 435 33 474 88 L474 55 C474 21 501 -5 535 -5 C568 -5 595 21 595 55 L595 675 Z M323 434 C404 434 476 367 476 265 L476 263 C476 162 404 94 323 94 C241 94 171 161 171 263 L171 265 C171 370 240 434 323 434 L323 434 Z " />
<glyph glyph-name="e" unicode="e" horiz-adv-x="604" d="M167 301 C178 383 230 440 304 440 C384 440 430 379 438 301 L167 301 Z M508 58 C517 67 524 80 524 95 C524 123 503 144 476 144 C462 144 454 140 445 133 C411 105 371 87 320 87 C242 87 181 135 168 221 L499 221 C530 221 556 245 556 279 C556 401 473 539 305 539 C154 539 47 415 47 264 L47 262 C47 99 165 -12 318 -12 C400 -12 460 15 508 58 L508 58 Z " />
<glyph glyph-name="f" unicode="f" horiz-adv-x="376" d="M103 55 C103 22 130 -5 163 -5 C197 -5 224 22 224 55 L224 424 L316 424 C344 424 367 446 367 474 C367 502 345 524 316 524 L222 524 L222 553 C222 608 246 633 292 633 C300 633 310 632 317 631 C345 630 368 653 368 681 C368 708 348 728 326 731 C309 734 289 736 265 736 C213 736 174 722 146 694 C118 666 103 622 103 564 L103 525 L82 525 C54 525 31 502 31 474 C31 446 54 424 82 424 L103 424 L103 55 Z " />
<glyph glyph-name="g" unicode="g" horiz-adv-x="671" d="M311 -162 C406 -162 480 -139 528 -91 C572 -47 595 19 595 108 L595 473 C595 507 568 534 534 534 C501 534 474 507 474 474 L474 449 C433 498 378 539 289 539 C166 539 49 447 49 291 L49 289 C49 134 165 42 289 42 C376 42 431 82 475 139 L475 98 C475 -8 416 -64 308 -64 C247 -64 194 -49 146 -22 C140 -19 133 -17 124 -17 C96 -17 73 -40 73 -67 C73 -90 86 -107 107 -115 C171 -146 237 -162 311 -162 L311 -162 Z M321 145 C238 145 171 204 171 290 L171 292 C171 379 237 437 321 437 C405 437 476 378 476 292 L476 290 C476 204 405 145 321 145 L321 145 Z " />
<glyph glyph-name="h" unicode="h" horiz-adv-x="620" d="M76 55 C76 21 103 -5 136 -5 C170 -5 197 21 197 55 L197 298 C197 380 246 429 316 429 C388 429 429 382 429 300 L429 55 C429 21 456 -5 490 -5 C524 -5 550 21 550 55 L550 337 C550 459 481 539 362 539 C280 539 231 496 197 447 L197 675 C197 708 170 735 136 735 C102 735 76 708 76 675 L76 55 Z " />
<glyph glyph-name="i" unicode="i" horiz-adv-x="286" d="M74 664 C74 628 104 604 143 604 C182 604 212 628 212 664 L212 670 C212 706 182 729 143 729 C104 729 74 706 74 670 L74 664 Z M83 55 C83 21 110 -5 143 -5 C177 -5 204 21 204 55 L204 473 C204 507 177 534 143 534 C109 534 83 507 83 473 L83 55 Z " />
<glyph glyph-name="j" unicode="j" horiz-adv-x="286" d="M58 -163 C147 -163 204 -114 204 -7 L204 473 C204 507 177 534 143 534 C109 534 83 507 83 473 L83 -7 C83 -47 65 -64 38 -64 C37 -64 33 -63 31 -63 C5 -63 -17 -83 -17 -113 C-17 -146 11 -162 49 -163 L58 -163 Z M74 664 C74 628 104 604 143 604 C182 604 212 628 212 664 L212 670 C212 706 182 729 143 729 C104 729 74 706 74 670 L74 664 Z " />
<glyph glyph-name="k" unicode="k" horiz-adv-x="580" d="M76 55 C76 21 103 -5 136 -5 C170 -5 197 21 197 55 L197 147 L277 223 L428 22 C443 3 457 -5 481 -5 C512 -5 538 17 538 50 C538 64 533 75 522 90 L362 299 L502 428 C519 444 529 459 529 479 C529 508 508 534 476 534 C455 534 440 524 424 508 L197 285 L197 675 C197 708 170 735 136 735 C102 735 76 708 76 675 L76 55 Z " />
<glyph glyph-name="l" unicode="l" horiz-adv-x="286" d="M83 55 C83 21 110 -5 143 -5 C177 -5 204 21 204 55 L204 675 C204 708 177 735 143 735 C109 735 83 708 83 675 L83 55 Z " />
<glyph glyph-name="m" unicode="m" horiz-adv-x="950" d="M76 55 C76 21 103 -5 136 -5 C170 -5 197 21 197 55 L197 298 C197 379 243 429 310 429 C377 429 417 383 417 301 L417 55 C417 21 444 -5 478 -5 C511 -5 538 21 538 55 L538 298 C538 383 585 429 651 429 C719 429 758 384 758 300 L758 55 C758 21 785 -5 819 -5 C853 -5 879 21 879 55 L879 337 C879 466 809 539 694 539 C614 539 558 502 516 446 C488 502 434 539 358 539 C277 539 231 495 197 448 L197 473 C197 507 170 534 136 534 C102 534 76 507 76 473 L76 55 Z " />
<glyph glyph-name="n" unicode="n" horiz-adv-x="620" d="M76 55 C76 21 103 -5 136 -5 C170 -5 197 21 197 55 L197 298 C197 380 246 429 316 429 C388 429 429 382 429 300 L429 55 C429 21 456 -5 490 -5 C524 -5 550 21 550 55 L550 337 C550 459 481 539 362 539 C280 539 231 496 197 447 L197 473 C197 507 170 534 136 534 C102 534 76 507 76 473 L76 55 Z " />
<glyph glyph-name="o" unicode="o" horiz-adv-x="657" d="M327 -12 C490 -12 610 113 610 263 L610 265 C610 416 491 539 329 539 C167 539 47 414 47 263 L47 261 C47 111 166 -12 327 -12 L327 -12 Z M329 94 C235 94 168 171 168 263 L168 265 C168 357 230 433 327 433 C422 433 489 356 489 263 L489 261 C489 170 427 94 329 94 L329 94 Z " />
<glyph glyph-name="p" unicode="p" horiz-adv-x="671" d="M76 -105 C76 -139 103 -165 136 -165 C170 -165 197 -139 197 -105 L197 82 C234 33 289 -11 377 -11 C502 -11 622 88 622 263 L622 265 C622 441 501 539 377 539 C291 539 236 495 197 440 L197 473 C197 507 170 534 136 534 C102 534 76 507 76 473 L76 -105 Z M348 94 C266 94 194 162 194 263 L194 265 C194 366 266 434 348 434 C430 434 499 367 499 265 L499 263 C499 159 431 94 348 94 L348 94 Z " />
<glyph glyph-name="q" unicode="q" horiz-adv-x="671" d="M595 473 C595 507 568 534 534 534 C501 534 474 507 474 474 L474 446 C436 496 381 539 294 539 C168 539 49 440 49 265 L49 263 C49 88 170 -11 294 -11 C380 -11 435 33 474 88 L474 -105 C474 -139 501 -165 535 -165 C568 -165 595 -139 595 -105 L595 473 Z M323 434 C404 434 476 367 476 265 L476 263 C476 162 404 94 323 94 C241 94 171 161 171 263 L171 265 C171 370 240 434 323 434 L323 434 Z " />
<glyph glyph-name="r" unicode="r" horiz-adv-x="413" d="M76 55 C76 21 103 -5 136 -5 C170 -5 197 22 197 55 L197 211 C197 336 256 402 342 417 C369 422 390 443 390 475 C390 510 368 535 330 535 C277 535 225 485 197 419 L197 473 C197 507 170 534 136 534 C102 534 76 507 76 473 L76 55 Z " />
<glyph glyph-name="s" unicode="s" horiz-adv-x="501" d="M257 -10 C367 -10 453 45 453 156 L453 158 C453 253 366 288 289 312 C227 332 170 348 170 387 L170 389 C170 419 197 441 244 441 C281 441 325 427 368 405 C376 401 382 399 392 399 C420 399 442 420 442 448 C442 469 430 485 413 494 C362 521 303 537 247 537 C142 537 59 476 59 376 L59 374 C59 273 146 241 224 219 C286 200 342 186 342 145 L342 143 C342 108 312 86 260 86 C212 86 159 103 108 137 C101 141 92 144 82 144 C54 144 33 122 33 95 C33 75 43 60 56 53 C117 11 190 -10 257 -10 L257 -10 Z " />
<glyph glyph-name="t" unicode="t" horiz-adv-x="411" d="M253 -9 C285 -9 310 -4 336 5 C353 12 368 30 368 52 C368 80 344 102 317 102 C313 102 301 99 287 99 C246 99 222 118 222 165 L222 424 L317 424 C346 424 370 447 370 476 C370 505 346 528 317 528 L222 528 L222 618 C222 651 195 678 162 678 C128 678 101 651 101 618 L101 528 L81 528 C52 528 29 505 29 476 C29 447 52 424 81 424 L101 424 L101 146 C101 30 164 -9 253 -9 L253 -9 Z " />
<glyph glyph-name="u" unicode="u" horiz-adv-x="620" d="M545 473 C545 507 517 534 484 534 C450 534 423 507 423 473 L423 230 C423 148 374 100 304 100 C232 100 191 146 191 228 L191 473 C191 507 164 534 130 534 C97 534 70 507 70 473 L70 192 C70 69 139 -11 258 -11 C340 -11 389 32 423 82 L423 55 C423 21 451 -5 484 -5 C518 -5 545 22 545 55 L545 473 Z " />
<glyph glyph-name="v" unicode="v" horiz-adv-x="586" d="M365 43 L541 447 C544 453 548 465 548 476 C548 509 522 534 489 534 C457 534 441 513 432 492 L294 140 L158 490 C148 515 131 534 98 534 C65 534 38 506 38 476 C38 465 42 455 45 446 L221 43 C235 11 257 -10 290 -10 L296 -10 C329 -10 351 12 365 43 L365 43 Z " />
<glyph glyph-name="w" unicode="w" horiz-adv-x="853" d="M253 -9 L257 -9 C286 -9 311 8 322 43 L426 357 L529 43 C540 8 565 -9 595 -9 L599 -9 C628 -9 653 8 666 45 L810 451 C812 457 815 469 815 478 C815 508 791 534 758 534 C726 534 707 513 699 487 L596 166 L492 486 C483 514 461 534 430 534 L423 534 C392 534 370 514 361 486 L258 166 L156 486 C147 514 127 534 97 534 C61 534 38 507 38 478 C38 468 41 455 44 447 L186 45 C198 8 223 -9 253 -9 L253 -9 Z " />
<glyph glyph-name="x" unicode="x" horiz-adv-x="573" d="M48 46 C48 16 73 -7 104 -7 C126 -7 143 7 157 24 L285 189 L413 24 C428 4 445 -7 469 -7 C499 -7 525 15 525 49 C525 65 518 79 505 95 L357 270 L500 441 C510 453 517 465 517 482 C517 512 492 535 460 535 C439 535 422 522 408 504 L287 349 L168 505 C153 524 136 535 112 535 C82 535 56 513 56 479 C56 463 63 449 76 433 L215 268 L65 88 C54 76 48 63 48 46 L48 46 Z " />
<glyph glyph-name="y" unicode="y" horiz-adv-x="587" d="M172 -163 C257 -163 305 -123 350 -15 L543 448 C545 454 548 467 548 477 C548 509 522 534 490 534 C459 534 442 513 432 488 L300 137 L158 488 C147 516 130 534 99 534 C65 534 39 509 39 475 C39 467 42 455 46 446 L242 8 L238 -3 C218 -44 199 -59 163 -59 C146 -59 135 -56 121 -52 C115 -50 109 -48 99 -48 C73 -48 50 -68 50 -98 C50 -127 70 -142 88 -148 C113 -158 138 -163 172 -163 L172 -163 Z " />
<glyph glyph-name="z" unicode="z" horiz-adv-x="560" d="M108 0 L466 0 C494 0 516 22 516 49 C516 77 494 99 466 99 L206 99 L488 419 C506 439 514 454 514 477 L514 480 C514 508 489 528 456 528 L108 528 C80 528 58 506 58 478 C58 451 80 429 108 429 L357 429 L76 109 C57 89 49 74 49 51 L49 49 C49 21 74 0 108 0 L108 0 Z " />
<glyph glyph-name="braceleft" unicode="&#x7b;" horiz-adv-x="487" d="M385 -135 C416 -142 440 -123 440 -94 C440 -70 424 -57 412 -53 C315 -23 301 8 301 76 C301 96 303 129 303 150 C303 228 266 265 199 287 C265 308 303 346 303 424 C303 445 301 478 301 498 C301 566 315 597 412 627 C424 631 440 644 440 668 C440 697 416 716 385 709 C230 675 189 613 189 516 C189 501 191 461 191 444 C191 370 165 338 97 335 C65 333 46 314 46 287 C46 260 65 241 97 239 C165 237 191 204 191 131 C191 114 189 74 189 59 C189 -39 230 -101 385 -135 L385 -135 Z " />
<glyph glyph-name="bar" unicode="&#x7c;" horiz-adv-x="331" d="M117 -85 C117 -112 139 -133 165 -133 C192 -133 214 -112 214 -85 L214 755 C214 782 192 803 165 803 C139 803 117 782 117 755 L117 -85 Z " />
<glyph glyph-name="braceright" unicode="&#x7d;" horiz-adv-x="487" d="M102 709 C71 716 47 697 47 668 C47 644 63 631 76 627 C172 597 186 566 186 498 C186 478 184 445 184 424 C184 346 221 309 288 287 C222 266 184 228 184 150 C184 129 186 96 186 76 C186 8 172 -23 76 -53 C63 -57 47 -70 47 -94 C47 -123 71 -142 102 -135 C257 -101 298 -39 298 59 C298 74 296 114 296 131 C296 204 323 237 391 239 C422 241 441 260 441 287 C441 314 422 333 391 335 C323 338 296 370 296 444 C296 461 298 501 298 516 C298 613 257 675 102 709 L102 709 Z " />
<glyph glyph-name="asciitilde" unicode="&#x7e;" horiz-adv-x="495" d="M134 247 C146 269 157 279 181 279 C216 279 269 239 324 239 C378 239 405 272 426 330 C429 337 430 347 430 353 C430 370 413 387 393 387 C378 387 367 377 361 366 C349 344 338 335 314 335 C279 335 226 374 171 374 C117 374 90 341 69 283 C66 277 65 266 65 261 C65 243 82 227 102 227 C117 227 128 236 134 247 L134 247 Z " />
<glyph glyph-name="uni00A0" unicode="&#xa0;" horiz-adv-x="300" d="" />
<glyph glyph-name="exclamdown" unicode="&#xa1;" horiz-adv-x="302" d="M188 448 C186 470 171 484 151 484 C131 484 117 470 115 448 L80 40 C78 16 92 -3 115 -3 L187 -3 C210 -3 225 16 223 40 L188 448 Z M222 627 L222 636 C222 675 192 705 151 705 C111 705 80 675 80 636 L80 627 C80 587 111 557 151 557 C192 557 222 587 222 627 L222 627 Z " />
<glyph glyph-name="cent" unicode="&#xa2;" horiz-adv-x="581" d="M219 41 C213 12 234 -11 261 -11 C284 -11 299 4 303 24 L314 80 L321 80 C406 80 468 112 515 157 C525 166 531 179 531 194 C531 222 508 245 482 245 C465 245 456 239 448 233 C415 204 377 186 330 185 L394 511 C412 503 428 492 444 479 C451 473 463 467 478 467 C508 467 532 491 532 521 C532 541 523 554 514 562 C487 585 456 605 419 617 L427 659 C434 688 412 711 386 711 C362 711 347 696 343 676 L334 630 L326 630 C168 630 52 506 52 355 L52 353 C52 234 125 133 230 96 L219 41 Z M170 355 L170 357 C170 448 233 522 318 525 L255 202 C202 230 170 287 170 355 L170 355 Z " />
<glyph glyph-name="sterling" unicode="&#xa3;" horiz-adv-x="644" d="M58 43 C58 19 77 0 105 0 L543 0 C573 0 597 23 597 53 C597 83 573 107 543 107 L267 107 L267 278 L469 278 C497 278 521 301 521 330 C521 358 497 382 469 382 L267 382 L267 471 C267 513 279 546 300 568 C319 586 342 596 374 596 C420 596 450 577 481 544 C489 535 503 525 525 525 C559 525 586 551 586 585 C586 604 578 618 567 629 C523 676 464 710 372 710 C300 710 243 688 204 648 C164 608 142 547 142 474 L142 382 L110 382 C81 382 58 358 58 330 C58 301 81 278 110 278 L142 278 L142 102 L91 87 C69 80 58 63 58 43 L58 43 Z " />
<glyph glyph-name="yen" unicode="&#xa5;" horiz-adv-x="686" d="M402 264 L556 264 C580 264 600 284 600 308 C600 333 580 353 556 353 L435 353 L621 605 C630 617 636 631 636 648 C636 683 609 705 577 705 C551 705 533 688 521 670 L344 410 L169 671 C155 692 137 705 111 705 C76 705 50 678 50 647 C50 632 55 619 65 605 L249 353 L130 353 C106 353 86 333 86 308 C86 284 106 264 130 264 L284 264 L284 191 L130 191 C106 191 86 171 86 146 C86 122 106 102 130 102 L284 102 L284 54 C284 21 310 -5 343 -5 C376 -5 402 21 402 54 L402 102 L556 102 C580 102 600 122 600 146 C600 171 580 191 556 191 L402 191 L402 264 Z " />
<glyph glyph-name="section" unicode="&#xa7;" horiz-adv-x="632" d="M326 -10 C448 -10 523 48 523 136 L523 138 C523 176 502 212 467 233 C528 249 574 285 574 349 L574 351 C574 424 513 462 358 497 C250 522 226 540 226 567 L226 569 C226 598 254 618 307 618 C362 618 409 597 451 562 C458 556 469 551 482 551 C510 551 532 572 532 600 C532 617 523 630 514 638 C460 683 391 710 306 710 C184 710 110 653 110 564 L110 562 C110 524 129 490 165 467 C104 451 58 416 58 351 L58 349 C58 277 119 238 274 203 C377 180 406 162 406 133 L406 131 C406 103 378 82 325 82 C270 82 223 103 181 138 C174 144 163 150 150 150 C122 150 100 128 100 100 C100 83 109 70 118 62 C172 17 241 -10 326 -10 L326 -10 Z M388 278 C365 278 335 283 285 296 C199 317 167 337 167 366 L167 368 C167 399 199 422 244 422 C267 422 297 417 348 404 C433 383 465 363 465 334 L465 332 C465 301 433 278 388 278 L388 278 Z " />
<glyph glyph-name="dieresis" unicode="&#xa8;" horiz-adv-x="500" d="M350 720 C313 720 284 694 284 658 L284 651 C284 615 313 590 350 590 C386 590 415 615 415 651 L415 658 C415 694 386 720 350 720 L350 720 Z M151 720 C114 720 85 694 85 658 L85 651 C85 615 114 590 151 590 C187 590 216 615 216 651 L216 658 C216 694 187 720 151 720 L151 720 Z " />
<glyph glyph-name="copyright" unicode="&#xa9;" horiz-adv-x="830" d="M414 -12 C617 -12 777 153 777 350 L777 352 C777 549 619 712 416 712 C213 712 53 547 53 350 L53 348 C53 151 211 -12 414 -12 L414 -12 Z M414 24 C230 24 91 169 91 348 L91 350 C91 529 231 676 416 676 C600 676 739 531 739 352 L739 350 C739 171 599 24 414 24 L414 24 Z M419 159 C483 159 522 180 559 212 C565 217 570 226 570 237 C570 256 554 272 535 272 C525 272 518 267 513 263 C486 240 459 227 421 227 C353 227 303 285 303 354 L303 356 C303 426 353 483 421 483 C455 483 484 469 507 451 C515 445 523 441 531 441 C551 441 567 457 567 478 C567 491 560 502 551 508 C519 534 482 551 421 551 C308 551 227 462 227 355 L227 353 C227 245 309 159 419 159 L419 159 Z " />
<glyph glyph-name="ordfeminine" unicode="&#xaa;" horiz-adv-x="390" d="M159 403 C201 403 230 419 251 443 L251 435 C251 417 267 404 284 404 C303 404 319 419 319 437 L319 581 C319 618 309 650 288 670 C267 692 235 703 191 703 C153 703 126 697 98 686 C87 682 79 671 79 658 C79 642 92 629 109 629 C113 629 118 630 124 632 C140 638 158 643 182 643 C227 643 252 621 252 582 L252 577 C230 583 208 588 176 588 C106 588 56 557 56 495 L56 493 C56 434 104 403 159 403 L159 403 Z M77 282 L299 282 C315 282 329 295 329 311 C329 327 315 340 299 340 L77 340 C61 340 48 327 48 311 C48 295 61 282 77 282 L77 282 Z M177 454 C147 454 125 470 125 496 L125 498 C125 526 149 543 189 543 C215 543 235 538 252 532 L252 514 C252 479 220 454 177 454 L177 454 Z " />
<glyph glyph-name="guillemotleft" unicode="&#xab;" horiz-adv-x="606" d="M489 42 C517 42 538 64 539 92 C539 105 535 114 526 125 L419 265 L524 402 C532 411 538 423 538 436 C538 463 517 486 489 486 C471 486 454 476 444 462 L318 299 C309 288 303 277 303 264 C303 251 309 241 318 229 L447 63 C456 51 470 42 489 42 L489 42 Z M237 42 C265 42 287 64 287 92 C287 104 283 115 275 125 L167 265 L273 402 C280 411 286 423 286 436 C286 463 265 486 238 486 C219 486 203 476 192 462 L66 299 C57 288 52 277 52 264 C52 251 57 241 66 229 L195 63 C204 51 219 42 237 42 L237 42 Z " />
<glyph glyph-name="registered" unicode="&#xae;" horiz-adv-x="382" d="M191 360 C288 360 365 440 365 535 L365 536 C365 631 289 710 191 710 C94 710 17 630 17 535 L17 534 C17 439 93 360 191 360 L191 360 Z M191 379 C103 379 37 449 37 534 L37 535 C37 620 104 691 191 691 C279 691 345 621 345 536 L345 535 C345 450 278 379 191 379 L191 379 Z M119 466 C119 454 129 444 141 444 C153 444 163 454 163 466 L163 505 L192 505 L234 453 C239 448 244 444 252 444 C265 444 274 453 274 465 C274 471 273 476 268 481 L241 514 C263 523 277 542 277 569 C277 609 247 629 204 629 L141 629 C129 629 119 619 119 606 L119 466 Z M163 541 L163 591 L201 591 C220 591 232 582 232 566 C232 551 221 541 201 541 L163 541 Z " />
<glyph glyph-name="macron" unicode="&#xaf;" horiz-adv-x="500" d="M383 606 C407 606 427 626 427 650 C427 674 407 694 383 694 L117 694 C93 694 73 674 73 650 C73 626 93 606 117 606 L383 606 Z " />
<glyph glyph-name="degree" unicode="&#xb0;" horiz-adv-x="471" d="M236 381 C323 381 402 456 402 543 L402 545 C402 632 323 706 236 706 C148 706 69 632 69 545 L69 543 C69 456 148 381 236 381 L236 381 Z M236 447 C181 447 141 492 141 543 L141 545 C141 596 181 640 236 640 C290 640 330 596 330 545 L330 543 C330 492 290 447 236 447 L236 447 Z " />
<glyph glyph-name="plusminus" unicode="&#xb1;" horiz-adv-x="634" d="M262 238 C262 207 286 183 317 183 C348 183 372 207 372 238 L371 373 L511 373 C541 373 565 397 565 426 C565 455 541 479 511 479 L371 479 L372 614 C372 645 348 669 317 669 C286 669 262 645 262 614 L263 479 L122 479 C93 479 69 455 69 426 C69 397 93 373 122 373 L263 373 L262 238 Z M120 0 L514 0 C542 0 565 23 565 51 C565 80 542 103 514 103 L120 103 C92 103 69 80 69 51 C69 23 92 0 120 0 L120 0 Z " />
<glyph glyph-name="acute" unicode="&#xb4;" horiz-adv-x="500" d="M207 590 C235 590 254 595 278 617 L345 681 C355 690 362 700 362 711 C362 730 322 750 290 750 C269 750 253 739 242 721 L185 633 C181 627 177 618 177 611 C177 598 190 590 207 590 L207 590 Z " />
<glyph glyph-name="paragraph" unicode="&#xb6;" horiz-adv-x="557" d="M346 56 C346 22 374 -5 408 -5 C443 -5 470 22 470 56 L470 638 C470 673 443 700 408 700 L311 700 C151 700 40 615 40 473 L40 471 C40 322 164 244 328 244 L346 244 L346 56 Z " />
<glyph glyph-name="periodcentered" unicode="&#xb7;" horiz-adv-x="269" d="M64 311 L64 302 C64 262 95 232 135 232 C174 232 205 262 205 302 L205 311 C205 350 174 380 135 380 C95 380 64 350 64 311 L64 311 Z " />
<glyph glyph-name="cedilla" unicode="&#xb8;" horiz-adv-x="500" d="M312 10 L221 10 L150 -93 C145 -100 142 -108 142 -116 C142 -137 188 -160 212 -160 C233 -160 243 -150 251 -131 L312 10 Z " />
<glyph glyph-name="ordmasculine" unicode="&#xba;" horiz-adv-x="390" d="M194 402 C281 402 346 470 346 553 L346 555 C346 638 283 705 196 705 C109 705 44 637 44 554 L44 552 C44 469 108 402 194 402 L194 402 Z M75 282 L315 282 C331 282 344 295 344 311 C344 327 331 340 315 340 L75 340 C59 340 46 327 46 311 C46 295 59 282 75 282 L75 282 Z M196 464 C148 464 114 505 114 553 L114 555 C114 603 146 643 194 643 C242 643 276 602 276 554 L276 552 C276 504 245 464 196 464 L196 464 Z " />
<glyph glyph-name="guillemotright" unicode="&#xbb;" horiz-adv-x="606" d="M369 486 C341 486 319 464 319 436 C319 423 323 413 331 402 L439 262 L333 126 C326 117 320 104 320 92 C320 65 341 42 368 42 C387 42 403 52 414 66 L540 228 C549 240 555 250 555 263 C555 277 549 287 540 299 L411 464 C402 476 387 486 369 486 L369 486 Z M117 486 C89 486 68 464 67 436 C67 423 71 413 80 402 L187 262 L82 126 C74 117 68 104 68 92 C68 65 89 42 117 42 C135 42 152 52 162 66 L288 228 C297 240 303 250 303 263 C303 277 297 287 288 299 L159 464 C150 476 136 486 117 486 L117 486 Z " />
<glyph glyph-name="questiondown" unicode="&#xbf;" horiz-adv-x="541" d="M290 484 C267 484 251 466 248 444 L243 398 C132 379 42 323 42 196 L42 194 C42 69 136 -9 276 -9 C368 -9 435 24 488 74 C502 86 508 102 508 117 C508 147 483 172 452 172 C438 172 425 166 415 158 C375 122 332 103 279 103 C208 103 165 142 165 198 L165 200 C165 263 216 299 310 308 C337 312 353 331 349 358 L339 444 C336 467 319 484 296 484 L290 484 Z M367 627 L367 636 C367 675 337 705 296 705 C255 705 225 675 225 636 L225 627 C225 587 255 557 296 557 C337 557 367 587 367 627 L367 627 Z " />
<glyph glyph-name="Agrave" unicode="&#xc0;" horiz-adv-x="773" d="M42 52 C42 20 67 -5 99 -5 C125 -5 146 9 156 34 L215 169 L555 169 L612 38 C623 12 643 -5 672 -5 C705 -5 730 21 730 54 C730 62 728 71 723 80 L463 660 C449 691 425 710 390 710 L384 710 C349 710 324 691 310 660 L50 80 C45 70 42 61 42 52 L42 52 Z M262 278 L385 561 L508 278 L262 278 Z M389 763 C407 763 420 771 420 784 C420 791 415 800 411 806 L354 894 C343 912 327 923 306 923 C274 923 234 903 234 884 C234 873 241 863 251 854 L319 790 C342 768 361 763 389 763 L389 763 Z " />
<glyph glyph-name="Aacute" unicode="&#xc1;" horiz-adv-x="773" d="M42 52 C42 20 67 -5 99 -5 C125 -5 146 9 156 34 L215 169 L555 169 L612 38 C623 12 643 -5 672 -5 C705 -5 730 21 730 54 C730 62 728 71 723 80 L463 660 C449 691 425 710 390 710 L384 710 C349 710 324 691 310 660 L50 80 C45 70 42 61 42 52 L42 52 Z M262 278 L385 561 L508 278 L262 278 Z M382 763 C410 763 429 768 453 790 L520 854 C530 863 537 873 537 884 C537 903 497 923 465 923 C444 923 428 912 417 894 L360 806 C356 800 352 791 352 784 C352 771 365 763 382 763 L382 763 Z " />
<glyph glyph-name="Acircumflex" unicode="&#xc2;" horiz-adv-x="773" d="M42 52 C42 20 67 -5 99 -5 C125 -5 146 9 156 34 L215 169 L555 169 L612 38 C623 12 643 -5 672 -5 C705 -5 730 21 730 54 C730 62 728 71 723 80 L463 660 C449 691 425 710 390 710 L384 710 C349 710 324 691 310 660 L50 80 C45 70 42 61 42 52 L42 52 Z M262 278 L385 561 L508 278 L262 278 Z M384 835 L436 790 C463 768 482 763 510 763 C526 763 539 770 539 783 C539 790 533 799 527 807 L461 890 C447 908 431 919 403 919 L367 919 C339 919 324 908 309 890 L243 807 C237 799 231 790 231 783 C231 770 243 763 258 763 C286 763 306 768 332 790 L384 835 Z " />
<glyph glyph-name="Atilde" unicode="&#xc3;" horiz-adv-x="773" d="M42 52 C42 20 67 -5 99 -5 C125 -5 146 9 156 34 L215 169 L555 169 L612 38 C623 12 643 -5 672 -5 C705 -5 730 21 730 54 C730 62 728 71 723 80 L463 660 C449 691 425 710 390 710 L384 710 C349 710 324 691 310 660 L50 80 C45 70 42 61 42 52 L42 52 Z M262 278 L385 561 L508 278 L262 278 Z M277 776 C289 798 300 808 323 808 C359 808 412 768 467 768 C520 768 548 801 569 859 C571 866 573 876 573 882 C573 899 556 915 536 915 C521 915 510 906 503 895 C491 873 480 863 457 863 C421 863 368 903 313 903 C260 903 232 870 211 812 C209 805 207 795 207 789 C207 772 224 756 244 756 C260 756 270 765 277 776 L277 776 Z " />
<glyph glyph-name="Adieresis" unicode="&#xc4;" horiz-adv-x="773" d="M42 52 C42 20 67 -5 99 -5 C125 -5 146 9 156 34 L215 169 L555 169 L612 38 C623 12 643 -5 672 -5 C705 -5 730 21 730 54 C730 62 728 71 723 80 L463 660 C449 691 425 710 390 710 L384 710 C349 710 324 691 310 660 L50 80 C45 70 42 61 42 52 L42 52 Z M262 278 L385 561 L508 278 L262 278 Z M485 893 C448 893 419 867 419 831 L419 824 C419 788 448 763 485 763 C521 763 550 788 550 824 L550 831 C550 867 521 893 485 893 L485 893 Z M286 893 C249 893 220 867 220 831 L220 824 C220 788 249 763 286 763 C322 763 351 788 351 824 L351 831 C351 867 322 893 286 893 L286 893 Z " />
<glyph glyph-name="Aring" unicode="&#xc5;" horiz-adv-x="790" d="M461 684 C490 703 509 736 509 771 L509 773 C509 832 455 882 395 882 C335 882 281 832 281 773 L281 771 C281 735 301 703 329 684 L57 78 C54 70 50 61 50 52 C50 21 75 -5 108 -5 C134 -5 154 10 165 34 L223 169 L563 169 L620 38 C632 12 651 -5 680 -5 C713 -5 739 22 739 54 C739 62 737 70 732 79 L461 684 Z M395 710 C361 710 333 738 333 771 L333 773 C333 806 361 834 395 834 C429 834 457 806 457 773 L457 771 C457 738 429 710 395 710 L395 710 Z M270 278 L393 561 L516 278 L270 278 Z " />
<glyph glyph-name="AE" unicode="&#xc6;" horiz-adv-x="1045" d="M34 45 C34 16 58 -6 88 -6 C112 -6 129 6 142 28 L223 169 L487 169 L487 62 C487 27 514 0 549 0 L939 0 C969 0 994 24 994 55 C994 85 969 110 939 110 L610 110 L610 298 L889 298 C919 298 944 322 944 352 C944 383 919 408 889 408 L610 408 L610 590 L934 590 C964 590 989 614 989 645 C989 675 964 700 934 700 L453 700 C418 700 396 684 381 657 L44 80 C38 71 34 57 34 45 L34 45 Z M286 278 L467 593 L487 593 L487 278 L286 278 Z " />
<glyph glyph-name="Ccedilla" unicode="&#xc7;" horiz-adv-x="738" d="M669 82 C680 92 689 107 689 126 C689 157 662 183 631 183 C616 183 603 177 594 169 C543 126 493 102 419 102 C285 102 188 213 188 350 L188 352 C188 489 286 599 419 599 C486 599 538 575 586 536 C594 530 606 524 623 524 C657 524 684 550 684 584 C684 606 673 623 660 633 C599 680 528 712 420 712 C208 712 59 549 59 350 L59 348 C59 171 177 26 344 -5 L284 -93 C279 -100 276 -108 276 -116 C276 -137 322 -160 346 -160 C367 -160 377 -150 385 -131 L436 -11 C538 -7 607 27 669 82 L669 82 Z " />
<glyph glyph-name="Egrave" unicode="&#xc8;" horiz-adv-x="670" d="M152 0 L564 0 C594 0 619 24 619 55 C619 85 594 110 564 110 L213 110 L213 298 L514 298 C544 298 569 322 569 352 C569 383 544 408 514 408 L213 408 L213 590 L559 590 C589 590 614 614 614 645 C614 675 589 700 559 700 L152 700 C117 700 90 673 90 638 L90 62 C90 27 117 0 152 0 L152 0 Z M354 753 C372 753 385 761 385 774 C385 781 380 790 376 796 L319 884 C308 902 292 913 271 913 C239 913 199 893 199 874 C199 863 206 853 216 844 L284 780 C307 758 326 753 354 753 L354 753 Z " />
<glyph glyph-name="Eacute" unicode="&#xc9;" horiz-adv-x="670" d="M348 753 C376 753 395 758 419 780 L486 844 C496 853 503 863 503 874 C503 893 463 913 431 913 C410 913 394 902 383 884 L326 796 C322 790 318 781 318 774 C318 761 331 753 348 753 L348 753 Z M152 0 L564 0 C594 0 619 24 619 55 C619 85 594 110 564 110 L213 110 L213 298 L514 298 C544 298 569 322 569 352 C569 383 544 408 514 408 L213 408 L213 590 L559 590 C589 590 614 614 614 645 C614 675 589 700 559 700 L152 700 C117 700 90 673 90 638 L90 62 C90 27 117 0 152 0 L152 0 Z " />
<glyph glyph-name="Ecircumflex" unicode="&#xca;" horiz-adv-x="670" d="M350 825 L402 780 C429 758 448 753 476 753 C492 753 505 760 505 773 C505 780 499 789 493 797 L427 880 C413 898 397 909 369 909 L333 909 C305 909 290 898 275 880 L209 797 C203 789 197 780 197 773 C197 760 209 753 224 753 C252 753 272 758 298 780 L350 825 Z M152 0 L564 0 C594 0 619 24 619 55 C619 85 594 110 564 110 L213 110 L213 298 L514 298 C544 298 569 322 569 352 C569 383 544 408 514 408 L213 408 L213 590 L559 590 C589 590 614 614 614 645 C614 675 589 700 559 700 L152 700 C117 700 90 673 90 638 L90 62 C90 27 117 0 152 0 L152 0 Z " />
<glyph glyph-name="Edieresis" unicode="&#xcb;" horiz-adv-x="670" d="M451 883 C414 883 385 857 385 821 L385 814 C385 778 414 753 451 753 C487 753 516 778 516 814 L516 821 C516 857 487 883 451 883 L451 883 Z M252 883 C215 883 186 857 186 821 L186 814 C186 778 215 753 252 753 C288 753 317 778 317 814 L317 821 C317 857 288 883 252 883 L252 883 Z M152 0 L564 0 C594 0 619 24 619 55 C619 85 594 110 564 110 L213 110 L213 298 L514 298 C544 298 569 322 569 352 C569 383 544 408 514 408 L213 408 L213 590 L559 590 C589 590 614 614 614 645 C614 675 589 700 559 700 L152 700 C117 700 90 673 90 638 L90 62 C90 27 117 0 152 0 L152 0 Z " />
<glyph glyph-name="Igrave" unicode="&#xcc;" horiz-adv-x="317" d="M97 56 C97 22 124 -5 159 -5 C193 -5 220 22 220 56 L220 644 C220 678 193 705 159 705 C124 705 97 678 97 644 L97 56 Z M162 753 C180 753 193 761 193 774 C193 781 188 790 184 796 L127 884 C116 902 100 913 79 913 C47 913 7 893 7 874 C7 863 14 853 24 844 L92 780 C115 758 134 753 162 753 L162 753 Z " />
<glyph glyph-name="Iacute" unicode="&#xcd;" horiz-adv-x="317" d="M97 56 C97 22 124 -5 159 -5 C193 -5 220 22 220 56 L220 644 C220 678 193 705 159 705 C124 705 97 678 97 644 L97 56 Z M156 753 C184 753 203 758 227 780 L294 844 C304 853 311 863 311 874 C311 893 271 913 239 913 C218 913 202 902 191 884 L134 796 C130 790 126 781 126 774 C126 761 139 753 156 753 L156 753 Z " />
<glyph glyph-name="Icircumflex" unicode="&#xce;" horiz-adv-x="317" d="M97 56 C97 22 124 -5 159 -5 C193 -5 220 22 220 56 L220 644 C220 678 193 705 159 705 C124 705 97 678 97 644 L97 56 Z M158 825 L210 780 C237 758 256 753 284 753 C300 753 313 760 313 773 C313 780 307 789 301 797 L235 880 C221 898 205 909 177 909 L141 909 C113 909 98 898 83 880 L17 797 C11 789 5 780 5 773 C5 760 17 753 32 753 C60 753 80 758 106 780 L158 825 Z " />
<glyph glyph-name="Idieresis" unicode="&#xcf;" horiz-adv-x="317" d="M97 56 C97 22 124 -5 159 -5 C193 -5 220 22 220 56 L220 644 C220 678 193 705 159 705 C124 705 97 678 97 644 L97 56 Z M259 883 C222 883 193 857 193 821 L193 814 C193 778 222 753 259 753 C295 753 324 778 324 814 L324 821 C324 857 295 883 259 883 L259 883 Z M60 883 C23 883 -6 857 -6 821 L-6 814 C-6 778 23 753 60 753 C96 753 125 778 125 814 L125 821 C125 857 96 883 60 883 L60 883 Z " />
<glyph glyph-name="Eth" unicode="&#xd0;" horiz-adv-x="812" d="M94 407 C64 407 40 383 40 352 C40 322 64 297 94 297 L120 297 L120 62 C120 27 147 0 182 0 L381 0 C601 0 753 153 753 350 L753 352 C753 549 601 700 381 700 L182 700 C147 700 120 673 120 638 L120 407 L94 407 Z M242 588 L381 588 C528 588 624 487 624 350 L624 348 C624 211 528 112 381 112 L242 112 L242 297 L369 297 C399 297 423 322 423 352 C423 383 399 407 369 407 L242 407 L242 588 Z " />
<glyph glyph-name="Ntilde" unicode="&#xd1;" horiz-adv-x="790" d="M90 55 C90 22 117 -5 151 -5 C184 -5 211 22 211 55 L211 499 L571 33 C588 11 606 -4 635 -4 L640 -4 C674 -4 700 23 700 57 L700 645 C700 678 673 705 639 705 C606 705 579 678 579 645 L579 215 L229 668 C212 689 195 704 165 704 L152 704 C117 704 90 676 90 642 L90 55 Z M286 766 C298 788 309 798 332 798 C368 798 421 758 476 758 C529 758 557 791 578 849 C580 856 582 866 582 872 C582 889 565 905 545 905 C530 905 519 896 512 885 C500 863 489 853 466 853 C430 853 377 893 322 893 C269 893 241 860 220 802 C218 795 216 785 216 779 C216 762 233 746 253 746 C269 746 279 755 286 766 L286 766 Z " />
<glyph glyph-name="Ograve" unicode="&#xd2;" horiz-adv-x="850" d="M424 -12 C639 -12 791 153 791 350 L791 352 C791 549 641 712 426 712 C211 712 59 547 59 350 L59 348 C59 151 209 -12 424 -12 L424 -12 Z M426 102 C287 102 188 214 188 350 L188 352 C188 488 285 599 424 599 C563 599 662 486 662 350 L662 348 C662 212 565 102 426 102 L426 102 Z M428 763 C446 763 459 771 459 784 C459 791 454 800 450 806 L393 894 C382 912 366 923 345 923 C313 923 273 903 273 884 C273 873 280 863 290 854 L358 790 C381 768 400 763 428 763 L428 763 Z " />
<glyph glyph-name="Oacute" unicode="&#xd3;" horiz-adv-x="850" d="M421 763 C449 763 468 768 492 790 L559 854 C569 863 576 873 576 884 C576 903 536 923 504 923 C483 923 467 912 456 894 L399 806 C395 800 391 791 391 784 C391 771 404 763 421 763 L421 763 Z M424 -12 C639 -12 791 153 791 350 L791 352 C791 549 641 712 426 712 C211 712 59 547 59 350 L59 348 C59 151 209 -12 424 -12 L424 -12 Z M426 102 C287 102 188 214 188 350 L188 352 C188 488 285 599 424 599 C563 599 662 486 662 350 L662 348 C662 212 565 102 426 102 L426 102 Z " />
<glyph glyph-name="Ocircumflex" unicode="&#xd4;" horiz-adv-x="850" d="M424 835 L476 790 C503 768 522 763 550 763 C566 763 579 770 579 783 C579 790 573 799 567 807 L501 890 C487 908 471 919 443 919 L407 919 C379 919 364 908 349 890 L283 807 C277 799 271 790 271 783 C271 770 283 763 298 763 C326 763 346 768 372 790 L424 835 Z M424 -12 C639 -12 791 153 791 350 L791 352 C791 549 641 712 426 712 C211 712 59 547 59 350 L59 348 C59 151 209 -12 424 -12 L424 -12 Z M426 102 C287 102 188 214 188 350 L188 352 C188 488 285 599 424 599 C563 599 662 486 662 350 L662 348 C662 212 565 102 426 102 L426 102 Z " />
<glyph glyph-name="Otilde" unicode="&#xd5;" horiz-adv-x="850" d="M424 -12 C639 -12 791 153 791 350 L791 352 C791 549 641 712 426 712 C211 712 59 547 59 350 L59 348 C59 151 209 -12 424 -12 L424 -12 Z M426 102 C287 102 188 214 188 350 L188 352 C188 488 285 599 424 599 C563 599 662 486 662 350 L662 348 C662 212 565 102 426 102 L426 102 Z M316 776 C328 798 339 808 362 808 C398 808 451 768 506 768 C559 768 587 801 608 859 C610 866 612 876 612 882 C612 899 595 915 575 915 C560 915 549 906 542 895 C530 873 519 863 496 863 C460 863 407 903 352 903 C299 903 271 870 250 812 C248 805 246 795 246 789 C246 772 263 756 283 756 C299 756 309 765 316 776 L316 776 Z " />
<glyph glyph-name="Odieresis" unicode="&#xd6;" horiz-adv-x="850" d="M525 893 C488 893 459 867 459 831 L459 824 C459 788 488 763 525 763 C561 763 590 788 590 824 L590 831 C590 867 561 893 525 893 L525 893 Z M326 893 C289 893 260 867 260 831 L260 824 C260 788 289 763 326 763 C362 763 391 788 391 824 L391 831 C391 867 362 893 326 893 L326 893 Z M424 -12 C639 -12 791 153 791 350 L791 352 C791 549 641 712 426 712 C211 712 59 547 59 350 L59 348 C59 151 209 -12 424 -12 L424 -12 Z M426 102 C287 102 188 214 188 350 L188 352 C188 488 285 599 424 599 C563 599 662 486 662 350 L662 348 C662 212 565 102 426 102 L426 102 Z " />
<glyph glyph-name="multiply" unicode="&#xd7;" horiz-adv-x="634" d="M520 481 C531 491 538 505 538 520 C538 550 515 573 485 573 C470 573 457 567 447 556 L318 425 L190 556 C180 566 167 573 150 573 C120 573 96 549 96 519 C96 502 103 489 112 479 L244 351 L114 223 C103 213 96 199 96 183 C96 154 119 131 148 131 C164 131 177 137 187 148 L316 279 L444 147 C454 138 467 131 484 131 C514 131 538 155 538 185 C538 202 531 215 521 225 L390 353 L520 481 Z " />
<glyph glyph-name="Oslash" unicode="&#xd8;" horiz-adv-x="850" d="M424 -12 C639 -12 791 153 791 350 L791 352 C791 440 761 521 709 584 L756 633 C765 642 773 655 773 671 C773 692 755 710 730 710 C715 710 702 703 692 693 L644 644 C585 687 510 712 426 712 C211 712 59 547 59 350 L59 348 C59 260 89 179 141 116 L94 67 C85 58 77 45 77 30 C77 8 95 -10 120 -10 C136 -10 149 -3 158 7 L206 55 C265 13 339 -12 424 -12 L424 -12 Z M186 350 L186 352 C186 489 285 601 424 601 C477 601 524 584 562 556 L228 207 C201 248 186 297 186 350 L186 350 Z M426 99 C373 99 326 115 287 143 L622 493 C648 452 664 403 664 350 L664 348 C664 211 565 99 426 99 L426 99 Z " />
<glyph glyph-name="Ugrave" unicode="&#xd9;" horiz-adv-x="757" d="M377 -11 C560 -11 678 94 678 303 L678 644 C678 678 651 705 617 705 C582 705 555 678 555 644 L555 297 C555 168 488 103 379 103 C269 103 202 172 202 302 L202 644 C202 678 175 705 141 705 C106 705 79 678 79 644 L79 297 C79 94 195 -11 377 -11 L377 -11 Z M381 753 C399 753 412 761 412 774 C412 781 407 790 403 796 L346 884 C335 902 319 913 298 913 C266 913 226 893 226 874 C226 863 233 853 243 844 L311 780 C334 758 353 753 381 753 L381 753 Z " />
<glyph glyph-name="Uacute" unicode="&#xda;" horiz-adv-x="757" d="M375 753 C403 753 422 758 446 780 L513 844 C523 853 530 863 530 874 C530 893 490 913 458 913 C437 913 421 902 410 884 L353 796 C349 790 345 781 345 774 C345 761 358 753 375 753 L375 753 Z M377 -11 C560 -11 678 94 678 303 L678 644 C678 678 651 705 617 705 C582 705 555 678 555 644 L555 297 C555 168 488 103 379 103 C269 103 202 172 202 302 L202 644 C202 678 175 705 141 705 C106 705 79 678 79 644 L79 297 C79 94 195 -11 377 -11 L377 -11 Z " />
<glyph glyph-name="Ucircumflex" unicode="&#xdb;" horiz-adv-x="757" d="M377 825 L429 780 C456 758 475 753 503 753 C519 753 532 760 532 773 C532 780 526 789 520 797 L454 880 C440 898 424 909 396 909 L360 909 C332 909 317 898 302 880 L236 797 C230 789 224 780 224 773 C224 760 236 753 251 753 C279 753 299 758 325 780 L377 825 Z M377 -11 C560 -11 678 94 678 303 L678 644 C678 678 651 705 617 705 C582 705 555 678 555 644 L555 297 C555 168 488 103 379 103 C269 103 202 172 202 302 L202 644 C202 678 175 705 141 705 C106 705 79 678 79 644 L79 297 C79 94 195 -11 377 -11 L377 -11 Z " />
<glyph glyph-name="Udieresis" unicode="&#xdc;" horiz-adv-x="757" d="M478 883 C441 883 412 857 412 821 L412 814 C412 778 441 753 478 753 C514 753 543 778 543 814 L543 821 C543 857 514 883 478 883 L478 883 Z M279 883 C242 883 213 857 213 821 L213 814 C213 778 242 753 279 753 C315 753 344 778 344 814 L344 821 C344 857 315 883 279 883 L279 883 Z M377 -11 C560 -11 678 94 678 303 L678 644 C678 678 651 705 617 705 C582 705 555 678 555 644 L555 297 C555 168 488 103 379 103 C269 103 202 172 202 302 L202 644 C202 678 175 705 141 705 C106 705 79 678 79 644 L79 297 C79 94 195 -11 377 -11 L377 -11 Z " />
<glyph glyph-name="Yacute" unicode="&#xdd;" horiz-adv-x="696" d="M287 56 C287 22 314 -5 348 -5 C383 -5 410 22 410 56 L410 275 L649 602 C658 614 666 629 666 646 C666 679 642 706 606 706 C580 706 562 691 547 669 L349 387 L154 668 C139 690 121 705 94 705 C59 705 32 679 32 646 C32 629 38 615 46 603 L287 272 L287 56 Z M345 753 C373 753 392 758 416 780 L483 844 C493 853 500 863 500 874 C500 893 460 913 428 913 C407 913 391 902 380 884 L323 796 C319 790 315 781 315 774 C315 761 328 753 345 753 L345 753 Z " />
<glyph glyph-name="Thorn" unicode="&#xde;" horiz-adv-x="673" d="M90 56 C90 22 117 -5 152 -5 C186 -5 213 22 213 56 L213 116 L352 116 C506 116 632 197 632 355 L632 357 C632 498 530 591 366 591 L213 591 L213 644 C213 678 186 705 152 705 C117 705 90 678 90 644 L90 56 Z M213 226 L213 479 L356 479 C448 479 507 436 507 354 L507 352 C507 279 449 226 356 226 L213 226 Z " />
<glyph glyph-name="germandbls" unicode="&#xdf;" horiz-adv-x="620" d="M291 47 C291 18 312 -3 346 -3 C459 -1 571 66 571 196 L571 198 C571 297 497 350 419 376 C477 408 530 457 530 547 L530 549 C530 654 450 737 314 737 C168 737 76 647 76 502 L76 54 C76 21 102 -5 135 -5 C169 -5 196 21 196 54 L196 506 C196 584 242 634 308 634 C369 634 409 596 409 538 L409 536 C409 478 369 439 317 410 C302 400 291 384 291 360 C291 329 312 314 335 307 C402 290 450 258 450 201 L450 199 C450 138 405 106 334 95 C308 89 291 71 291 47 L291 47 Z " />
<glyph glyph-name="agrave" unicode="&#xe0;" horiz-adv-x="587" d="M228 -11 C309 -11 364 23 400 66 L400 46 C400 19 424 -5 459 -5 C492 -5 518 20 518 53 L518 313 C518 382 500 438 461 476 C424 514 365 535 286 535 C217 535 166 523 116 504 C98 497 83 478 83 456 C83 428 106 406 134 406 C140 406 146 407 153 409 C186 422 224 430 270 430 C355 430 401 390 401 315 L401 302 C360 315 318 324 259 324 C130 324 41 268 41 154 L41 152 C41 46 129 -11 228 -11 L228 -11 Z M262 77 C204 77 159 106 159 157 L159 159 C159 214 205 247 283 247 C331 247 372 238 403 226 L403 190 C403 123 342 77 262 77 L262 77 Z M297 590 C315 590 328 598 328 611 C328 618 323 627 319 633 L262 721 C251 739 235 750 214 750 C182 750 142 730 142 711 C142 700 149 690 159 681 L227 617 C250 595 269 590 297 590 L297 590 Z " />
<glyph glyph-name="aacute" unicode="&#xe1;" horiz-adv-x="587" d="M228 -11 C309 -11 364 23 400 66 L400 46 C400 19 424 -5 459 -5 C492 -5 518 20 518 53 L518 313 C518 382 500 438 461 476 C424 514 365 535 286 535 C217 535 166 523 116 504 C98 497 83 478 83 456 C83 428 106 406 134 406 C140 406 146 407 153 409 C186 422 224 430 270 430 C355 430 401 390 401 315 L401 302 C360 315 318 324 259 324 C130 324 41 268 41 154 L41 152 C41 46 129 -11 228 -11 L228 -11 Z M262 77 C204 77 159 106 159 157 L159 159 C159 214 205 247 283 247 C331 247 372 238 403 226 L403 190 C403 123 342 77 262 77 L262 77 Z M291 590 C319 590 338 595 362 617 L429 681 C439 690 446 700 446 711 C446 730 406 750 374 750 C353 750 337 739 326 721 L269 633 C265 627 261 618 261 611 C261 598 274 590 291 590 L291 590 Z " />
<glyph glyph-name="acircumflex" unicode="&#xe2;" horiz-adv-x="587" d="M228 -11 C309 -11 364 23 400 66 L400 46 C400 19 424 -5 459 -5 C492 -5 518 20 518 53 L518 313 C518 382 500 438 461 476 C424 514 365 535 286 535 C217 535 166 523 116 504 C98 497 83 478 83 456 C83 428 106 406 134 406 C140 406 146 407 153 409 C186 422 224 430 270 430 C355 430 401 390 401 315 L401 302 C360 315 318 324 259 324 C130 324 41 268 41 154 L41 152 C41 46 129 -11 228 -11 L228 -11 Z M262 77 C204 77 159 106 159 157 L159 159 C159 214 205 247 283 247 C331 247 372 238 403 226 L403 190 C403 123 342 77 262 77 L262 77 Z M293 662 L345 617 C372 595 391 590 419 590 C435 590 448 597 448 610 C448 617 442 626 436 634 L370 717 C356 735 340 746 312 746 L276 746 C248 746 233 735 218 717 L152 634 C146 626 140 617 140 610 C140 597 152 590 167 590 C195 590 215 595 241 617 L293 662 Z " />
<glyph glyph-name="atilde" unicode="&#xe3;" horiz-adv-x="587" d="M228 -11 C309 -11 364 23 400 66 L400 46 C400 19 424 -5 459 -5 C492 -5 518 20 518 53 L518 313 C518 382 500 438 461 476 C424 514 365 535 286 535 C217 535 166 523 116 504 C98 497 83 478 83 456 C83 428 106 406 134 406 C140 406 146 407 153 409 C186 422 224 430 270 430 C355 430 401 390 401 315 L401 302 C360 315 318 324 259 324 C130 324 41 268 41 154 L41 152 C41 46 129 -11 228 -11 L228 -11 Z M186 603 C198 625 209 635 232 635 C268 635 321 595 376 595 C429 595 457 628 478 686 C480 693 482 703 482 709 C482 726 465 742 445 742 C430 742 419 733 412 722 C400 700 389 690 366 690 C330 690 277 730 222 730 C169 730 141 697 120 639 C118 632 116 622 116 616 C116 599 133 583 153 583 C169 583 179 592 186 603 L186 603 Z M262 77 C204 77 159 106 159 157 L159 159 C159 214 205 247 283 247 C331 247 372 238 403 226 L403 190 C403 123 342 77 262 77 L262 77 Z " />
<glyph glyph-name="adieresis" unicode="&#xe4;" horiz-adv-x="587" d="M228 -11 C309 -11 364 23 400 66 L400 46 C400 19 424 -5 459 -5 C492 -5 518 20 518 53 L518 313 C518 382 500 438 461 476 C424 514 365 535 286 535 C217 535 166 523 116 504 C98 497 83 478 83 456 C83 428 106 406 134 406 C140 406 146 407 153 409 C186 422 224 430 270 430 C355 430 401 390 401 315 L401 302 C360 315 318 324 259 324 C130 324 41 268 41 154 L41 152 C41 46 129 -11 228 -11 L228 -11 Z M262 77 C204 77 159 106 159 157 L159 159 C159 214 205 247 283 247 C331 247 372 238 403 226 L403 190 C403 123 342 77 262 77 L262 77 Z M394 720 C357 720 328 694 328 658 L328 651 C328 615 357 590 394 590 C430 590 459 615 459 651 L459 658 C459 694 430 720 394 720 L394 720 Z M195 720 C158 720 129 694 129 658 L129 651 C129 615 158 590 195 590 C231 590 260 615 260 651 L260 658 C260 694 231 720 195 720 L195 720 Z " />
<glyph glyph-name="aring" unicode="&#xe5;" horiz-adv-x="587" d="M228 -11 C309 -11 364 23 400 66 L400 46 C400 19 424 -5 459 -5 C492 -5 518 20 518 53 L518 313 C518 382 500 438 461 476 C424 514 365 535 286 535 C217 535 166 523 116 504 C98 497 83 478 83 456 C83 428 106 406 134 406 C140 406 146 407 153 409 C186 422 224 430 270 430 C355 430 401 390 401 315 L401 302 C360 315 318 324 259 324 C130 324 41 268 41 154 L41 152 C41 46 129 -11 228 -11 L228 -11 Z M294 593 C354 593 408 643 408 702 L408 704 C408 764 354 813 294 813 C234 813 180 764 180 704 L180 702 C180 643 234 593 294 593 L294 593 Z M262 77 C204 77 159 106 159 157 L159 159 C159 214 205 247 283 247 C331 247 372 238 403 226 L403 190 C403 123 342 77 262 77 L262 77 Z M294 641 C260 641 232 669 232 702 L232 704 C232 737 260 765 294 765 C328 765 356 737 356 704 L356 702 C356 669 328 641 294 641 L294 641 Z " />
<glyph glyph-name="ae" unicode="&#xe6;" horiz-adv-x="952" d="M514 301 C525 383 578 440 652 440 C732 440 778 379 786 301 L514 301 Z M260 78 C204 78 159 108 159 157 L159 159 C159 214 204 247 281 247 C326 247 366 238 397 227 C400 197 407 171 417 146 C371 103 318 78 260 78 L260 78 Z M855 58 C865 67 872 80 872 95 C872 123 851 144 823 144 C810 144 801 140 793 133 C759 105 719 87 667 87 C590 87 529 135 516 221 L846 221 C878 221 903 245 903 279 C903 401 820 539 655 539 C577 539 512 504 470 449 C438 505 376 535 284 535 C217 535 166 524 116 504 C98 497 83 478 83 456 C83 428 106 406 134 406 C140 406 146 407 153 409 C187 422 223 430 268 430 C352 430 397 390 397 315 L397 302 C356 315 315 324 257 324 C130 324 41 268 41 154 L41 152 C41 48 130 -11 240 -11 C329 -11 402 29 461 78 C509 22 583 -12 665 -12 C748 -12 807 15 855 58 L855 58 Z " />
<glyph glyph-name="ccedilla" unicode="&#xe7;" horiz-adv-x="571" d="M512 63 C523 72 529 85 529 101 C529 130 506 154 477 154 C463 154 451 147 444 141 C411 113 374 94 326 94 C233 94 168 169 168 263 L168 265 C168 357 233 433 321 433 C369 433 403 414 434 388 C442 382 455 376 470 376 C501 376 526 400 526 431 C526 451 515 466 507 473 C462 512 405 539 322 539 C163 539 47 413 47 263 L47 261 C47 134 130 26 250 -3 L189 -93 C184 -100 181 -108 181 -116 C181 -137 227 -160 251 -160 C272 -160 282 -150 290 -131 L342 -11 C418 -7 469 22 512 63 L512 63 Z " />
<glyph glyph-name="egrave" unicode="&#xe8;" horiz-adv-x="604" d="M167 301 C178 383 230 440 304 440 C384 440 430 379 438 301 L167 301 Z M508 58 C517 67 524 80 524 95 C524 123 503 144 476 144 C462 144 454 140 445 133 C411 105 371 87 320 87 C242 87 181 135 168 221 L499 221 C530 221 556 245 556 279 C556 401 473 539 305 539 C154 539 47 415 47 264 L47 262 C47 99 165 -12 318 -12 C400 -12 460 15 508 58 L508 58 Z M306 590 C324 590 337 598 337 611 C337 618 332 627 328 633 L271 721 C260 739 244 750 223 750 C191 750 151 730 151 711 C151 700 158 690 168 681 L236 617 C259 595 278 590 306 590 L306 590 Z " />
<glyph glyph-name="eacute" unicode="&#xe9;" horiz-adv-x="604" d="M300 590 C328 590 347 595 371 617 L438 681 C448 690 455 700 455 711 C455 730 415 750 383 750 C362 750 346 739 335 721 L278 633 C274 627 270 618 270 611 C270 598 283 590 300 590 L300 590 Z M167 301 C178 383 230 440 304 440 C384 440 430 379 438 301 L167 301 Z M508 58 C517 67 524 80 524 95 C524 123 503 144 476 144 C462 144 454 140 445 133 C411 105 371 87 320 87 C242 87 181 135 168 221 L499 221 C530 221 556 245 556 279 C556 401 473 539 305 539 C154 539 47 415 47 264 L47 262 C47 99 165 -12 318 -12 C400 -12 460 15 508 58 L508 58 Z " />
<glyph glyph-name="ecircumflex" unicode="&#xea;" horiz-adv-x="604" d="M302 662 L354 617 C381 595 400 590 428 590 C444 590 457 597 457 610 C457 617 451 626 445 634 L379 717 C365 735 349 746 321 746 L285 746 C257 746 242 735 227 717 L161 634 C155 626 149 617 149 610 C149 597 161 590 176 590 C204 590 224 595 250 617 L302 662 Z M167 301 C178 383 230 440 304 440 C384 440 430 379 438 301 L167 301 Z M508 58 C517 67 524 80 524 95 C524 123 503 144 476 144 C462 144 454 140 445 133 C411 105 371 87 320 87 C242 87 181 135 168 221 L499 221 C530 221 556 245 556 279 C556 401 473 539 305 539 C154 539 47 415 47 264 L47 262 C47 99 165 -12 318 -12 C400 -12 460 15 508 58 L508 58 Z " />
<glyph glyph-name="edieresis" unicode="&#xeb;" horiz-adv-x="604" d="M403 720 C366 720 337 694 337 658 L337 651 C337 615 366 590 403 590 C439 590 468 615 468 651 L468 658 C468 694 439 720 403 720 L403 720 Z M204 720 C167 720 138 694 138 658 L138 651 C138 615 167 590 204 590 C240 590 269 615 269 651 L269 658 C269 694 240 720 204 720 L204 720 Z M167 301 C178 383 230 440 304 440 C384 440 430 379 438 301 L167 301 Z M508 58 C517 67 524 80 524 95 C524 123 503 144 476 144 C462 144 454 140 445 133 C411 105 371 87 320 87 C242 87 181 135 168 221 L499 221 C530 221 556 245 556 279 C556 401 473 539 305 539 C154 539 47 415 47 264 L47 262 C47 99 165 -12 318 -12 C400 -12 460 15 508 58 L508 58 Z " />
<glyph glyph-name="igrave" unicode="&#xec;" horiz-adv-x="286" d="M83 55 C83 21 110 -5 143 -5 C177 -5 204 21 204 55 L204 473 C204 507 177 534 143 534 C109 534 83 507 83 473 L83 55 Z M146 590 C164 590 177 598 177 611 C177 618 172 627 168 633 L111 721 C100 739 84 750 63 750 C31 750 -9 730 -9 711 C-9 700 -2 690 8 681 L76 617 C99 595 118 590 146 590 L146 590 Z " />
<glyph glyph-name="iacute" unicode="&#xed;" horiz-adv-x="286" d="M140 590 C168 590 187 595 211 617 L278 681 C288 690 295 700 295 711 C295 730 255 750 223 750 C202 750 186 739 175 721 L118 633 C114 627 110 618 110 611 C110 598 123 590 140 590 L140 590 Z M83 55 C83 21 110 -5 143 -5 C177 -5 204 21 204 55 L204 473 C204 507 177 534 143 534 C109 534 83 507 83 473 L83 55 Z " />
<glyph glyph-name="icircumflex" unicode="&#xee;" horiz-adv-x="286" d="M142 662 L194 617 C221 595 240 590 268 590 C284 590 297 597 297 610 C297 617 291 626 285 634 L219 717 C205 735 189 746 161 746 L125 746 C97 746 82 735 67 717 L1 634 C-5 626 -11 617 -11 610 C-11 597 1 590 16 590 C44 590 64 595 90 617 L142 662 Z M83 55 C83 21 110 -5 143 -5 C177 -5 204 21 204 55 L204 473 C204 507 177 534 143 534 C109 534 83 507 83 473 L83 55 Z " />
<glyph glyph-name="idieresis" unicode="&#xef;" horiz-adv-x="286" d="M243 720 C206 720 177 694 177 658 L177 651 C177 615 206 590 243 590 C279 590 308 615 308 651 L308 658 C308 694 279 720 243 720 L243 720 Z M44 720 C7 720 -22 694 -22 658 L-22 651 C-22 615 7 590 44 590 C80 590 109 615 109 651 L109 658 C109 694 80 720 44 720 L44 720 Z M83 55 C83 21 110 -5 143 -5 C177 -5 204 21 204 55 L204 473 C204 507 177 534 143 534 C109 534 83 507 83 473 L83 55 Z " />
<glyph glyph-name="eth" unicode="&#xf0;" horiz-adv-x="642" d="M418 445 C375 471 336 486 279 486 C148 486 47 390 47 249 C47 105 161 -12 316 -12 C489 -12 593 113 593 259 C593 348 566 416 506 503 L416 631 L488 662 C503 668 514 680 514 698 C514 719 497 737 476 737 C471 737 465 735 459 733 L372 695 L361 711 C350 727 335 738 313 738 C282 738 258 713 258 683 C258 671 261 661 268 651 L177 611 C161 605 150 593 150 575 C150 554 167 537 188 537 C194 537 200 538 205 540 L314 588 L418 445 Z M474 247 C474 161 414 91 321 91 C230 91 166 163 166 246 C166 332 225 397 317 397 C410 397 474 330 474 247 L474 247 Z " />
<glyph glyph-name="ntilde" unicode="&#xf1;" horiz-adv-x="620" d="M76 55 C76 21 103 -5 136 -5 C170 -5 197 21 197 55 L197 298 C197 380 246 429 316 429 C388 429 429 382 429 300 L429 55 C429 21 456 -5 490 -5 C524 -5 550 21 550 55 L550 337 C550 459 481 539 362 539 C280 539 231 496 197 447 L197 473 C197 507 170 534 136 534 C102 534 76 507 76 473 L76 55 Z M203 603 C215 625 226 635 249 635 C285 635 338 595 393 595 C446 595 474 628 495 686 C497 693 499 703 499 709 C499 726 482 742 462 742 C447 742 436 733 429 722 C417 700 406 690 383 690 C347 690 294 730 239 730 C186 730 158 697 137 639 C135 632 133 622 133 616 C133 599 150 583 170 583 C186 583 196 592 203 603 L203 603 Z " />
<glyph glyph-name="ograve" unicode="&#xf2;" horiz-adv-x="657" d="M327 -12 C490 -12 610 113 610 263 L610 265 C610 416 491 539 329 539 C167 539 47 414 47 263 L47 261 C47 111 166 -12 327 -12 L327 -12 Z M329 94 C235 94 168 171 168 263 L168 265 C168 357 230 433 327 433 C422 433 489 356 489 263 L489 261 C489 170 427 94 329 94 L329 94 Z M331 590 C349 590 362 598 362 611 C362 618 357 627 353 633 L296 721 C285 739 269 750 248 750 C216 750 176 730 176 711 C176 700 183 690 193 681 L261 617 C284 595 303 590 331 590 L331 590 Z " />
<glyph glyph-name="oacute" unicode="&#xf3;" horiz-adv-x="657" d="M325 590 C353 590 372 595 396 617 L463 681 C473 690 480 700 480 711 C480 730 440 750 408 750 C387 750 371 739 360 721 L303 633 C299 627 295 618 295 611 C295 598 308 590 325 590 L325 590 Z M327 -12 C490 -12 610 113 610 263 L610 265 C610 416 491 539 329 539 C167 539 47 414 47 263 L47 261 C47 111 166 -12 327 -12 L327 -12 Z M329 94 C235 94 168 171 168 263 L168 265 C168 357 230 433 327 433 C422 433 489 356 489 263 L489 261 C489 170 427 94 329 94 L329 94 Z " />
<glyph glyph-name="ocircumflex" unicode="&#xf4;" horiz-adv-x="657" d="M327 662 L379 617 C406 595 425 590 453 590 C469 590 482 597 482 610 C482 617 476 626 470 634 L404 717 C390 735 374 746 346 746 L310 746 C282 746 267 735 252 717 L186 634 C180 626 174 617 174 610 C174 597 186 590 201 590 C229 590 249 595 275 617 L327 662 Z M327 -12 C490 -12 610 113 610 263 L610 265 C610 416 491 539 329 539 C167 539 47 414 47 263 L47 261 C47 111 166 -12 327 -12 L327 -12 Z M329 94 C235 94 168 171 168 263 L168 265 C168 357 230 433 327 433 C422 433 489 356 489 263 L489 261 C489 170 427 94 329 94 L329 94 Z " />
<glyph glyph-name="otilde" unicode="&#xf5;" horiz-adv-x="657" d="M327 -12 C490 -12 610 113 610 263 L610 265 C610 416 491 539 329 539 C167 539 47 414 47 263 L47 261 C47 111 166 -12 327 -12 L327 -12 Z M329 94 C235 94 168 171 168 263 L168 265 C168 357 230 433 327 433 C422 433 489 356 489 263 L489 261 C489 170 427 94 329 94 L329 94 Z M219 603 C231 625 242 635 265 635 C301 635 354 595 409 595 C462 595 490 628 511 686 C513 693 515 703 515 709 C515 726 498 742 478 742 C463 742 452 733 445 722 C433 700 422 690 399 690 C363 690 310 730 255 730 C202 730 174 697 153 639 C151 632 149 622 149 616 C149 599 166 583 186 583 C202 583 212 592 219 603 L219 603 Z " />
<glyph glyph-name="odieresis" unicode="&#xf6;" horiz-adv-x="657" d="M428 720 C391 720 362 694 362 658 L362 651 C362 615 391 590 428 590 C464 590 493 615 493 651 L493 658 C493 694 464 720 428 720 L428 720 Z M229 720 C192 720 163 694 163 658 L163 651 C163 615 192 590 229 590 C265 590 294 615 294 651 L294 658 C294 694 265 720 229 720 L229 720 Z M327 -12 C490 -12 610 113 610 263 L610 265 C610 416 491 539 329 539 C167 539 47 414 47 263 L47 261 C47 111 166 -12 327 -12 L327 -12 Z M329 94 C235 94 168 171 168 263 L168 265 C168 357 230 433 327 433 C422 433 489 356 489 263 L489 261 C489 170 427 94 329 94 L329 94 Z " />
<glyph glyph-name="divide" unicode="&#xf7;" horiz-adv-x="634" d="M519 300 C548 300 571 324 571 352 C571 380 548 404 519 404 L115 404 C86 404 63 380 63 352 C63 324 86 300 115 300 L519 300 Z M317 629 C279 629 248 599 248 563 L248 558 C248 521 279 491 317 491 C355 491 386 521 386 558 L386 563 C386 599 355 629 317 629 L317 629 Z M317 213 C279 213 248 183 248 146 L248 141 C248 104 279 75 317 75 C355 75 386 104 386 141 L386 146 C386 183 355 213 317 213 L317 213 Z " />
<glyph glyph-name="oslash" unicode="&#xf8;" horiz-adv-x="657" d="M327 -12 C490 -12 610 113 610 263 L610 265 C610 329 588 388 551 435 L581 465 C590 475 598 487 598 503 C598 523 580 539 559 539 C544 539 532 532 521 521 L491 490 C446 521 390 539 329 539 C167 539 47 414 47 263 L47 261 C47 197 68 138 105 92 L76 62 C67 53 59 41 59 25 C59 5 77 -12 98 -12 C113 -12 125 -5 136 6 L165 36 C210 6 265 -12 327 -12 L327 -12 Z M165 263 L165 265 C165 358 228 436 327 436 C360 436 391 426 416 409 L187 175 C173 201 165 231 165 263 L165 263 Z M329 91 C295 91 265 100 240 117 L469 351 C484 325 492 295 492 263 L492 261 C492 169 429 91 329 91 L329 91 Z " />
<glyph glyph-name="ugrave" unicode="&#xf9;" horiz-adv-x="620" d="M545 473 C545 507 517 534 484 534 C450 534 423 507 423 473 L423 230 C423 148 374 100 304 100 C232 100 191 146 191 228 L191 473 C191 507 164 534 130 534 C97 534 70 507 70 473 L70 192 C70 69 139 -11 258 -11 C340 -11 389 32 423 82 L423 55 C423 21 451 -5 484 -5 C518 -5 545 22 545 55 L545 473 Z M309 590 C327 590 340 598 340 611 C340 618 335 627 331 633 L274 721 C263 739 247 750 226 750 C194 750 154 730 154 711 C154 700 161 690 171 681 L239 617 C262 595 281 590 309 590 L309 590 Z " />
<glyph glyph-name="uacute" unicode="&#xfa;" horiz-adv-x="620" d="M303 590 C331 590 350 595 374 617 L441 681 C451 690 458 700 458 711 C458 730 418 750 386 750 C365 750 349 739 338 721 L281 633 C277 627 273 618 273 611 C273 598 286 590 303 590 L303 590 Z M545 473 C545 507 517 534 484 534 C450 534 423 507 423 473 L423 230 C423 148 374 100 304 100 C232 100 191 146 191 228 L191 473 C191 507 164 534 130 534 C97 534 70 507 70 473 L70 192 C70 69 139 -11 258 -11 C340 -11 389 32 423 82 L423 55 C423 21 451 -5 484 -5 C518 -5 545 22 545 55 L545 473 Z " />
<glyph glyph-name="ucircumflex" unicode="&#xfb;" horiz-adv-x="620" d="M305 662 L357 617 C384 595 403 590 431 590 C447 590 460 597 460 610 C460 617 454 626 448 634 L382 717 C368 735 352 746 324 746 L288 746 C260 746 245 735 230 717 L164 634 C158 626 152 617 152 610 C152 597 164 590 179 590 C207 590 227 595 253 617 L305 662 Z M545 473 C545 507 517 534 484 534 C450 534 423 507 423 473 L423 230 C423 148 374 100 304 100 C232 100 191 146 191 228 L191 473 C191 507 164 534 130 534 C97 534 70 507 70 473 L70 192 C70 69 139 -11 258 -11 C340 -11 389 32 423 82 L423 55 C423 21 451 -5 484 -5 C518 -5 545 22 545 55 L545 473 Z " />
<glyph glyph-name="udieresis" unicode="&#xfc;" horiz-adv-x="620" d="M406 720 C369 720 340 694 340 658 L340 651 C340 615 369 590 406 590 C442 590 471 615 471 651 L471 658 C471 694 442 720 406 720 L406 720 Z M207 720 C170 720 141 694 141 658 L141 651 C141 615 170 590 207 590 C243 590 272 615 272 651 L272 658 C272 694 243 720 207 720 L207 720 Z M545 473 C545 507 517 534 484 534 C450 534 423 507 423 473 L423 230 C423 148 374 100 304 100 C232 100 191 146 191 228 L191 473 C191 507 164 534 130 534 C97 534 70 507 70 473 L70 192 C70 69 139 -11 258 -11 C340 -11 389 32 423 82 L423 55 C423 21 451 -5 484 -5 C518 -5 545 22 545 55 L545 473 Z " />
<glyph glyph-name="yacute" unicode="&#xfd;" horiz-adv-x="587" d="M172 -163 C257 -163 305 -123 350 -15 L543 448 C545 454 548 467 548 477 C548 509 522 534 490 534 C459 534 442 513 432 488 L300 137 L158 488 C147 516 130 534 99 534 C65 534 39 509 39 475 C39 467 42 455 46 446 L242 8 L238 -3 C218 -44 199 -59 163 -59 C146 -59 135 -56 121 -52 C115 -50 109 -48 99 -48 C73 -48 50 -68 50 -98 C50 -127 70 -142 88 -148 C113 -158 138 -163 172 -163 L172 -163 Z M291 590 C319 590 338 595 362 617 L429 681 C439 690 446 700 446 711 C446 730 406 750 374 750 C353 750 337 739 326 721 L269 633 C265 627 261 618 261 611 C261 598 274 590 291 590 L291 590 Z " />
<glyph glyph-name="thorn" unicode="&#xfe;" horiz-adv-x="671" d="M76 -105 C76 -139 103 -165 136 -165 C170 -165 197 -139 197 -105 L197 82 C234 33 289 -11 377 -11 C502 -11 622 88 622 263 L622 265 C622 441 501 539 377 539 C291 539 236 495 197 440 L197 675 C197 709 170 735 136 735 C102 735 76 709 76 675 L76 -105 Z M348 94 C266 94 194 162 194 263 L194 265 C194 366 266 434 348 434 C430 434 499 367 499 265 L499 263 C499 159 431 94 348 94 L348 94 Z " />
<glyph glyph-name="ydieresis" unicode="&#xff;" horiz-adv-x="587" d="M172 -163 C257 -163 305 -123 350 -15 L543 448 C545 454 548 467 548 477 C548 509 522 534 490 534 C459 534 442 513 432 488 L300 137 L158 488 C147 516 130 534 99 534 C65 534 39 509 39 475 C39 467 42 455 46 446 L242 8 L238 -3 C218 -44 199 -59 163 -59 C146 -59 135 -56 121 -52 C115 -50 109 -48 99 -48 C73 -48 50 -68 50 -98 C50 -127 70 -142 88 -148 C113 -158 138 -163 172 -163 L172 -163 Z M394 720 C357 720 328 694 328 658 L328 651 C328 615 357 590 394 590 C430 590 459 615 459 651 L459 658 C459 694 430 720 394 720 L394 720 Z M195 720 C158 720 129 694 129 658 L129 651 C129 615 158 590 195 590 C231 590 260 615 260 651 L260 658 C260 694 231 720 195 720 L195 720 Z " />
<glyph glyph-name="Amacron" unicode="&#x100;" horiz-adv-x="773" d="M42 52 C42 20 67 -5 99 -5 C125 -5 146 9 156 34 L215 169 L555 169 L612 38 C623 12 643 -5 672 -5 C705 -5 730 21 730 54 C730 62 728 71 723 80 L463 660 C449 691 425 710 390 710 L384 710 C349 710 324 691 310 660 L50 80 C45 70 42 61 42 52 L42 52 Z M262 278 L385 561 L508 278 L262 278 Z M518 779 C542 779 562 799 562 823 C562 847 542 867 518 867 L252 867 C228 867 208 847 208 823 C208 799 228 779 252 779 L518 779 Z " />
<glyph glyph-name="amacron" unicode="&#x101;" horiz-adv-x="587" d="M228 -11 C309 -11 364 23 400 66 L400 46 C400 19 424 -5 459 -5 C492 -5 518 20 518 53 L518 313 C518 382 500 438 461 476 C424 514 365 535 286 535 C217 535 166 523 116 504 C98 497 83 478 83 456 C83 428 106 406 134 406 C140 406 146 407 153 409 C186 422 224 430 270 430 C355 430 401 390 401 315 L401 302 C360 315 318 324 259 324 C130 324 41 268 41 154 L41 152 C41 46 129 -11 228 -11 L228 -11 Z M262 77 C204 77 159 106 159 157 L159 159 C159 214 205 247 283 247 C331 247 372 238 403 226 L403 190 C403 123 342 77 262 77 L262 77 Z M427 606 C451 606 471 626 471 650 C471 674 451 694 427 694 L161 694 C137 694 117 674 117 650 C117 626 137 606 161 606 L427 606 Z " />
<glyph glyph-name="Abreve" unicode="&#x102;" horiz-adv-x="773" d="M42 52 C42 20 67 -5 99 -5 C125 -5 146 9 156 34 L215 169 L555 169 L612 38 C623 12 643 -5 672 -5 C705 -5 730 21 730 54 C730 62 728 71 723 80 L463 660 C449 691 425 710 390 710 L384 710 C349 710 324 691 310 660 L50 80 C45 70 42 61 42 52 L42 52 Z M262 278 L385 561 L508 278 L262 278 Z M385 766 C456 766 509 795 538 846 C543 856 546 867 546 877 C546 901 528 920 504 920 C483 920 473 909 466 897 C452 870 428 851 385 851 C342 851 319 870 304 897 C297 909 287 920 266 920 C242 920 224 901 224 877 C224 867 227 856 232 846 C261 795 315 766 385 766 L385 766 Z " />
<glyph glyph-name="abreve" unicode="&#x103;" horiz-adv-x="587" d="M228 -11 C309 -11 364 23 400 66 L400 46 C400 19 424 -5 459 -5 C492 -5 518 20 518 53 L518 313 C518 382 500 438 461 476 C424 514 365 535 286 535 C217 535 166 523 116 504 C98 497 83 478 83 456 C83 428 106 406 134 406 C140 406 146 407 153 409 C186 422 224 430 270 430 C355 430 401 390 401 315 L401 302 C360 315 318 324 259 324 C130 324 41 268 41 154 L41 152 C41 46 129 -11 228 -11 L228 -11 Z M262 77 C204 77 159 106 159 157 L159 159 C159 214 205 247 283 247 C331 247 372 238 403 226 L403 190 C403 123 342 77 262 77 L262 77 Z M294 593 C365 593 418 622 447 673 C452 683 455 694 455 704 C455 728 437 747 413 747 C392 747 382 736 375 724 C361 697 337 678 294 678 C251 678 228 697 213 724 C206 736 196 747 175 747 C151 747 133 728 133 704 C133 694 136 683 141 673 C170 622 224 593 294 593 L294 593 Z " />
<glyph glyph-name="Aogonek" unicode="&#x104;" horiz-adv-x="790" d="M50 52 C50 20 75 -5 107 -5 C133 -5 154 9 165 34 L223 169 L563 169 L634 8 C605 -22 588 -49 588 -82 C588 -142 652 -166 716 -166 C742 -166 756 -154 756 -135 C756 -119 745 -109 723 -104 C695 -97 679 -87 679 -63 C679 -43 689 -23 717 4 C733 21 740 33 740 52 C740 60 737 69 733 78 L472 660 C458 691 434 710 399 710 L392 710 C357 710 332 691 318 660 L58 80 C54 70 50 61 50 52 L50 52 Z M270 278 L393 561 L516 278 L270 278 Z " />
<glyph glyph-name="aogonek" unicode="&#x105;" horiz-adv-x="587" d="M362 -85 C362 -142 426 -166 490 -166 C516 -166 530 -154 530 -135 C530 -119 519 -109 497 -104 C469 -97 454 -87 454 -64 C454 -43 465 -24 494 4 C511 20 518 32 518 52 L518 313 C518 382 500 438 461 476 C424 514 365 535 286 535 C217 535 166 523 116 504 C98 497 83 478 83 456 C83 428 106 406 134 406 C140 406 146 407 153 409 C186 422 224 430 270 430 C355 430 401 390 401 315 L401 302 C360 315 318 324 259 324 C130 324 41 268 41 154 L41 152 C41 46 129 -11 228 -11 C309 -11 364 23 400 66 L400 65 C400 54 405 20 415 11 C379 -23 362 -52 362 -85 L362 -85 Z M262 77 C204 77 159 106 159 157 L159 159 C159 214 205 247 283 247 C331 247 372 238 403 226 L403 190 C403 123 342 77 262 77 L262 77 Z " />
<glyph glyph-name="Cacute" unicode="&#x106;" horiz-adv-x="738" d="M405 763 C433 763 452 768 476 790 L543 854 C553 863 560 873 560 884 C560 903 520 923 488 923 C467 923 451 912 440 894 L383 806 C379 800 375 791 375 784 C375 771 388 763 405 763 L405 763 Z M415 -12 C528 -12 603 24 669 82 C680 92 689 107 689 126 C689 157 662 183 631 183 C616 183 603 177 594 169 C543 126 493 102 419 102 C285 102 188 213 188 350 L188 352 C188 489 286 599 419 599 C486 599 538 575 586 536 C594 530 606 524 623 524 C657 524 684 550 684 584 C684 606 673 623 660 633 C599 680 528 712 420 712 C208 712 59 549 59 350 L59 348 C59 147 211 -12 415 -12 L415 -12 Z " />
<glyph glyph-name="cacute" unicode="&#x107;" horiz-adv-x="571" d="M312 590 C340 590 359 595 383 617 L450 681 C460 690 467 700 467 711 C467 730 427 750 395 750 C374 750 358 739 347 721 L290 633 C286 627 282 618 282 611 C282 598 295 590 312 590 L312 590 Z M320 -12 C408 -12 465 18 512 63 C523 72 529 85 529 101 C529 130 506 154 477 154 C463 154 451 147 444 141 C411 113 374 94 326 94 C233 94 168 169 168 263 L168 265 C168 357 233 433 321 433 C369 433 403 414 434 388 C442 382 455 376 470 376 C501 376 526 400 526 431 C526 451 515 466 507 473 C462 512 405 539 322 539 C163 539 47 413 47 263 L47 261 C47 111 163 -12 320 -12 L320 -12 Z " />
<glyph glyph-name="Cdotaccent" unicode="&#x10a;" horiz-adv-x="738" d="M415 -12 C528 -12 603 24 669 82 C680 92 689 107 689 126 C689 157 662 183 631 183 C616 183 603 177 594 169 C543 126 493 102 419 102 C285 102 188 213 188 350 L188 352 C188 489 286 599 419 599 C486 599 538 575 586 536 C594 530 606 524 623 524 C657 524 684 550 684 584 C684 606 673 623 660 633 C599 680 528 712 420 712 C208 712 59 549 59 350 L59 348 C59 147 211 -12 415 -12 L415 -12 Z M476 831 C476 868 445 893 408 893 C371 893 341 868 341 831 L341 824 C341 787 371 763 408 763 C445 763 476 787 476 824 L476 831 Z " />
<glyph glyph-name="cdotaccent" unicode="&#x10b;" horiz-adv-x="571" d="M320 -12 C408 -12 465 18 512 63 C523 72 529 85 529 101 C529 130 506 154 477 154 C463 154 451 147 444 141 C411 113 374 94 326 94 C233 94 168 169 168 263 L168 265 C168 357 233 433 321 433 C369 433 403 414 434 388 C442 382 455 376 470 376 C501 376 526 400 526 431 C526 451 515 466 507 473 C462 512 405 539 322 539 C163 539 47 413 47 263 L47 261 C47 111 163 -12 320 -12 L320 -12 Z M383 658 C383 695 352 720 315 720 C278 720 248 695 248 658 L248 651 C248 614 278 590 315 590 C352 590 383 614 383 651 L383 658 Z " />
<glyph glyph-name="Ccaron" unicode="&#x10c;" horiz-adv-x="738" d="M409 848 L357 893 C331 915 311 920 283 920 C267 920 254 913 254 900 C254 892 260 884 266 876 L332 793 C347 775 362 764 390 764 L426 764 C454 764 470 775 484 793 L550 876 C556 884 562 892 562 900 C562 913 551 920 535 920 C507 920 488 915 461 893 L409 848 Z M415 -12 C528 -12 603 24 669 82 C680 92 689 107 689 126 C689 157 662 183 631 183 C616 183 603 177 594 169 C543 126 493 102 419 102 C285 102 188 213 188 350 L188 352 C188 489 286 599 419 599 C486 599 538 575 586 536 C594 530 606 524 623 524 C657 524 684 550 684 584 C684 606 673 623 660 633 C599 680 528 712 420 712 C208 712 59 549 59 350 L59 348 C59 147 211 -12 415 -12 L415 -12 Z " />
<glyph glyph-name="ccaron" unicode="&#x10d;" horiz-adv-x="571" d="M316 675 L264 720 C238 742 218 747 190 747 C174 747 161 740 161 727 C161 719 167 711 173 703 L239 620 C254 602 269 591 297 591 L333 591 C361 591 377 602 391 620 L457 703 C463 711 469 719 469 727 C469 740 458 747 442 747 C414 747 395 742 368 720 L316 675 Z M320 -12 C408 -12 465 18 512 63 C523 72 529 85 529 101 C529 130 506 154 477 154 C463 154 451 147 444 141 C411 113 374 94 326 94 C233 94 168 169 168 263 L168 265 C168 357 233 433 321 433 C369 433 403 414 434 388 C442 382 455 376 470 376 C501 376 526 400 526 431 C526 451 515 466 507 473 C462 512 405 539 322 539 C163 539 47 413 47 263 L47 261 C47 111 163 -12 320 -12 L320 -12 Z " />
<glyph glyph-name="Dcaron" unicode="&#x10e;" horiz-adv-x="782" d="M378 838 L326 883 C300 905 280 910 252 910 C236 910 223 903 223 890 C223 882 229 874 235 866 L301 783 C316 765 331 754 359 754 L395 754 C423 754 439 765 453 783 L519 866 C525 874 531 882 531 890 C531 903 520 910 504 910 C476 910 457 905 430 883 L378 838 Z M90 62 C90 27 117 0 152 0 L351 0 C571 0 723 153 723 350 L723 352 C723 549 571 700 351 700 L152 700 C117 700 90 673 90 638 L90 62 Z M213 112 L213 588 L351 588 C498 588 594 487 594 350 L594 348 C594 211 498 112 351 112 L213 112 Z " />
<glyph glyph-name="dcaron" unicode="&#x10f;" horiz-adv-x="671" d="M651 567 C650 548 661 537 677 537 C693 537 701 546 706 562 L743 683 C746 692 747 700 747 706 C747 725 734 735 716 735 L698 735 C672 735 655 716 654 691 L651 567 Z M595 675 C595 709 568 735 534 735 C501 735 474 709 474 675 L474 446 C436 496 381 539 294 539 C168 539 49 440 49 265 L49 263 C49 88 170 -11 294 -11 C380 -11 435 33 474 88 L474 55 C474 21 501 -5 535 -5 C568 -5 595 21 595 55 L595 675 Z M323 434 C404 434 476 367 476 265 L476 263 C476 162 404 94 323 94 C241 94 171 161 171 263 L171 265 C171 370 240 434 323 434 L323 434 Z " />
<glyph glyph-name="Dcroat" unicode="&#x110;" horiz-adv-x="812" d="M94 407 C64 407 40 383 40 352 C40 322 64 297 94 297 L120 297 L120 62 C120 27 147 0 182 0 L381 0 C601 0 753 153 753 350 L753 352 C753 549 601 700 381 700 L182 700 C147 700 120 673 120 638 L120 407 L94 407 Z M242 588 L381 588 C528 588 624 487 624 350 L624 348 C624 211 528 112 381 112 L242 112 L242 297 L369 297 C399 297 423 322 423 352 C423 383 399 407 369 407 L242 407 L242 588 Z " />
<glyph glyph-name="dcroat" unicode="&#x111;" horiz-adv-x="671" d="M595 675 C595 709 568 735 534 735 C501 735 474 709 474 675 L474 674 L341 674 C321 674 305 657 305 638 C305 618 321 602 341 602 L474 602 L474 446 C436 496 381 539 294 539 C168 539 49 440 49 265 L49 263 C49 88 170 -11 294 -11 C380 -11 435 33 474 88 L474 55 C474 21 501 -5 535 -5 C568 -5 595 21 595 55 L595 602 L633 602 C653 602 669 618 669 638 C669 657 653 674 633 674 L595 674 L595 675 Z M323 434 C404 434 476 367 476 265 L476 263 C476 162 404 94 323 94 C241 94 171 161 171 263 L171 265 C171 370 240 434 323 434 L323 434 Z " />
<glyph glyph-name="Emacron" unicode="&#x112;" horiz-adv-x="670" d="M152 0 L564 0 C594 0 619 24 619 55 C619 85 594 110 564 110 L213 110 L213 298 L514 298 C544 298 569 322 569 352 C569 383 544 408 514 408 L213 408 L213 590 L559 590 C589 590 614 614 614 645 C614 675 589 700 559 700 L152 700 C117 700 90 673 90 638 L90 62 C90 27 117 0 152 0 L152 0 Z M484 769 C508 769 528 789 528 813 C528 837 508 857 484 857 L218 857 C194 857 174 837 174 813 C174 789 194 769 218 769 L484 769 Z " />
<glyph glyph-name="emacron" unicode="&#x113;" horiz-adv-x="604" d="M167 301 C178 383 230 440 304 440 C384 440 430 379 438 301 L167 301 Z M508 58 C517 67 524 80 524 95 C524 123 503 144 476 144 C462 144 454 140 445 133 C411 105 371 87 320 87 C242 87 181 135 168 221 L499 221 C530 221 556 245 556 279 C556 401 473 539 305 539 C154 539 47 415 47 264 L47 262 C47 99 165 -12 318 -12 C400 -12 460 15 508 58 L508 58 Z M436 606 C460 606 480 626 480 650 C480 674 460 694 436 694 L170 694 C146 694 126 674 126 650 C126 626 146 606 170 606 L436 606 Z " />
<glyph glyph-name="Ebreve" unicode="&#x114;" horiz-adv-x="670" d="M152 0 L564 0 C594 0 619 24 619 55 C619 85 594 110 564 110 L213 110 L213 298 L514 298 C544 298 569 322 569 352 C569 383 544 408 514 408 L213 408 L213 590 L559 590 C589 590 614 614 614 645 C614 675 589 700 559 700 L152 700 C117 700 90 673 90 638 L90 62 C90 27 117 0 152 0 L152 0 Z M351 756 C422 756 475 785 504 836 C509 846 512 857 512 867 C512 891 494 910 470 910 C449 910 439 899 432 887 C418 860 394 841 351 841 C308 841 285 860 270 887 C263 899 253 910 232 910 C208 910 190 891 190 867 C190 857 193 846 198 836 C227 785 281 756 351 756 L351 756 Z " />
<glyph glyph-name="ebreve" unicode="&#x115;" horiz-adv-x="604" d="M167 301 C178 383 230 440 304 440 C384 440 430 379 438 301 L167 301 Z M508 58 C517 67 524 80 524 95 C524 123 503 144 476 144 C462 144 454 140 445 133 C411 105 371 87 320 87 C242 87 181 135 168 221 L499 221 C530 221 556 245 556 279 C556 401 473 539 305 539 C154 539 47 415 47 264 L47 262 C47 99 165 -12 318 -12 C400 -12 460 15 508 58 L508 58 Z M303 593 C374 593 427 622 456 673 C461 683 464 694 464 704 C464 728 446 747 422 747 C401 747 391 736 384 724 C370 697 346 678 303 678 C260 678 237 697 222 724 C215 736 205 747 184 747 C160 747 142 728 142 704 C142 694 145 683 150 673 C179 622 233 593 303 593 L303 593 Z " />
<glyph glyph-name="Edotaccent" unicode="&#x116;" horiz-adv-x="670" d="M152 0 L564 0 C594 0 619 24 619 55 C619 85 594 110 564 110 L213 110 L213 298 L514 298 C544 298 569 322 569 352 C569 383 544 408 514 408 L213 408 L213 590 L559 590 C589 590 614 614 614 645 C614 675 589 700 559 700 L152 700 C117 700 90 673 90 638 L90 62 C90 27 117 0 152 0 L152 0 Z M419 821 C419 858 388 883 351 883 C314 883 284 858 284 821 L284 814 C284 777 314 753 351 753 C388 753 419 777 419 814 L419 821 Z " />
<glyph glyph-name="edotaccent" unicode="&#x117;" horiz-adv-x="604" d="M167 301 C178 383 230 440 304 440 C384 440 430 379 438 301 L167 301 Z M508 58 C517 67 524 80 524 95 C524 123 503 144 476 144 C462 144 454 140 445 133 C411 105 371 87 320 87 C242 87 181 135 168 221 L499 221 C530 221 556 245 556 279 C556 401 473 539 305 539 C154 539 47 415 47 264 L47 262 C47 99 165 -12 318 -12 C400 -12 460 15 508 58 L508 58 Z M371 658 C371 695 340 720 303 720 C266 720 236 695 236 658 L236 651 C236 614 266 590 303 590 C340 590 371 614 371 651 L371 658 Z " />
<glyph glyph-name="Eogonek" unicode="&#x118;" horiz-adv-x="670" d="M152 0 L495 0 C470 -27 454 -52 454 -82 C454 -143 519 -166 583 -166 C609 -166 623 -154 623 -135 C623 -119 612 -109 589 -104 C562 -97 546 -87 546 -63 C546 -40 559 -22 588 3 C608 22 619 33 619 59 C619 86 595 110 563 110 L213 110 L213 298 L514 298 C544 298 569 322 569 352 C569 383 544 408 514 408 L213 408 L213 590 L559 590 C589 590 614 614 614 645 C614 675 589 700 559 700 L152 700 C117 700 90 673 90 638 L90 62 C90 27 117 0 152 0 L152 0 Z " />
<glyph glyph-name="eogonek" unicode="&#x119;" horiz-adv-x="604" d="M556 279 C556 401 473 539 305 539 C154 539 47 415 47 264 L47 262 C47 99 165 -12 318 -12 C334 -12 349 -10 364 -8 C342 -33 330 -56 330 -80 C330 -139 387 -166 459 -166 C485 -166 498 -154 498 -135 C498 -119 487 -109 465 -104 C437 -97 421 -87 421 -58 C421 -35 430 -15 465 18 C482 35 488 39 508 58 C517 68 524 80 524 95 C524 123 503 144 476 144 C462 144 454 140 445 133 C411 105 371 87 320 87 C242 87 181 135 168 221 L499 221 C530 221 556 245 556 279 L556 279 Z M167 301 C178 383 230 440 304 440 C384 440 430 379 438 301 L167 301 Z " />
<glyph glyph-name="Ecaron" unicode="&#x11a;" horiz-adv-x="670" d="M352 838 L300 883 C274 905 254 910 226 910 C210 910 197 903 197 890 C197 882 203 874 209 866 L275 783 C290 765 305 754 333 754 L369 754 C397 754 413 765 427 783 L493 866 C499 874 505 882 505 890 C505 903 494 910 478 910 C450 910 431 905 404 883 L352 838 Z M152 0 L564 0 C594 0 619 24 619 55 C619 85 594 110 564 110 L213 110 L213 298 L514 298 C544 298 569 322 569 352 C569 383 544 408 514 408 L213 408 L213 590 L559 590 C589 590 614 614 614 645 C614 675 589 700 559 700 L152 700 C117 700 90 673 90 638 L90 62 C90 27 117 0 152 0 L152 0 Z " />
<glyph glyph-name="ecaron" unicode="&#x11b;" horiz-adv-x="604" d="M304 675 L252 720 C226 742 206 747 178 747 C162 747 149 740 149 727 C149 719 155 711 161 703 L227 620 C242 602 257 591 285 591 L321 591 C349 591 365 602 379 620 L445 703 C451 711 457 719 457 727 C457 740 446 747 430 747 C402 747 383 742 356 720 L304 675 Z M167 301 C178 383 230 440 304 440 C384 440 430 379 438 301 L167 301 Z M508 58 C517 67 524 80 524 95 C524 123 503 144 476 144 C462 144 454 140 445 133 C411 105 371 87 320 87 C242 87 181 135 168 221 L499 221 C530 221 556 245 556 279 C556 401 473 539 305 539 C154 539 47 415 47 264 L47 262 C47 99 165 -12 318 -12 C400 -12 460 15 508 58 L508 58 Z " />
<glyph glyph-name="Gbreve" unicode="&#x11e;" horiz-adv-x="784" d="M422 -12 C527 -12 611 24 671 64 C700 82 714 107 714 142 L714 329 C714 364 687 391 652 391 L457 391 C427 391 402 367 402 337 C402 307 427 284 457 284 L595 284 L595 153 C552 121 492 100 426 100 C283 100 188 206 188 350 L188 352 C188 486 286 599 415 599 C491 599 540 577 585 544 C595 537 607 530 623 530 C657 530 684 558 684 591 C684 615 671 632 659 641 C595 687 525 712 420 712 C209 712 59 546 59 350 L59 348 C59 144 203 -12 422 -12 L422 -12 Z M412 766 C483 766 536 795 565 846 C570 856 573 867 573 877 C573 901 555 920 531 920 C510 920 500 909 493 897 C479 870 455 851 412 851 C369 851 346 870 331 897 C324 909 314 920 293 920 C269 920 251 901 251 877 C251 867 254 856 259 846 C288 795 342 766 412 766 L412 766 Z " />
<glyph glyph-name="gbreve" unicode="&#x11f;" horiz-adv-x="671" d="M311 -162 C406 -162 480 -139 528 -91 C572 -47 595 19 595 108 L595 473 C595 507 568 534 534 534 C501 534 474 507 474 474 L474 449 C433 498 378 539 289 539 C166 539 49 447 49 291 L49 289 C49 134 165 42 289 42 C376 42 431 82 475 139 L475 98 C475 -8 416 -64 308 -64 C247 -64 194 -49 146 -22 C140 -19 133 -17 124 -17 C96 -17 73 -40 73 -67 C73 -90 86 -107 107 -115 C171 -146 237 -162 311 -162 L311 -162 Z M321 145 C238 145 171 204 171 290 L171 292 C171 379 237 437 321 437 C405 437 476 378 476 292 L476 290 C476 204 405 145 321 145 L321 145 Z M326 593 C397 593 450 622 479 673 C484 683 487 694 487 704 C487 728 469 747 445 747 C424 747 414 736 407 724 C393 697 369 678 326 678 C283 678 260 697 245 724 C238 736 228 747 207 747 C183 747 165 728 165 704 C165 694 168 683 173 673 C202 622 256 593 326 593 L326 593 Z " />
<glyph glyph-name="Gdotaccent" unicode="&#x120;" horiz-adv-x="784" d="M422 -12 C527 -12 611 24 671 64 C700 82 714 107 714 142 L714 329 C714 364 687 391 652 391 L457 391 C427 391 402 367 402 337 C402 307 427 284 457 284 L595 284 L595 153 C552 121 492 100 426 100 C283 100 188 206 188 350 L188 352 C188 486 286 599 415 599 C491 599 540 577 585 544 C595 537 607 530 623 530 C657 530 684 558 684 591 C684 615 671 632 659 641 C595 687 525 712 420 712 C209 712 59 546 59 350 L59 348 C59 144 203 -12 422 -12 L422 -12 Z M480 831 C480 868 449 893 412 893 C375 893 345 868 345 831 L345 824 C345 787 375 763 412 763 C449 763 480 787 480 824 L480 831 Z " />
<glyph glyph-name="gdotaccent" unicode="&#x121;" horiz-adv-x="671" d="M311 -162 C406 -162 480 -139 528 -91 C572 -47 595 19 595 108 L595 473 C595 507 568 534 534 534 C501 534 474 507 474 474 L474 449 C433 498 378 539 289 539 C166 539 49 447 49 291 L49 289 C49 134 165 42 289 42 C376 42 431 82 475 139 L475 98 C475 -8 416 -64 308 -64 C247 -64 194 -49 146 -22 C140 -19 133 -17 124 -17 C96 -17 73 -40 73 -67 C73 -90 86 -107 107 -115 C171 -146 237 -162 311 -162 L311 -162 Z M321 145 C238 145 171 204 171 290 L171 292 C171 379 237 437 321 437 C405 437 476 378 476 292 L476 290 C476 204 405 145 321 145 L321 145 Z M394 658 C394 695 363 720 326 720 C289 720 259 695 259 658 L259 651 C259 614 289 590 326 590 C363 590 394 614 394 651 L394 658 Z " />
<glyph glyph-name="Gcommaaccent" unicode="&#x122;" horiz-adv-x="784" d="M403 -169 C404 -202 385 -223 340 -233 C326 -236 319 -243 319 -254 C319 -265 327 -275 345 -275 C373 -275 409 -262 431 -242 C460 -217 474 -184 474 -134 L474 -131 C474 -89 449 -61 410 -61 C374 -61 349 -83 349 -114 L349 -116 C349 -147 373 -164 403 -169 L403 -169 Z M422 -12 C527 -12 611 24 671 64 C700 82 714 107 714 142 L714 329 C714 364 687 391 652 391 L457 391 C427 391 402 367 402 337 C402 307 427 284 457 284 L595 284 L595 153 C552 121 492 100 426 100 C283 100 188 206 188 350 L188 352 C188 486 286 599 415 599 C491 599 540 577 585 544 C595 537 607 530 623 530 C657 530 684 558 684 591 C684 615 671 632 659 641 C595 687 525 712 420 712 C209 712 59 546 59 350 L59 348 C59 144 203 -12 422 -12 L422 -12 Z " />
<glyph glyph-name="gcommaaccent" unicode="&#x123;" horiz-adv-x="671" d="M333 697 C332 730 351 751 396 761 C410 764 417 771 417 782 C417 793 409 803 391 803 C363 803 327 790 305 770 C276 745 262 712 262 662 L262 659 C262 617 287 589 326 589 C362 589 387 611 387 642 L387 644 C387 675 363 692 333 697 L333 697 Z M311 -162 C406 -162 480 -139 528 -91 C572 -47 595 19 595 108 L595 473 C595 507 568 534 534 534 C501 534 474 507 474 474 L474 449 C433 498 378 539 289 539 C166 539 49 447 49 291 L49 289 C49 134 165 42 289 42 C376 42 431 82 475 139 L475 98 C475 -8 416 -64 308 -64 C247 -64 194 -49 146 -22 C140 -19 133 -17 124 -17 C96 -17 73 -40 73 -67 C73 -90 86 -107 107 -115 C171 -146 237 -162 311 -162 L311 -162 Z M321 145 C238 145 171 204 171 290 L171 292 C171 379 237 437 321 437 C405 437 476 378 476 292 L476 290 C476 204 405 145 321 145 L321 145 Z " />
<glyph glyph-name="Hbar" unicode="&#x126;" horiz-adv-x="778" d="M99 56 C99 22 126 -5 161 -5 C195 -5 222 22 222 56 L222 295 L556 295 L556 56 C556 22 583 -5 617 -5 C652 -5 679 22 679 56 L679 511 L711 511 C735 511 755 531 755 554 C755 578 735 598 711 598 L679 598 L679 644 C679 678 652 705 617 705 C583 705 556 678 556 644 L556 598 L222 598 L222 644 C222 678 195 705 161 705 C126 705 99 678 99 644 L99 598 L66 598 C42 598 22 578 22 554 C22 531 42 511 66 511 L99 511 L99 56 Z M222 409 L222 511 L556 511 L556 409 L222 409 Z " />
<glyph glyph-name="hbar" unicode="&#x127;" horiz-adv-x="620" d="M76 55 C76 21 103 -5 136 -5 C170 -5 197 21 197 55 L197 298 C197 380 246 429 316 429 C388 429 429 382 429 300 L429 55 C429 21 456 -5 490 -5 C524 -5 550 21 550 55 L550 337 C550 459 481 539 362 539 C280 539 231 496 197 447 L197 602 L330 602 C350 602 366 618 366 638 C366 657 350 674 330 674 L197 674 L197 675 C197 708 170 735 136 735 C102 735 76 708 76 675 L76 674 L38 674 C18 674 2 657 2 638 C2 618 18 602 38 602 L76 602 L76 55 Z " />
<glyph glyph-name="Imacron" unicode="&#x12a;" horiz-adv-x="317" d="M97 56 C97 22 124 -5 159 -5 C193 -5 220 22 220 56 L220 644 C220 678 193 705 159 705 C124 705 97 678 97 644 L97 56 Z M292 769 C316 769 336 789 336 813 C336 837 316 857 292 857 L26 857 C2 857 -18 837 -18 813 C-18 789 2 769 26 769 L292 769 Z " />
<glyph glyph-name="imacron" unicode="&#x12b;" horiz-adv-x="286" d="M83 55 C83 21 110 -5 143 -5 C177 -5 204 21 204 55 L204 473 C204 507 177 534 143 534 C109 534 83 507 83 473 L83 55 Z M276 606 C300 606 320 626 320 650 C320 674 300 694 276 694 L10 694 C-14 694 -34 674 -34 650 C-34 626 -14 606 10 606 L276 606 Z " />
<glyph glyph-name="Ibreve" unicode="&#x12c;" horiz-adv-x="317" d="M97 56 C97 22 124 -5 159 -5 C193 -5 220 22 220 56 L220 644 C220 678 193 705 159 705 C124 705 97 678 97 644 L97 56 Z M159 756 C230 756 283 785 312 836 C317 846 320 857 320 867 C320 891 302 910 278 910 C257 910 247 899 240 887 C226 860 202 841 159 841 C116 841 93 860 78 887 C71 899 61 910 40 910 C16 910 -2 891 -2 867 C-2 857 1 846 6 836 C35 785 89 756 159 756 L159 756 Z " />
<glyph glyph-name="ibreve" unicode="&#x12d;" horiz-adv-x="286" d="M83 55 C83 21 110 -5 143 -5 C177 -5 204 21 204 55 L204 473 C204 507 177 534 143 534 C109 534 83 507 83 473 L83 55 Z M143 593 C214 593 267 622 296 673 C301 683 304 694 304 704 C304 728 286 747 262 747 C241 747 231 736 224 724 C210 697 186 678 143 678 C100 678 77 697 62 724 C55 736 45 747 24 747 C0 747 -18 728 -18 704 C-18 694 -15 683 -10 673 C19 622 73 593 143 593 L143 593 Z " />
<glyph glyph-name="Iogonek" unicode="&#x12e;" horiz-adv-x="317" d="M67 -82 C67 -142 131 -166 196 -166 C222 -166 236 -154 236 -135 C236 -119 225 -109 202 -104 C174 -97 158 -87 158 -63 C158 -43 168 -25 197 5 C214 22 220 35 220 55 L220 644 C220 678 193 705 159 705 C124 705 97 678 97 644 L97 52 C97 35 104 21 115 11 C83 -23 67 -50 67 -82 L67 -82 Z " />
<glyph glyph-name="iogonek" unicode="&#x12f;" horiz-adv-x="286" d="M204 473 C204 507 177 534 143 534 C109 534 83 507 83 473 L83 51 C83 35 90 21 101 11 C70 -17 48 -49 48 -85 C48 -142 112 -166 176 -166 C202 -166 216 -154 216 -135 C216 -119 205 -109 183 -104 C155 -97 140 -87 140 -64 C140 -43 151 -24 180 4 C197 20 204 32 204 52 L204 473 Z M74 664 C74 628 104 604 143 604 C182 604 212 628 212 664 L212 670 C212 706 182 729 143 729 C104 729 74 706 74 670 L74 664 Z " />
<glyph glyph-name="Idotaccent" unicode="&#x130;" horiz-adv-x="317" d="M97 56 C97 22 124 -5 159 -5 C193 -5 220 22 220 56 L220 644 C220 678 193 705 159 705 C124 705 97 678 97 644 L97 56 Z M227 821 C227 858 196 883 159 883 C122 883 92 858 92 821 L92 814 C92 777 122 753 159 753 C196 753 227 777 227 814 L227 821 Z " />
<glyph glyph-name="dotlessi" unicode="&#x131;" horiz-adv-x="286" d="M83 55 C83 21 110 -5 143 -5 C177 -5 204 21 204 55 L204 473 C204 507 177 534 143 534 C109 534 83 507 83 473 L83 55 Z " />
<glyph glyph-name="Kcommaaccent" unicode="&#x136;" horiz-adv-x="713" d="M356 -161 C357 -194 338 -215 293 -225 C279 -228 272 -235 272 -246 C272 -257 280 -267 298 -267 C326 -267 362 -254 384 -234 C413 -209 427 -176 427 -126 L427 -123 C427 -81 402 -53 363 -53 C327 -53 302 -75 302 -106 L302 -108 C302 -139 326 -156 356 -161 L356 -161 Z M90 56 C90 22 117 -5 152 -5 C186 -5 213 22 213 56 L213 201 L327 311 L552 24 C565 7 580 -5 604 -5 C639 -5 666 21 666 55 C666 74 659 86 649 99 L413 392 L631 602 C645 615 653 629 653 648 C653 678 630 705 596 705 C574 705 559 697 545 682 L213 348 L213 644 C213 678 186 705 152 705 C117 705 90 678 90 644 L90 56 Z " />
<glyph glyph-name="kcommaaccent" unicode="&#x137;" horiz-adv-x="580" d="M295 -166 C296 -199 277 -220 232 -230 C218 -233 211 -240 211 -251 C211 -262 219 -272 237 -272 C265 -272 301 -259 323 -239 C352 -214 366 -181 366 -131 L366 -128 C366 -86 341 -58 302 -58 C266 -58 241 -80 241 -111 L241 -113 C241 -144 265 -161 295 -166 L295 -166 Z M76 55 C76 21 103 -5 136 -5 C170 -5 197 21 197 55 L197 147 L277 223 L428 22 C443 3 457 -5 481 -5 C512 -5 538 17 538 50 C538 64 533 75 522 90 L362 299 L502 428 C519 444 529 459 529 479 C529 508 508 534 476 534 C455 534 440 524 424 508 L197 285 L197 675 C197 708 170 735 136 735 C102 735 76 708 76 675 L76 55 Z " />
<glyph glyph-name="Lacute" unicode="&#x139;" horiz-adv-x="619" d="M169 753 C197 753 216 758 240 780 L307 844 C317 853 324 863 324 874 C324 893 284 913 252 913 C231 913 215 902 204 884 L147 796 C143 790 139 781 139 774 C139 761 152 753 169 753 L169 753 Z M90 62 C90 27 117 0 152 0 L530 0 C561 0 586 25 586 56 C586 87 561 112 530 112 L213 112 L213 644 C213 678 186 705 152 705 C117 705 90 678 90 644 L90 62 Z " />
<glyph glyph-name="lacute" unicode="&#x13a;" horiz-adv-x="286" d="M141 770 C169 770 188 775 212 797 L279 861 C289 870 296 880 296 891 C296 910 256 930 224 930 C203 930 187 919 176 901 L119 813 C115 807 111 798 111 791 C111 778 124 770 141 770 L141 770 Z M83 55 C83 21 110 -5 143 -5 C177 -5 204 21 204 55 L204 675 C204 708 177 735 143 735 C109 735 83 708 83 675 L83 55 Z " />
<glyph glyph-name="Lcommaaccent" unicode="&#x13b;" horiz-adv-x="619" d="M325 -166 C326 -199 307 -220 262 -230 C248 -233 241 -240 241 -251 C241 -262 249 -272 267 -272 C295 -272 331 -259 353 -239 C382 -214 396 -181 396 -131 L396 -128 C396 -86 371 -58 332 -58 C296 -58 271 -80 271 -111 L271 -113 C271 -144 295 -161 325 -166 L325 -166 Z M90 62 C90 27 117 0 152 0 L530 0 C561 0 586 25 586 56 C586 87 561 112 530 112 L213 112 L213 644 C213 678 186 705 152 705 C117 705 90 678 90 644 L90 62 Z " />
<glyph glyph-name="lcommaaccent" unicode="&#x13c;" horiz-adv-x="286" d="M135 -166 C136 -199 117 -220 72 -230 C58 -233 51 -240 51 -251 C51 -262 59 -272 77 -272 C105 -272 141 -259 163 -239 C192 -214 206 -181 206 -131 L206 -128 C206 -86 181 -58 142 -58 C106 -58 81 -80 81 -111 L81 -113 C81 -144 105 -161 135 -166 L135 -166 Z M83 55 C83 21 110 -5 143 -5 C177 -5 204 21 204 55 L204 675 C204 708 177 735 143 735 C109 735 83 708 83 675 L83 55 Z " />
<glyph glyph-name="Lcaron" unicode="&#x13d;" horiz-adv-x="619" d="M297 534 C296 515 307 504 323 504 C339 504 347 513 352 529 L389 650 C392 659 393 667 393 673 C393 692 380 702 362 702 L344 702 C318 702 301 683 300 658 L297 534 Z M90 62 C90 27 117 0 152 0 L530 0 C561 0 586 25 586 56 C586 87 561 112 530 112 L213 112 L213 644 C213 678 186 705 152 705 C117 705 90 678 90 644 L90 62 Z " />
<glyph glyph-name="lcaron" unicode="&#x13e;" horiz-adv-x="286" d="M260 567 C259 548 270 537 286 537 C302 537 310 546 315 562 L352 683 C355 692 356 700 356 706 C356 725 343 735 325 735 L307 735 C281 735 264 716 263 691 L260 567 Z M83 55 C83 21 110 -5 143 -5 C177 -5 204 21 204 55 L204 675 C204 708 177 735 143 735 C109 735 83 708 83 675 L83 55 Z " />
<glyph glyph-name="Ldot" unicode="&#x13f;" horiz-adv-x="619" d="M90 62 C90 27 117 0 152 0 L530 0 C561 0 586 25 586 56 C586 87 561 112 530 112 L213 112 L213 644 C213 678 186 705 152 705 C117 705 90 678 90 644 L90 62 Z M543 381 C543 418 512 443 475 443 C438 443 408 418 408 381 L408 374 C408 337 438 313 475 313 C512 313 543 337 543 374 L543 381 Z " />
<glyph glyph-name="ldot" unicode="&#x140;" horiz-adv-x="367" d="M382 380 C382 411 359 435 327 435 C295 435 272 411 272 380 L272 369 C272 338 295 314 327 314 C359 314 382 338 382 369 L382 380 Z M83 55 C83 21 110 -5 143 -5 C177 -5 204 21 204 55 L204 675 C204 708 177 735 143 735 C109 735 83 708 83 675 L83 55 Z " />
<glyph glyph-name="Lslash" unicode="&#x141;" horiz-adv-x="649" d="M410 366 C432 372 449 391 449 418 C449 448 425 473 395 473 C391 473 382 472 375 470 L242 430 L242 644 C242 678 215 705 181 705 C147 705 120 678 120 644 L120 393 L79 381 C56 374 40 355 40 329 C40 298 63 273 94 273 C98 273 107 275 114 276 L120 278 L120 62 C120 27 147 0 182 0 L560 0 C591 0 616 25 616 56 C616 87 591 112 560 112 L242 112 L242 315 L410 366 Z " />
<glyph glyph-name="lslash" unicode="&#x142;" horiz-adv-x="346" d="M277 346 C300 352 316 371 316 398 C316 428 293 453 262 453 C258 453 249 452 242 450 L233 447 L233 675 C233 708 207 735 173 735 C139 735 113 708 113 675 L113 411 C88 404 69 398 69 398 C47 391 30 373 30 346 C30 315 53 291 84 291 C88 291 97 292 104 294 L113 296 L113 55 C113 21 140 -5 173 -5 C207 -5 233 21 233 55 L233 332 L277 346 Z " />
<glyph glyph-name="Nacute" unicode="&#x143;" horiz-adv-x="790" d="M391 753 C419 753 438 758 462 780 L529 844 C539 853 546 863 546 874 C546 893 506 913 474 913 C453 913 437 902 426 884 L369 796 C365 790 361 781 361 774 C361 761 374 753 391 753 L391 753 Z M90 55 C90 22 117 -5 151 -5 C184 -5 211 22 211 55 L211 499 L571 33 C588 11 606 -4 635 -4 L640 -4 C674 -4 700 23 700 57 L700 645 C700 678 673 705 639 705 C606 705 579 678 579 645 L579 215 L229 668 C212 689 195 704 165 704 L152 704 C117 704 90 676 90 642 L90 55 Z " />
<glyph glyph-name="nacute" unicode="&#x144;" horiz-adv-x="620" d="M309 590 C337 590 356 595 380 617 L447 681 C457 690 464 700 464 711 C464 730 424 750 392 750 C371 750 355 739 344 721 L287 633 C283 627 279 618 279 611 C279 598 292 590 309 590 L309 590 Z M76 55 C76 21 103 -5 136 -5 C170 -5 197 21 197 55 L197 298 C197 380 246 429 316 429 C388 429 429 382 429 300 L429 55 C429 21 456 -5 490 -5 C524 -5 550 21 550 55 L550 337 C550 459 481 539 362 539 C280 539 231 496 197 447 L197 473 C197 507 170 534 136 534 C102 534 76 507 76 473 L76 55 Z " />
<glyph glyph-name="Ncommaaccent" unicode="&#x145;" horiz-adv-x="790" d="M386 -161 C387 -194 368 -215 323 -225 C309 -228 302 -235 302 -246 C302 -257 310 -267 328 -267 C356 -267 392 -254 414 -234 C443 -209 457 -176 457 -126 L457 -123 C457 -81 432 -53 393 -53 C357 -53 332 -75 332 -106 L332 -108 C332 -139 356 -156 386 -161 L386 -161 Z M90 55 C90 22 117 -5 151 -5 C184 -5 211 22 211 55 L211 499 L571 33 C588 11 606 -4 635 -4 L640 -4 C674 -4 700 23 700 57 L700 645 C700 678 673 705 639 705 C606 705 579 678 579 645 L579 215 L229 668 C212 689 195 704 165 704 L152 704 C117 704 90 676 90 642 L90 55 Z " />
<glyph glyph-name="ncommaaccent" unicode="&#x146;" horiz-adv-x="620" d="M304 -166 C305 -199 286 -220 241 -230 C227 -233 220 -240 220 -251 C220 -262 228 -272 246 -272 C274 -272 310 -259 332 -239 C361 -214 375 -181 375 -131 L375 -128 C375 -86 350 -58 311 -58 C275 -58 250 -80 250 -111 L250 -113 C250 -144 274 -161 304 -166 L304 -166 Z M76 55 C76 21 103 -5 136 -5 C170 -5 197 21 197 55 L197 298 C197 380 246 429 316 429 C388 429 429 382 429 300 L429 55 C429 21 456 -5 490 -5 C524 -5 550 21 550 55 L550 337 C550 459 481 539 362 539 C280 539 231 496 197 447 L197 473 C197 507 170 534 136 534 C102 534 76 507 76 473 L76 55 Z " />
<glyph glyph-name="Ncaron" unicode="&#x147;" horiz-adv-x="790" d="M396 838 L344 883 C318 905 298 910 270 910 C254 910 241 903 241 890 C241 882 247 874 253 866 L319 783 C334 765 349 754 377 754 L413 754 C441 754 457 765 471 783 L537 866 C543 874 549 882 549 890 C549 903 538 910 522 910 C494 910 475 905 448 883 L396 838 Z M90 55 C90 22 117 -5 151 -5 C184 -5 211 22 211 55 L211 499 L571 33 C588 11 606 -4 635 -4 L640 -4 C674 -4 700 23 700 57 L700 645 C700 678 673 705 639 705 C606 705 579 678 579 645 L579 215 L229 668 C212 689 195 704 165 704 L152 704 C117 704 90 676 90 642 L90 55 Z " />
<glyph glyph-name="ncaron" unicode="&#x148;" horiz-adv-x="620" d="M313 675 L261 720 C235 742 215 747 187 747 C171 747 158 740 158 727 C158 719 164 711 170 703 L236 620 C251 602 266 591 294 591 L330 591 C358 591 374 602 388 620 L454 703 C460 711 466 719 466 727 C466 740 455 747 439 747 C411 747 392 742 365 720 L313 675 Z M76 55 C76 21 103 -5 136 -5 C170 -5 197 21 197 55 L197 298 C197 380 246 429 316 429 C388 429 429 382 429 300 L429 55 C429 21 456 -5 490 -5 C524 -5 550 21 550 55 L550 337 C550 459 481 539 362 539 C280 539 231 496 197 447 L197 473 C197 507 170 534 136 534 C102 534 76 507 76 473 L76 55 Z " />
<glyph glyph-name="Omacron" unicode="&#x14c;" horiz-adv-x="850" d="M558 779 C582 779 602 799 602 823 C602 847 582 867 558 867 L292 867 C268 867 248 847 248 823 C248 799 268 779 292 779 L558 779 Z M424 -12 C639 -12 791 153 791 350 L791 352 C791 549 641 712 426 712 C211 712 59 547 59 350 L59 348 C59 151 209 -12 424 -12 L424 -12 Z M426 102 C287 102 188 214 188 350 L188 352 C188 488 285 599 424 599 C563 599 662 486 662 350 L662 348 C662 212 565 102 426 102 L426 102 Z " />
<glyph glyph-name="omacron" unicode="&#x14d;" horiz-adv-x="657" d="M461 606 C485 606 505 626 505 650 C505 674 485 694 461 694 L195 694 C171 694 151 674 151 650 C151 626 171 606 195 606 L461 606 Z M327 -12 C490 -12 610 113 610 263 L610 265 C610 416 491 539 329 539 C167 539 47 414 47 263 L47 261 C47 111 166 -12 327 -12 L327 -12 Z M329 94 C235 94 168 171 168 263 L168 265 C168 357 230 433 327 433 C422 433 489 356 489 263 L489 261 C489 170 427 94 329 94 L329 94 Z " />
<glyph glyph-name="Obreve" unicode="&#x14e;" horiz-adv-x="850" d="M424 -12 C639 -12 791 153 791 350 L791 352 C791 549 641 712 426 712 C211 712 59 547 59 350 L59 348 C59 151 209 -12 424 -12 L424 -12 Z M426 102 C287 102 188 214 188 350 L188 352 C188 488 285 599 424 599 C563 599 662 486 662 350 L662 348 C662 212 565 102 426 102 L426 102 Z M425 766 C496 766 549 795 578 846 C583 856 586 867 586 877 C586 901 568 920 544 920 C523 920 513 909 506 897 C492 870 468 851 425 851 C382 851 359 870 344 897 C337 909 327 920 306 920 C282 920 264 901 264 877 C264 867 267 856 272 846 C301 795 355 766 425 766 L425 766 Z " />
<glyph glyph-name="obreve" unicode="&#x14f;" horiz-adv-x="657" d="M327 -12 C490 -12 610 113 610 263 L610 265 C610 416 491 539 329 539 C167 539 47 414 47 263 L47 261 C47 111 166 -12 327 -12 L327 -12 Z M329 94 C235 94 168 171 168 263 L168 265 C168 357 230 433 327 433 C422 433 489 356 489 263 L489 261 C489 170 427 94 329 94 L329 94 Z M328 593 C399 593 452 622 481 673 C486 683 489 694 489 704 C489 728 471 747 447 747 C426 747 416 736 409 724 C395 697 371 678 328 678 C285 678 262 697 247 724 C240 736 230 747 209 747 C185 747 167 728 167 704 C167 694 170 683 175 673 C204 622 258 593 328 593 L328 593 Z " />
<glyph glyph-name="Ohungarumlaut" unicode="&#x150;" horiz-adv-x="850" d="M503 763 C531 763 548 768 572 790 L639 854 C649 864 656 873 656 885 C656 904 617 923 586 923 C564 923 551 913 540 894 L482 806 C478 800 474 791 474 784 C474 771 486 763 503 763 L503 763 Z M320 763 C348 763 366 768 389 790 L456 854 C466 864 473 873 473 885 C473 904 434 923 403 923 C382 923 368 913 357 894 L299 806 C295 800 291 791 291 784 C291 771 303 763 320 763 L320 763 Z M424 -12 C639 -12 791 153 791 350 L791 352 C791 549 641 712 426 712 C211 712 59 547 59 350 L59 348 C59 151 209 -12 424 -12 L424 -12 Z M426 102 C287 102 188 214 188 350 L188 352 C188 488 285 599 424 599 C563 599 662 486 662 350 L662 348 C662 212 565 102 426 102 L426 102 Z " />
<glyph glyph-name="ohungarumlaut" unicode="&#x151;" horiz-adv-x="657" d="M407 590 C435 590 452 595 476 617 L543 681 C553 691 560 700 560 712 C560 731 521 750 490 750 C468 750 455 740 444 721 L386 633 C382 627 378 618 378 611 C378 598 390 590 407 590 L407 590 Z M224 590 C252 590 270 595 293 617 L360 681 C370 691 377 700 377 712 C377 731 338 750 307 750 C286 750 272 740 261 721 L203 633 C199 627 195 618 195 611 C195 598 207 590 224 590 L224 590 Z M327 -12 C490 -12 610 113 610 263 L610 265 C610 416 491 539 329 539 C167 539 47 414 47 263 L47 261 C47 111 166 -12 327 -12 L327 -12 Z M329 94 C235 94 168 171 168 263 L168 265 C168 357 230 433 327 433 C422 433 489 356 489 263 L489 261 C489 170 427 94 329 94 L329 94 Z " />
<glyph glyph-name="OE" unicode="&#x152;" horiz-adv-x="1098" d="M431 0 L992 0 C1023 0 1048 24 1048 55 C1048 85 1023 110 992 110 L663 110 L663 298 L942 298 C973 298 998 322 998 352 C998 383 973 408 942 408 L663 408 L663 590 L987 590 C1018 590 1043 614 1043 645 C1043 675 1018 700 987 700 L431 700 C211 700 59 547 59 350 L59 348 C59 150 211 0 431 0 L431 0 Z M431 112 C284 112 188 213 188 350 L188 352 C188 489 284 588 431 588 L540 588 L540 112 L431 112 Z " />
<glyph glyph-name="oe" unicode="&#x153;" horiz-adv-x="1040" d="M602 301 C613 383 665 440 740 440 C820 440 865 379 874 301 L602 301 Z M326 94 C234 94 168 171 168 263 L168 265 C168 355 229 433 324 433 C416 433 482 356 482 263 L482 261 C482 170 421 94 326 94 L326 94 Z M943 58 C953 67 959 80 959 95 C959 123 939 144 911 144 C898 144 889 140 880 133 C846 105 806 87 755 87 C678 87 617 135 603 221 L934 221 C966 221 991 245 991 279 C991 401 908 539 741 539 C654 539 581 496 537 430 C492 496 416 539 326 539 C169 539 47 414 47 263 L47 261 C47 111 169 -12 321 -12 C412 -12 490 32 536 99 C583 30 662 -12 754 -12 C835 -12 895 15 943 58 L943 58 Z " />
<glyph glyph-name="Racute" unicode="&#x154;" horiz-adv-x="723" d="M90 56 C90 22 117 -5 152 -5 C186 -5 213 22 213 56 L213 244 L368 244 L538 27 C552 8 570 -5 598 -5 C628 -5 657 18 657 52 C657 71 649 84 637 99 L503 268 C597 297 662 365 662 477 L662 479 C662 540 641 592 604 630 C559 674 490 700 402 700 L152 700 C117 700 90 673 90 638 L90 56 Z M213 353 L213 588 L392 588 C483 588 537 547 537 472 L537 470 C537 399 481 353 393 353 L213 353 Z M365 753 C393 753 412 758 436 780 L503 844 C513 853 520 863 520 874 C520 893 480 913 448 913 C427 913 411 902 400 884 L343 796 C339 790 335 781 335 774 C335 761 348 753 365 753 L365 753 Z " />
<glyph glyph-name="racute" unicode="&#x155;" horiz-adv-x="413" d="M220 590 C248 590 267 595 291 617 L358 681 C368 690 375 700 375 711 C375 730 335 750 303 750 C282 750 266 739 255 721 L198 633 C194 627 190 618 190 611 C190 598 203 590 220 590 L220 590 Z M76 55 C76 21 103 -5 136 -5 C170 -5 197 22 197 55 L197 211 C197 336 256 402 342 417 C369 422 390 443 390 475 C390 510 368 535 330 535 C277 535 225 485 197 419 L197 473 C197 507 170 534 136 534 C102 534 76 507 76 473 L76 55 Z " />
<glyph glyph-name="Rcommaaccent" unicode="&#x156;" horiz-adv-x="723" d="M90 56 C90 22 117 -5 152 -5 C186 -5 213 22 213 56 L213 244 L368 244 L538 27 C552 8 570 -5 598 -5 C628 -5 657 18 657 52 C657 71 649 84 637 99 L503 268 C597 297 662 365 662 477 L662 479 C662 540 641 592 604 630 C559 674 490 700 402 700 L152 700 C117 700 90 673 90 638 L90 56 Z M213 353 L213 588 L392 588 C483 588 537 547 537 472 L537 470 C537 399 481 353 393 353 L213 353 Z M360 -161 C361 -194 342 -215 297 -225 C283 -228 276 -235 276 -246 C276 -257 284 -267 302 -267 C330 -267 366 -254 388 -234 C417 -209 431 -176 431 -126 L431 -123 C431 -81 406 -53 367 -53 C331 -53 306 -75 306 -106 L306 -108 C306 -139 330 -156 360 -161 L360 -161 Z " />
<glyph glyph-name="rcommaaccent" unicode="&#x157;" horiz-adv-x="413" d="M135 -166 C136 -199 117 -220 72 -230 C58 -233 51 -240 51 -251 C51 -262 59 -272 77 -272 C105 -272 141 -259 163 -239 C192 -214 206 -181 206 -131 L206 -128 C206 -86 181 -58 142 -58 C106 -58 81 -80 81 -111 L81 -113 C81 -144 105 -161 135 -166 L135 -166 Z M76 55 C76 21 103 -5 136 -5 C170 -5 197 22 197 55 L197 211 C197 336 256 402 342 417 C369 422 390 443 390 475 C390 510 368 535 330 535 C277 535 225 485 197 419 L197 473 C197 507 170 534 136 534 C102 534 76 507 76 473 L76 55 Z " />
<glyph glyph-name="Rcaron" unicode="&#x158;" horiz-adv-x="723" d="M90 56 C90 22 117 -5 152 -5 C186 -5 213 22 213 56 L213 244 L368 244 L538 27 C552 8 570 -5 598 -5 C628 -5 657 18 657 52 C657 71 649 84 637 99 L503 268 C597 297 662 365 662 477 L662 479 C662 540 641 592 604 630 C559 674 490 700 402 700 L152 700 C117 700 90 673 90 638 L90 56 Z M213 353 L213 588 L392 588 C483 588 537 547 537 472 L537 470 C537 399 481 353 393 353 L213 353 Z M369 838 L317 883 C291 905 271 910 243 910 C227 910 214 903 214 890 C214 882 220 874 226 866 L292 783 C307 765 322 754 350 754 L386 754 C414 754 430 765 444 783 L510 866 C516 874 522 882 522 890 C522 903 511 910 495 910 C467 910 448 905 421 883 L369 838 Z " />
<glyph glyph-name="rcaron" unicode="&#x159;" horiz-adv-x="413" d="M225 675 L173 720 C147 742 127 747 99 747 C83 747 70 740 70 727 C70 719 76 711 82 703 L148 620 C163 602 178 591 206 591 L242 591 C270 591 286 602 300 620 L366 703 C372 711 378 719 378 727 C378 740 367 747 351 747 C323 747 304 742 277 720 L225 675 Z M76 55 C76 21 103 -5 136 -5 C170 -5 197 22 197 55 L197 211 C197 336 256 402 342 417 C369 422 390 443 390 475 C390 510 368 535 330 535 C277 535 225 485 197 419 L197 473 C197 507 170 534 136 534 C102 534 76 507 76 473 L76 55 Z " />
<glyph glyph-name="Sacute" unicode="&#x15a;" horiz-adv-x="640" d="M322 763 C350 763 369 768 393 790 L460 854 C470 863 477 873 477 884 C477 903 437 923 405 923 C384 923 368 912 357 894 L300 806 C296 800 292 791 292 784 C292 771 305 763 322 763 L322 763 Z M335 -10 C482 -10 585 68 585 199 L585 201 C585 317 509 370 361 406 C226 438 194 462 194 516 L194 518 C194 564 236 601 308 601 C363 601 415 583 469 548 C479 542 489 539 501 539 C533 539 559 564 559 596 C559 620 546 637 532 645 C469 687 398 710 310 710 C171 710 71 627 71 507 L71 505 C71 376 155 332 304 296 C434 266 462 239 462 189 L462 187 C462 135 414 99 338 99 C262 99 200 125 142 171 C134 177 123 182 106 182 C74 182 48 157 48 125 C48 105 58 88 72 78 C150 20 240 -10 335 -10 L335 -10 Z " />
<glyph glyph-name="sacute" unicode="&#x15b;" horiz-adv-x="501" d="M250 590 C278 590 297 595 321 617 L388 681 C398 690 405 700 405 711 C405 730 365 750 333 750 C312 750 296 739 285 721 L228 633 C224 627 220 618 220 611 C220 598 233 590 250 590 L250 590 Z M257 -10 C367 -10 453 45 453 156 L453 158 C453 253 366 288 289 312 C227 332 170 348 170 387 L170 389 C170 419 197 441 244 441 C281 441 325 427 368 405 C376 401 382 399 392 399 C420 399 442 420 442 448 C442 469 430 485 413 494 C362 521 303 537 247 537 C142 537 59 476 59 376 L59 374 C59 273 146 241 224 219 C286 200 342 186 342 145 L342 143 C342 108 312 86 260 86 C212 86 159 103 108 137 C101 141 92 144 82 144 C54 144 33 122 33 95 C33 75 43 60 56 53 C117 11 190 -10 257 -10 L257 -10 Z " />
<glyph glyph-name="Scedilla" unicode="&#x15e;" horiz-adv-x="640" d="M585 199 L585 201 C585 317 509 370 361 406 C226 438 194 462 194 516 L194 518 C194 564 236 601 308 601 C363 601 415 583 469 548 C479 542 489 539 501 539 C533 539 559 564 559 596 C559 620 546 637 532 645 C469 687 398 710 310 710 C171 710 71 627 71 507 L71 505 C71 376 155 332 304 296 C434 266 462 239 462 189 L462 187 C462 135 414 99 338 99 C262 99 200 125 142 171 C134 177 123 182 106 182 C74 182 48 157 48 125 C48 105 58 88 72 78 C134 31 205 3 279 -6 L220 -93 C215 -100 212 -108 212 -116 C212 -137 258 -160 282 -160 C303 -160 313 -150 321 -131 L374 -8 C500 5 585 80 585 199 L585 199 Z " />
<glyph glyph-name="scedilla" unicode="&#x15f;" horiz-adv-x="501" d="M453 156 L453 158 C453 253 366 288 289 312 C227 332 170 348 170 387 L170 389 C170 419 197 441 244 441 C281 441 325 427 368 405 C376 401 382 399 392 399 C420 399 442 420 442 448 C442 469 430 485 413 494 C362 521 303 537 247 537 C142 537 59 476 59 376 L59 374 C59 273 146 241 224 219 C286 200 342 186 342 145 L342 143 C342 108 312 86 260 86 C212 86 159 103 108 137 C101 141 92 144 82 144 C54 144 33 122 33 95 C33 75 43 60 56 53 C100 23 150 3 199 -5 L139 -93 C134 -100 131 -108 131 -116 C131 -137 177 -160 201 -160 C222 -160 232 -150 240 -131 L293 -8 C385 3 453 57 453 156 L453 156 Z " />
<glyph glyph-name="Scaron" unicode="&#x160;" horiz-adv-x="640" d="M326 848 L274 893 C248 915 228 920 200 920 C184 920 171 913 171 900 C171 892 177 884 183 876 L249 793 C264 775 279 764 307 764 L343 764 C371 764 387 775 401 793 L467 876 C473 884 479 892 479 900 C479 913 468 920 452 920 C424 920 405 915 378 893 L326 848 Z M335 -10 C482 -10 585 68 585 199 L585 201 C585 317 509 370 361 406 C226 438 194 462 194 516 L194 518 C194 564 236 601 308 601 C363 601 415 583 469 548 C479 542 489 539 501 539 C533 539 559 564 559 596 C559 620 546 637 532 645 C469 687 398 710 310 710 C171 710 71 627 71 507 L71 505 C71 376 155 332 304 296 C434 266 462 239 462 189 L462 187 C462 135 414 99 338 99 C262 99 200 125 142 171 C134 177 123 182 106 182 C74 182 48 157 48 125 C48 105 58 88 72 78 C150 20 240 -10 335 -10 L335 -10 Z " />
<glyph glyph-name="scaron" unicode="&#x161;" horiz-adv-x="501" d="M254 675 L202 720 C176 742 156 747 128 747 C112 747 99 740 99 727 C99 719 105 711 111 703 L177 620 C192 602 207 591 235 591 L271 591 C299 591 315 602 329 620 L395 703 C401 711 407 719 407 727 C407 740 396 747 380 747 C352 747 333 742 306 720 L254 675 Z M257 -10 C367 -10 453 45 453 156 L453 158 C453 253 366 288 289 312 C227 332 170 348 170 387 L170 389 C170 419 197 441 244 441 C281 441 325 427 368 405 C376 401 382 399 392 399 C420 399 442 420 442 448 C442 469 430 485 413 494 C362 521 303 537 247 537 C142 537 59 476 59 376 L59 374 C59 273 146 241 224 219 C286 200 342 186 342 145 L342 143 C342 108 312 86 260 86 C212 86 159 103 108 137 C101 141 92 144 82 144 C54 144 33 122 33 95 C33 75 43 60 56 53 C117 11 190 -10 257 -10 L257 -10 Z " />
<glyph glyph-name="Tcommaaccent" unicode="&#x162;" horiz-adv-x="648" d="M315 -166 C316 -199 297 -220 252 -230 C238 -233 231 -240 231 -251 C231 -262 239 -272 257 -272 C285 -272 321 -259 343 -239 C372 -214 386 -181 386 -131 L386 -128 C386 -86 361 -58 322 -58 C286 -58 261 -80 261 -111 L261 -113 C261 -144 285 -161 315 -166 L315 -166 Z M262 56 C262 22 290 -5 324 -5 C358 -5 386 22 386 56 L386 586 L557 586 C588 586 613 612 613 643 C613 674 588 700 557 700 L92 700 C60 700 35 674 35 643 C35 612 60 586 92 586 L262 586 L262 56 Z " />
<glyph glyph-name="tcommaaccent" unicode="&#x163;" horiz-adv-x="411" d="M215 -166 C216 -199 197 -220 152 -230 C138 -233 131 -240 131 -251 C131 -262 139 -272 157 -272 C185 -272 221 -259 243 -239 C272 -214 286 -181 286 -131 L286 -128 C286 -86 261 -58 222 -58 C186 -58 161 -80 161 -111 L161 -113 C161 -144 185 -161 215 -166 L215 -166 Z M253 -9 C285 -9 310 -4 336 5 C353 12 368 30 368 52 C368 80 344 102 317 102 C313 102 301 99 287 99 C246 99 222 118 222 165 L222 424 L317 424 C346 424 370 447 370 476 C370 505 346 528 317 528 L222 528 L222 618 C222 651 195 678 162 678 C128 678 101 651 101 618 L101 528 L81 528 C52 528 29 505 29 476 C29 447 52 424 81 424 L101 424 L101 146 C101 30 164 -9 253 -9 L253 -9 Z " />
<glyph glyph-name="Tcaron" unicode="&#x164;" horiz-adv-x="648" d="M325 838 L273 883 C247 905 227 910 199 910 C183 910 170 903 170 890 C170 882 176 874 182 866 L248 783 C263 765 278 754 306 754 L342 754 C370 754 386 765 400 783 L466 866 C472 874 478 882 478 890 C478 903 467 910 451 910 C423 910 404 905 377 883 L325 838 Z M262 56 C262 22 290 -5 324 -5 C358 -5 386 22 386 56 L386 586 L557 586 C588 586 613 612 613 643 C613 674 588 700 557 700 L92 700 C60 700 35 674 35 643 C35 612 60 586 92 586 L262 586 L262 56 Z " />
<glyph glyph-name="tcaron" unicode="&#x165;" horiz-adv-x="411" d="M305 612 C304 593 315 582 331 582 C347 582 355 591 360 607 L397 728 C400 737 401 745 401 751 C401 770 388 780 370 780 L352 780 C326 780 309 761 308 736 L305 612 Z M253 -9 C285 -9 310 -4 336 5 C353 12 368 30 368 52 C368 80 344 102 317 102 C313 102 301 99 287 99 C246 99 222 118 222 165 L222 424 L317 424 C346 424 370 447 370 476 C370 505 346 528 317 528 L222 528 L222 618 C222 651 195 678 162 678 C128 678 101 651 101 618 L101 528 L81 528 C52 528 29 505 29 476 C29 447 52 424 81 424 L101 424 L101 146 C101 30 164 -9 253 -9 L253 -9 Z " />
<glyph glyph-name="Umacron" unicode="&#x16a;" horiz-adv-x="757" d="M377 -11 C560 -11 678 94 678 303 L678 644 C678 678 651 705 617 705 C582 705 555 678 555 644 L555 297 C555 168 488 103 379 103 C269 103 202 172 202 302 L202 644 C202 678 175 705 141 705 C106 705 79 678 79 644 L79 297 C79 94 195 -11 377 -11 L377 -11 Z M511 769 C535 769 555 789 555 813 C555 837 535 857 511 857 L245 857 C221 857 201 837 201 813 C201 789 221 769 245 769 L511 769 Z " />
<glyph glyph-name="umacron" unicode="&#x16b;" horiz-adv-x="620" d="M545 473 C545 507 517 534 484 534 C450 534 423 507 423 473 L423 230 C423 148 374 100 304 100 C232 100 191 146 191 228 L191 473 C191 507 164 534 130 534 C97 534 70 507 70 473 L70 192 C70 69 139 -11 258 -11 C340 -11 389 32 423 82 L423 55 C423 21 451 -5 484 -5 C518 -5 545 22 545 55 L545 473 Z M439 606 C463 606 483 626 483 650 C483 674 463 694 439 694 L173 694 C149 694 129 674 129 650 C129 626 149 606 173 606 L439 606 Z " />
<glyph glyph-name="Ubreve" unicode="&#x16c;" horiz-adv-x="757" d="M377 -11 C560 -11 678 94 678 303 L678 644 C678 678 651 705 617 705 C582 705 555 678 555 644 L555 297 C555 168 488 103 379 103 C269 103 202 172 202 302 L202 644 C202 678 175 705 141 705 C106 705 79 678 79 644 L79 297 C79 94 195 -11 377 -11 L377 -11 Z M378 752 C449 752 502 781 531 832 C536 842 539 853 539 863 C539 887 521 906 497 906 C476 906 466 895 459 883 C445 856 421 837 378 837 C335 837 312 856 297 883 C290 895 280 906 259 906 C235 906 217 887 217 863 C217 853 220 842 225 832 C254 781 308 752 378 752 L378 752 Z " />
<glyph glyph-name="ubreve" unicode="&#x16d;" horiz-adv-x="620" d="M545 473 C545 507 517 534 484 534 C450 534 423 507 423 473 L423 230 C423 148 374 100 304 100 C232 100 191 146 191 228 L191 473 C191 507 164 534 130 534 C97 534 70 507 70 473 L70 192 C70 69 139 -11 258 -11 C340 -11 389 32 423 82 L423 55 C423 21 451 -5 484 -5 C518 -5 545 22 545 55 L545 473 Z M306 593 C377 593 430 622 459 673 C464 683 467 694 467 704 C467 728 449 747 425 747 C404 747 394 736 387 724 C373 697 349 678 306 678 C263 678 240 697 225 724 C218 736 208 747 187 747 C163 747 145 728 145 704 C145 694 148 683 153 673 C182 622 236 593 306 593 L306 593 Z " />
<glyph glyph-name="Uring" unicode="&#x16e;" horiz-adv-x="757" d="M378 742 C438 742 492 792 492 851 L492 853 C492 913 438 962 378 962 C318 962 264 913 264 853 L264 851 C264 792 318 742 378 742 L378 742 Z M378 790 C344 790 316 818 316 851 L316 853 C316 886 344 914 378 914 C412 914 440 886 440 853 L440 851 C440 818 412 790 378 790 L378 790 Z M377 -11 C560 -11 678 94 678 303 L678 644 C678 678 651 705 617 705 C582 705 555 678 555 644 L555 297 C555 168 488 103 379 103 C269 103 202 172 202 302 L202 644 C202 678 175 705 141 705 C106 705 79 678 79 644 L79 297 C79 94 195 -11 377 -11 L377 -11 Z " />
<glyph glyph-name="uring" unicode="&#x16f;" horiz-adv-x="620" d="M306 592 C366 592 420 642 420 701 L420 703 C420 763 366 812 306 812 C246 812 192 763 192 703 L192 701 C192 642 246 592 306 592 L306 592 Z M306 640 C272 640 244 668 244 701 L244 703 C244 736 272 764 306 764 C340 764 368 736 368 703 L368 701 C368 668 340 640 306 640 L306 640 Z M545 473 C545 507 517 534 484 534 C450 534 423 507 423 473 L423 230 C423 148 374 100 304 100 C232 100 191 146 191 228 L191 473 C191 507 164 534 130 534 C97 534 70 507 70 473 L70 192 C70 69 139 -11 258 -11 C340 -11 389 32 423 82 L423 55 C423 21 451 -5 484 -5 C518 -5 545 22 545 55 L545 473 Z " />
<glyph glyph-name="Uhungarumlaut" unicode="&#x170;" horiz-adv-x="757" d="M377 -11 C560 -11 678 94 678 303 L678 644 C678 678 651 705 617 705 C582 705 555 678 555 644 L555 297 C555 168 488 103 379 103 C269 103 202 172 202 302 L202 644 C202 678 175 705 141 705 C106 705 79 678 79 644 L79 297 C79 94 195 -11 377 -11 L377 -11 Z M457 753 C485 753 502 758 526 780 L593 844 C603 854 610 863 610 875 C610 894 571 913 540 913 C518 913 505 903 494 884 L436 796 C432 790 428 781 428 774 C428 761 440 753 457 753 L457 753 Z M274 753 C302 753 320 758 343 780 L410 844 C420 854 427 863 427 875 C427 894 388 913 357 913 C336 913 322 903 311 884 L253 796 C249 790 245 781 245 774 C245 761 257 753 274 753 L274 753 Z " />
<glyph glyph-name="uhungarumlaut" unicode="&#x171;" horiz-adv-x="620" d="M545 473 C545 507 517 534 484 534 C450 534 423 507 423 473 L423 230 C423 148 374 100 304 100 C232 100 191 146 191 228 L191 473 C191 507 164 534 130 534 C97 534 70 507 70 473 L70 192 C70 69 139 -11 258 -11 C340 -11 389 32 423 82 L423 55 C423 21 451 -5 484 -5 C518 -5 545 22 545 55 L545 473 Z M385 590 C413 590 430 595 454 617 L521 681 C531 691 538 700 538 712 C538 731 499 750 468 750 C446 750 433 740 422 721 L364 633 C360 627 356 618 356 611 C356 598 368 590 385 590 L385 590 Z M202 590 C230 590 248 595 271 617 L338 681 C348 691 355 700 355 712 C355 731 316 750 285 750 C264 750 250 740 239 721 L181 633 C177 627 173 618 173 611 C173 598 185 590 202 590 L202 590 Z " />
<glyph glyph-name="Uogonek" unicode="&#x172;" horiz-adv-x="757" d="M294 -82 C294 -142 359 -166 423 -166 C449 -166 463 -154 463 -135 C463 -119 452 -109 430 -104 C402 -97 386 -87 386 -63 C386 -46 392 -29 410 -9 C574 3 678 107 678 303 L678 644 C678 678 651 705 617 705 C582 705 555 678 555 644 L555 297 C555 168 488 103 379 103 C269 103 202 172 202 302 L202 644 C202 678 175 705 141 705 C106 705 79 678 79 644 L79 297 C79 113 174 10 327 -8 C306 -32 294 -55 294 -82 L294 -82 Z " />
<glyph glyph-name="uogonek" unicode="&#x173;" horiz-adv-x="620" d="M545 473 C545 507 517 534 484 534 C450 534 423 507 423 473 L423 230 C423 148 374 100 304 100 C232 100 191 146 191 228 L191 473 C191 507 164 534 130 534 C97 534 70 507 70 473 L70 192 C70 69 139 -11 258 -11 C340 -11 389 32 423 82 L423 78 C423 61 430 21 442 11 C411 -17 389 -49 389 -85 C389 -142 453 -166 517 -166 C543 -166 557 -154 557 -135 C557 -119 546 -109 524 -104 C496 -97 481 -87 481 -64 C481 -43 492 -24 521 4 C538 20 545 32 545 52 L545 473 Z " />
<glyph glyph-name="Wcircumflex" unicode="&#x174;" horiz-adv-x="1099" d="M548 825 L600 780 C627 758 646 753 674 753 C690 753 703 760 703 773 C703 780 697 789 691 797 L625 880 C611 898 595 909 567 909 L531 909 C503 909 488 898 473 880 L407 797 C401 789 395 780 395 773 C395 760 407 753 422 753 C450 753 470 758 496 780 L548 825 Z M254 41 C266 9 288 -10 318 -10 L330 -10 C360 -10 383 9 394 41 L550 498 L706 41 C717 9 739 -10 769 -10 L781 -10 C811 -10 834 10 845 41 L1052 621 C1055 628 1058 638 1058 646 C1058 679 1030 705 997 705 C967 705 946 686 937 661 L776 179 L618 658 C609 687 587 707 556 707 L547 707 C516 707 495 687 485 658 L327 179 L166 660 C158 686 135 705 105 705 C71 705 42 679 42 645 C42 637 44 628 47 621 L254 41 Z " />
<glyph glyph-name="wcircumflex" unicode="&#x175;" horiz-adv-x="853" d="M424 662 L476 617 C503 595 522 590 550 590 C566 590 579 597 579 610 C579 617 573 626 567 634 L501 717 C487 735 471 746 443 746 L407 746 C379 746 364 735 349 717 L283 634 C277 626 271 617 271 610 C271 597 283 590 298 590 C326 590 346 595 372 617 L424 662 Z M253 -9 L257 -9 C286 -9 311 8 322 43 L426 357 L529 43 C540 8 565 -9 595 -9 L599 -9 C628 -9 653 8 666 45 L810 451 C812 457 815 469 815 478 C815 508 791 534 758 534 C726 534 707 513 699 487 L596 166 L492 486 C483 514 461 534 430 534 L423 534 C392 534 370 514 361 486 L258 166 L156 486 C147 514 127 534 97 534 C61 534 38 507 38 478 C38 468 41 455 44 447 L186 45 C198 8 223 -9 253 -9 L253 -9 Z " />
<glyph glyph-name="Ycircumflex" unicode="&#x176;" horiz-adv-x="696" d="M287 56 C287 22 314 -5 348 -5 C383 -5 410 22 410 56 L410 275 L649 602 C658 614 666 629 666 646 C666 679 642 706 606 706 C580 706 562 691 547 669 L349 387 L154 668 C139 690 121 705 94 705 C59 705 32 679 32 646 C32 629 38 615 46 603 L287 272 L287 56 Z M347 825 L399 780 C426 758 445 753 473 753 C489 753 502 760 502 773 C502 780 496 789 490 797 L424 880 C410 898 394 909 366 909 L330 909 C302 909 287 898 272 880 L206 797 C200 789 194 780 194 773 C194 760 206 753 221 753 C249 753 269 758 295 780 L347 825 Z " />
<glyph glyph-name="ycircumflex" unicode="&#x177;" horiz-adv-x="587" d="M172 -163 C257 -163 305 -123 350 -15 L543 448 C545 454 548 467 548 477 C548 509 522 534 490 534 C459 534 442 513 432 488 L300 137 L158 488 C147 516 130 534 99 534 C65 534 39 509 39 475 C39 467 42 455 46 446 L242 8 L238 -3 C218 -44 199 -59 163 -59 C146 -59 135 -56 121 -52 C115 -50 109 -48 99 -48 C73 -48 50 -68 50 -98 C50 -127 70 -142 88 -148 C113 -158 138 -163 172 -163 L172 -163 Z M293 662 L345 617 C372 595 391 590 419 590 C435 590 448 597 448 610 C448 617 442 626 436 634 L370 717 C356 735 340 746 312 746 L276 746 C248 746 233 735 218 717 L152 634 C146 626 140 617 140 610 C140 597 152 590 167 590 C195 590 215 595 241 617 L293 662 Z " />
<glyph glyph-name="Ydieresis" unicode="&#x178;" horiz-adv-x="696" d="M287 56 C287 22 314 -5 348 -5 C383 -5 410 22 410 56 L410 275 L649 602 C658 614 666 629 666 646 C666 679 642 706 606 706 C580 706 562 691 547 669 L349 387 L154 668 C139 690 121 705 94 705 C59 705 32 679 32 646 C32 629 38 615 46 603 L287 272 L287 56 Z M448 883 C411 883 382 857 382 821 L382 814 C382 778 411 753 448 753 C484 753 513 778 513 814 L513 821 C513 857 484 883 448 883 L448 883 Z M249 883 C212 883 183 857 183 821 L183 814 C183 778 212 753 249 753 C285 753 314 778 314 814 L314 821 C314 857 285 883 249 883 L249 883 Z " />
<glyph glyph-name="Zacute" unicode="&#x179;" horiz-adv-x="702" d="M354 753 C382 753 401 758 425 780 L492 844 C502 853 509 863 509 874 C509 893 469 913 437 913 C416 913 400 902 389 884 L332 796 C328 790 324 781 324 774 C324 761 337 753 354 753 L354 753 Z M116 0 L589 0 C619 0 644 24 644 54 C644 84 619 109 589 109 L225 109 L620 586 C634 604 642 622 642 643 L642 646 C642 675 617 700 587 700 L127 700 C98 700 73 675 73 645 C73 615 98 591 127 591 L478 591 L84 114 C69 97 61 78 61 57 L61 54 C61 25 87 0 116 0 L116 0 Z " />
<glyph glyph-name="zacute" unicode="&#x17a;" horiz-adv-x="560" d="M279 590 C307 590 326 595 350 617 L417 681 C427 690 434 700 434 711 C434 730 394 750 362 750 C341 750 325 739 314 721 L257 633 C253 627 249 618 249 611 C249 598 262 590 279 590 L279 590 Z M108 0 L466 0 C494 0 516 22 516 49 C516 77 494 99 466 99 L206 99 L488 419 C506 439 514 454 514 477 L514 480 C514 508 489 528 456 528 L108 528 C80 528 58 506 58 478 C58 451 80 429 108 429 L357 429 L76 109 C57 89 49 74 49 51 L49 49 C49 21 74 0 108 0 L108 0 Z " />
<glyph glyph-name="Zdotaccent" unicode="&#x17b;" horiz-adv-x="702" d="M116 0 L589 0 C619 0 644 24 644 54 C644 84 619 109 589 109 L225 109 L620 586 C634 604 642 622 642 643 L642 646 C642 675 617 700 587 700 L127 700 C98 700 73 675 73 645 C73 615 98 591 127 591 L478 591 L84 114 C69 97 61 78 61 57 L61 54 C61 25 87 0 116 0 L116 0 Z M425 821 C425 858 394 883 357 883 C320 883 290 858 290 821 L290 814 C290 777 320 753 357 753 C394 753 425 777 425 814 L425 821 Z " />
<glyph glyph-name="zdotaccent" unicode="&#x17c;" horiz-adv-x="560" d="M108 0 L466 0 C494 0 516 22 516 49 C516 77 494 99 466 99 L206 99 L488 419 C506 439 514 454 514 477 L514 480 C514 508 489 528 456 528 L108 528 C80 528 58 506 58 478 C58 451 80 429 108 429 L357 429 L76 109 C57 89 49 74 49 51 L49 49 C49 21 74 0 108 0 L108 0 Z M350 658 C350 695 319 720 282 720 C245 720 215 695 215 658 L215 651 C215 614 245 590 282 590 C319 590 350 614 350 651 L350 658 Z " />
<glyph glyph-name="Zcaron" unicode="&#x17d;" horiz-adv-x="702" d="M358 838 L306 883 C280 905 260 910 232 910 C216 910 203 903 203 890 C203 882 209 874 215 866 L281 783 C296 765 311 754 339 754 L375 754 C403 754 419 765 433 783 L499 866 C505 874 511 882 511 890 C511 903 500 910 484 910 C456 910 437 905 410 883 L358 838 Z M116 0 L589 0 C619 0 644 24 644 54 C644 84 619 109 589 109 L225 109 L620 586 C634 604 642 622 642 643 L642 646 C642 675 617 700 587 700 L127 700 C98 700 73 675 73 645 C73 615 98 591 127 591 L478 591 L84 114 C69 97 61 78 61 57 L61 54 C61 25 87 0 116 0 L116 0 Z " />
<glyph glyph-name="zcaron" unicode="&#x17e;" horiz-adv-x="560" d="M283 675 L231 720 C205 742 185 747 157 747 C141 747 128 740 128 727 C128 719 134 711 140 703 L206 620 C221 602 236 591 264 591 L300 591 C328 591 344 602 358 620 L424 703 C430 711 436 719 436 727 C436 740 425 747 409 747 C381 747 362 742 335 720 L283 675 Z M108 0 L466 0 C494 0 516 22 516 49 C516 77 494 99 466 99 L206 99 L488 419 C506 439 514 454 514 477 L514 480 C514 508 489 528 456 528 L108 528 C80 528 58 506 58 478 C58 451 80 429 108 429 L357 429 L76 109 C57 89 49 74 49 51 L49 49 C49 21 74 0 108 0 L108 0 Z " />
<glyph glyph-name="florin" unicode="&#x192;" horiz-adv-x="527" d="M106 -7 C198 -7 254 36 273 143 L311 356 L410 356 C439 356 461 378 461 406 C461 434 439 457 410 457 L329 457 L341 526 C351 581 375 604 422 604 C432 604 442 602 446 602 C474 602 496 624 496 652 C496 680 475 700 451 703 C434 705 418 706 399 706 C291 706 243 652 224 551 L206 457 L155 457 C127 457 104 434 104 406 C104 378 127 356 155 356 L189 356 L154 161 C146 117 127 97 91 94 C61 92 41 71 41 44 C41 13 65 -7 106 -7 L106 -7 Z " />
<glyph glyph-name="Aringacute" unicode="&#x1fa;" horiz-adv-x="790" d="M392 907 C420 907 439 912 463 934 L530 998 C540 1007 547 1017 547 1028 C547 1047 507 1067 475 1067 C454 1067 438 1056 427 1038 L370 950 C366 944 362 935 362 928 C362 915 375 907 392 907 L392 907 Z M461 684 C490 703 509 736 509 771 L509 773 C509 832 455 882 395 882 C335 882 281 832 281 773 L281 771 C281 735 301 703 329 684 L57 78 C54 70 50 61 50 52 C50 21 75 -5 108 -5 C134 -5 154 10 165 34 L223 169 L563 169 L620 38 C632 12 651 -5 680 -5 C713 -5 739 22 739 54 C739 62 737 70 732 79 L461 684 Z M395 710 C361 710 333 738 333 771 L333 773 C333 806 361 834 395 834 C429 834 457 806 457 773 L457 771 C457 738 429 710 395 710 L395 710 Z M270 278 L393 561 L516 278 L270 278 Z " />
<glyph glyph-name="aringacute" unicode="&#x1fb;" horiz-adv-x="587" d="M228 -11 C309 -11 364 23 400 66 L400 46 C400 19 424 -5 459 -5 C492 -5 518 20 518 53 L518 313 C518 382 500 438 461 476 C424 514 365 535 286 535 C217 535 166 523 116 504 C98 497 83 478 83 456 C83 428 106 406 134 406 C140 406 146 407 153 409 C186 422 224 430 270 430 C355 430 401 390 401 315 L401 302 C360 315 318 324 259 324 C130 324 41 268 41 154 L41 152 C41 46 129 -11 228 -11 L228 -11 Z M294 593 C354 593 408 643 408 702 L408 704 C408 764 354 813 294 813 C234 813 180 764 180 704 L180 702 C180 643 234 593 294 593 L294 593 Z M262 77 C204 77 159 106 159 157 L159 159 C159 214 205 247 283 247 C331 247 372 238 403 226 L403 190 C403 123 342 77 262 77 L262 77 Z M291 843 C319 843 338 848 362 870 L429 934 C439 943 446 953 446 964 C446 983 406 1003 374 1003 C353 1003 337 992 326 974 L269 886 C265 880 261 871 261 864 C261 851 274 843 291 843 L291 843 Z M294 641 C260 641 232 669 232 702 L232 704 C232 737 260 765 294 765 C328 765 356 737 356 704 L356 702 C356 669 328 641 294 641 L294 641 Z " />
<glyph glyph-name="AEacute" unicode="&#x1fc;" horiz-adv-x="1045" d="M618 753 C646 753 665 758 689 780 L756 844 C766 853 773 863 773 874 C773 893 733 913 701 913 C680 913 664 902 653 884 L596 796 C592 790 588 781 588 774 C588 761 601 753 618 753 L618 753 Z M34 45 C34 16 58 -6 88 -6 C112 -6 129 6 142 28 L223 169 L487 169 L487 62 C487 27 514 0 549 0 L939 0 C969 0 994 24 994 55 C994 85 969 110 939 110 L610 110 L610 298 L889 298 C919 298 944 322 944 352 C944 383 919 408 889 408 L610 408 L610 590 L934 590 C964 590 989 614 989 645 C989 675 964 700 934 700 L453 700 C418 700 396 684 381 657 L44 80 C38 71 34 57 34 45 L34 45 Z M286 278 L467 593 L487 593 L487 278 L286 278 Z " />
<glyph glyph-name="aeacute" unicode="&#x1fd;" horiz-adv-x="952" d="M469 590 C497 590 516 595 540 617 L607 681 C617 690 624 700 624 711 C624 730 584 750 552 750 C531 750 515 739 504 721 L447 633 C443 627 439 618 439 611 C439 598 452 590 469 590 L469 590 Z M514 301 C525 383 578 440 652 440 C732 440 778 379 786 301 L514 301 Z M260 78 C204 78 159 108 159 157 L159 159 C159 214 204 247 281 247 C326 247 366 238 397 227 C400 197 407 171 417 146 C371 103 318 78 260 78 L260 78 Z M855 58 C865 67 872 80 872 95 C872 123 851 144 823 144 C810 144 801 140 793 133 C759 105 719 87 667 87 C590 87 529 135 516 221 L846 221 C878 221 903 245 903 279 C903 401 820 539 655 539 C577 539 512 504 470 449 C438 505 376 535 284 535 C217 535 166 524 116 504 C98 497 83 478 83 456 C83 428 106 406 134 406 C140 406 146 407 153 409 C187 422 223 430 268 430 C352 430 397 390 397 315 L397 302 C356 315 315 324 257 324 C130 324 41 268 41 154 L41 152 C41 48 130 -11 240 -11 C329 -11 402 29 461 78 C509 22 583 -12 665 -12 C748 -12 807 15 855 58 L855 58 Z " />
<glyph glyph-name="Oslashacute" unicode="&#x1fe;" horiz-adv-x="850" d="M424 -12 C639 -12 791 153 791 350 L791 352 C791 440 761 521 709 584 L756 633 C765 642 773 655 773 671 C773 692 755 710 730 710 C715 710 702 703 692 693 L644 644 C585 687 510 712 426 712 C211 712 59 547 59 350 L59 348 C59 260 89 179 141 116 L94 67 C85 58 77 45 77 30 C77 8 95 -10 120 -10 C136 -10 149 -3 158 7 L206 55 C265 13 339 -12 424 -12 L424 -12 Z M426 99 C373 99 326 115 287 143 L622 493 C648 452 664 403 664 350 L664 348 C664 211 565 99 426 99 L426 99 Z M186 350 L186 352 C186 489 285 601 424 601 C477 601 524 584 562 556 L228 207 C201 248 186 297 186 350 L186 350 Z M421 763 C449 763 468 768 492 790 L559 854 C569 863 576 873 576 884 C576 903 536 923 504 923 C483 923 467 912 456 894 L399 806 C395 800 391 791 391 784 C391 771 404 763 421 763 L421 763 Z " />
<glyph glyph-name="oslashacute" unicode="&#x1ff;" horiz-adv-x="657" d="M327 -12 C490 -12 610 113 610 263 L610 265 C610 329 588 388 551 435 L581 465 C590 475 598 487 598 503 C598 523 580 539 559 539 C544 539 532 532 521 521 L491 490 C446 521 390 539 329 539 C167 539 47 414 47 263 L47 261 C47 197 68 138 105 92 L76 62 C67 53 59 41 59 25 C59 5 77 -12 98 -12 C113 -12 125 -5 136 6 L165 36 C210 6 265 -12 327 -12 L327 -12 Z M165 263 L165 265 C165 358 228 436 327 436 C360 436 391 426 416 409 L187 175 C173 201 165 231 165 263 L165 263 Z M329 91 C295 91 265 100 240 117 L469 351 C484 325 492 295 492 263 L492 261 C492 169 429 91 329 91 L329 91 Z M325 590 C353 590 372 595 396 617 L463 681 C473 690 480 700 480 711 C480 730 440 750 408 750 C387 750 371 739 360 721 L303 633 C299 627 295 618 295 611 C295 598 308 590 325 590 L325 590 Z " />
<glyph glyph-name="Scommaaccent" unicode="&#x218;" horiz-adv-x="640" d="M316 -169 C317 -202 298 -223 253 -233 C239 -236 232 -243 232 -254 C232 -265 240 -275 258 -275 C286 -275 322 -262 344 -242 C373 -217 387 -184 387 -134 L387 -131 C387 -89 362 -61 323 -61 C287 -61 262 -83 262 -114 L262 -116 C262 -147 286 -164 316 -169 L316 -169 Z M335 -10 C482 -10 585 68 585 199 L585 201 C585 317 509 370 361 406 C226 438 194 462 194 516 L194 518 C194 564 236 601 308 601 C363 601 415 583 469 548 C479 542 489 539 501 539 C533 539 559 564 559 596 C559 620 546 637 532 645 C469 687 398 710 310 710 C171 710 71 627 71 507 L71 505 C71 376 155 332 304 296 C434 266 462 239 462 189 L462 187 C462 135 414 99 338 99 C262 99 200 125 142 171 C134 177 123 182 106 182 C74 182 48 157 48 125 C48 105 58 88 72 78 C150 20 240 -10 335 -10 L335 -10 Z " />
<glyph glyph-name="scommaaccent" unicode="&#x219;" horiz-adv-x="501" d="M245 -166 C246 -199 227 -220 182 -230 C168 -233 161 -240 161 -251 C161 -262 169 -272 187 -272 C215 -272 251 -259 273 -239 C302 -214 316 -181 316 -131 L316 -128 C316 -86 291 -58 252 -58 C216 -58 191 -80 191 -111 L191 -113 C191 -144 215 -161 245 -166 L245 -166 Z M257 -10 C367 -10 453 45 453 156 L453 158 C453 253 366 288 289 312 C227 332 170 348 170 387 L170 389 C170 419 197 441 244 441 C281 441 325 427 368 405 C376 401 382 399 392 399 C420 399 442 420 442 448 C442 469 430 485 413 494 C362 521 303 537 247 537 C142 537 59 476 59 376 L59 374 C59 273 146 241 224 219 C286 200 342 186 342 145 L342 143 C342 108 312 86 260 86 C212 86 159 103 108 137 C101 141 92 144 82 144 C54 144 33 122 33 95 C33 75 43 60 56 53 C117 11 190 -10 257 -10 L257 -10 Z " />
<glyph glyph-name="schwa" unicode="&#x259;" horiz-adv-x="604" d="M437 227 C426 145 374 88 300 88 C220 88 174 149 166 227 L437 227 Z M96 470 C87 461 80 448 80 433 C80 405 101 384 128 384 C142 384 150 388 159 395 C193 423 233 441 284 441 C362 441 423 393 436 307 L105 307 C74 307 48 283 48 249 C48 127 131 -11 299 -11 C450 -11 557 113 557 264 L557 266 C557 429 439 540 286 540 C204 540 144 513 96 470 L96 470 Z " />
<glyph glyph-name="circumflex" unicode="&#x2c6;" horiz-adv-x="500" d="M249 662 L301 617 C328 595 347 590 375 590 C391 590 404 597 404 610 C404 617 398 626 392 634 L326 717 C312 735 296 746 268 746 L232 746 C204 746 189 735 174 717 L108 634 C102 626 96 617 96 610 C96 597 108 590 123 590 C151 590 171 595 197 617 L249 662 Z " />
<glyph glyph-name="caron" unicode="&#x2c7;" horiz-adv-x="500" d="M251 675 L199 720 C173 742 153 747 125 747 C109 747 96 740 96 727 C96 719 102 711 108 703 L174 620 C189 602 204 591 232 591 L268 591 C296 591 312 602 326 620 L392 703 C398 711 404 719 404 727 C404 740 393 747 377 747 C349 747 330 742 303 720 L251 675 Z " />
<glyph glyph-name="breve" unicode="&#x2d8;" horiz-adv-x="500" d="M250 593 C321 593 374 622 403 673 C408 683 411 694 411 704 C411 728 393 747 369 747 C348 747 338 736 331 724 C317 697 293 678 250 678 C207 678 184 697 169 724 C162 736 152 747 131 747 C107 747 89 728 89 704 C89 694 92 683 97 673 C126 622 180 593 250 593 L250 593 Z " />
<glyph glyph-name="dotaccent" unicode="&#x2d9;" horiz-adv-x="500" d="M318 658 C318 695 287 720 250 720 C213 720 183 695 183 658 L183 651 C183 614 213 590 250 590 C287 590 318 614 318 651 L318 658 Z " />
<glyph glyph-name="ring" unicode="&#x2da;" horiz-adv-x="500" d="M250 593 C310 593 364 643 364 702 L364 704 C364 764 310 813 250 813 C190 813 136 764 136 704 L136 702 C136 643 190 593 250 593 L250 593 Z M250 641 C216 641 188 669 188 702 L188 704 C188 737 216 765 250 765 C284 765 312 737 312 704 L312 702 C312 669 284 641 250 641 L250 641 Z " />
<glyph glyph-name="ogonek" unicode="&#x2db;" horiz-adv-x="500" d="M182 -82 C182 -142 247 -166 311 -166 C337 -166 351 -154 351 -135 C351 -119 340 -109 318 -104 C290 -97 274 -87 274 -63 C274 -42 285 -21 315 7 L234 12 C202 -19 182 -48 182 -82 L182 -82 Z " />
<glyph glyph-name="tilde" unicode="&#x2dc;" horiz-adv-x="500" d="M137 603 C149 625 160 635 183 635 C219 635 272 595 327 595 C380 595 408 628 429 686 C431 693 433 703 433 709 C433 726 416 742 396 742 C381 742 370 733 363 722 C351 700 340 690 317 690 C281 690 228 730 173 730 C120 730 92 697 71 639 C69 632 67 622 67 616 C67 599 84 583 104 583 C120 583 130 592 137 603 L137 603 Z " />
<glyph glyph-name="hungarumlaut" unicode="&#x2dd;" horiz-adv-x="500" d="M283 590 C311 590 328 595 352 617 L419 681 C429 691 436 700 436 712 C436 731 397 750 366 750 C344 750 331 740 320 721 L262 633 C258 627 254 618 254 611 C254 598 266 590 283 590 L283 590 Z M100 590 C128 590 146 595 169 617 L236 681 C246 691 253 700 253 712 C253 731 214 750 183 750 C162 750 148 740 137 721 L79 633 C75 627 71 618 71 611 C71 598 83 590 100 590 L100 590 Z " />
<glyph glyph-name="commaaccent" unicode="&#x326;" horiz-adv-x="500" d="M242 -166 C243 -199 224 -220 179 -230 C165 -233 158 -240 158 -251 C158 -262 166 -272 184 -272 C212 -272 248 -259 270 -239 C299 -214 313 -181 313 -131 L313 -128 C313 -86 288 -58 249 -58 C213 -58 188 -80 188 -111 L188 -113 C188 -144 212 -161 242 -166 L242 -166 Z " />
<glyph glyph-name="Wgrave" unicode="&#x1e80;" horiz-adv-x="1099" d="M254 41 C266 9 288 -10 318 -10 L330 -10 C360 -10 383 9 394 41 L550 498 L706 41 C717 9 739 -10 769 -10 L781 -10 C811 -10 834 10 845 41 L1052 621 C1055 628 1058 638 1058 646 C1058 679 1030 705 997 705 C967 705 946 686 937 661 L776 179 L618 658 C609 687 587 707 556 707 L547 707 C516 707 495 687 485 658 L327 179 L166 660 C158 686 135 705 105 705 C71 705 42 679 42 645 C42 637 44 628 47 621 L254 41 Z M552 753 C570 753 583 761 583 774 C583 781 578 790 574 796 L517 884 C506 902 490 913 469 913 C437 913 397 893 397 874 C397 863 404 853 414 844 L482 780 C505 758 524 753 552 753 L552 753 Z " />
<glyph glyph-name="wgrave" unicode="&#x1e81;" horiz-adv-x="853" d="M253 -9 L257 -9 C286 -9 311 8 322 43 L426 357 L529 43 C540 8 565 -9 595 -9 L599 -9 C628 -9 653 8 666 45 L810 451 C812 457 815 469 815 478 C815 508 791 534 758 534 C726 534 707 513 699 487 L596 166 L492 486 C483 514 461 534 430 534 L423 534 C392 534 370 514 361 486 L258 166 L156 486 C147 514 127 534 97 534 C61 534 38 507 38 478 C38 468 41 455 44 447 L186 45 C198 8 223 -9 253 -9 L253 -9 Z M428 590 C446 590 459 598 459 611 C459 618 454 627 450 633 L393 721 C382 739 366 750 345 750 C313 750 273 730 273 711 C273 700 280 690 290 681 L358 617 C381 595 400 590 428 590 L428 590 Z " />
<glyph glyph-name="Wacute" unicode="&#x1e82;" horiz-adv-x="1099" d="M546 753 C574 753 593 758 617 780 L684 844 C694 853 701 863 701 874 C701 893 661 913 629 913 C608 913 592 902 581 884 L524 796 C520 790 516 781 516 774 C516 761 529 753 546 753 L546 753 Z M254 41 C266 9 288 -10 318 -10 L330 -10 C360 -10 383 9 394 41 L550 498 L706 41 C717 9 739 -10 769 -10 L781 -10 C811 -10 834 10 845 41 L1052 621 C1055 628 1058 638 1058 646 C1058 679 1030 705 997 705 C967 705 946 686 937 661 L776 179 L618 658 C609 687 587 707 556 707 L547 707 C516 707 495 687 485 658 L327 179 L166 660 C158 686 135 705 105 705 C71 705 42 679 42 645 C42 637 44 628 47 621 L254 41 Z " />
<glyph glyph-name="wacute" unicode="&#x1e83;" horiz-adv-x="853" d="M422 590 C450 590 469 595 493 617 L560 681 C570 690 577 700 577 711 C577 730 537 750 505 750 C484 750 468 739 457 721 L400 633 C396 627 392 618 392 611 C392 598 405 590 422 590 L422 590 Z M253 -9 L257 -9 C286 -9 311 8 322 43 L426 357 L529 43 C540 8 565 -9 595 -9 L599 -9 C628 -9 653 8 666 45 L810 451 C812 457 815 469 815 478 C815 508 791 534 758 534 C726 534 707 513 699 487 L596 166 L492 486 C483 514 461 534 430 534 L423 534 C392 534 370 514 361 486 L258 166 L156 486 C147 514 127 534 97 534 C61 534 38 507 38 478 C38 468 41 455 44 447 L186 45 C198 8 223 -9 253 -9 L253 -9 Z " />
<glyph glyph-name="Wdieresis" unicode="&#x1e84;" horiz-adv-x="1099" d="M649 883 C612 883 583 857 583 821 L583 814 C583 778 612 753 649 753 C685 753 714 778 714 814 L714 821 C714 857 685 883 649 883 L649 883 Z M450 883 C413 883 384 857 384 821 L384 814 C384 778 413 753 450 753 C486 753 515 778 515 814 L515 821 C515 857 486 883 450 883 L450 883 Z M254 41 C266 9 288 -10 318 -10 L330 -10 C360 -10 383 9 394 41 L550 498 L706 41 C717 9 739 -10 769 -10 L781 -10 C811 -10 834 10 845 41 L1052 621 C1055 628 1058 638 1058 646 C1058 679 1030 705 997 705 C967 705 946 686 937 661 L776 179 L618 658 C609 687 587 707 556 707 L547 707 C516 707 495 687 485 658 L327 179 L166 660 C158 686 135 705 105 705 C71 705 42 679 42 645 C42 637 44 628 47 621 L254 41 Z " />
<glyph glyph-name="wdieresis" unicode="&#x1e85;" horiz-adv-x="853" d="M525 720 C488 720 459 694 459 658 L459 651 C459 615 488 590 525 590 C561 590 590 615 590 651 L590 658 C590 694 561 720 525 720 L525 720 Z M326 720 C289 720 260 694 260 658 L260 651 C260 615 289 590 326 590 C362 590 391 615 391 651 L391 658 C391 694 362 720 326 720 L326 720 Z M253 -9 L257 -9 C286 -9 311 8 322 43 L426 357 L529 43 C540 8 565 -9 595 -9 L599 -9 C628 -9 653 8 666 45 L810 451 C812 457 815 469 815 478 C815 508 791 534 758 534 C726 534 707 513 699 487 L596 166 L492 486 C483 514 461 534 430 534 L423 534 C392 534 370 514 361 486 L258 166 L156 486 C147 514 127 534 97 534 C61 534 38 507 38 478 C38 468 41 455 44 447 L186 45 C198 8 223 -9 253 -9 L253 -9 Z " />
<glyph glyph-name="Ygrave" unicode="&#x1ef2;" horiz-adv-x="696" d="M287 56 C287 22 314 -5 348 -5 C383 -5 410 22 410 56 L410 275 L649 602 C658 614 666 629 666 646 C666 679 642 706 606 706 C580 706 562 691 547 669 L349 387 L154 668 C139 690 121 705 94 705 C59 705 32 679 32 646 C32 629 38 615 46 603 L287 272 L287 56 Z M351 753 C369 753 382 761 382 774 C382 781 377 790 373 796 L316 884 C305 902 289 913 268 913 C236 913 196 893 196 874 C196 863 203 853 213 844 L281 780 C304 758 323 753 351 753 L351 753 Z " />
<glyph glyph-name="ygrave" unicode="&#x1ef3;" horiz-adv-x="587" d="M172 -163 C257 -163 305 -123 350 -15 L543 448 C545 454 548 467 548 477 C548 509 522 534 490 534 C459 534 442 513 432 488 L300 137 L158 488 C147 516 130 534 99 534 C65 534 39 509 39 475 C39 467 42 455 46 446 L242 8 L238 -3 C218 -44 199 -59 163 -59 C146 -59 135 -56 121 -52 C115 -50 109 -48 99 -48 C73 -48 50 -68 50 -98 C50 -127 70 -142 88 -148 C113 -158 138 -163 172 -163 L172 -163 Z M297 590 C315 590 328 598 328 611 C328 618 323 627 319 633 L262 721 C251 739 235 750 214 750 C182 750 142 730 142 711 C142 700 149 690 159 681 L227 617 C250 595 269 590 297 590 L297 590 Z " />
<glyph glyph-name="enspace" unicode="&#x2002;" horiz-adv-x="500" d="" />
<glyph glyph-name="emspace" unicode="&#x2003;" horiz-adv-x="1000" d="" />
<glyph glyph-name="threeperemspace" unicode="&#x2004;" horiz-adv-x="333" d="" />
<glyph glyph-name="fourperemspace" unicode="&#x2005;" horiz-adv-x="250" d="" />
<glyph glyph-name="thinspace" unicode="&#x2009;" horiz-adv-x="133" d="" />
<glyph glyph-name="hairspace" unicode="&#x200a;" horiz-adv-x="75" d="" />
<glyph glyph-name="endash" unicode="&#x2013;" horiz-adv-x="528" d="M108 249 L420 249 C451 249 477 275 477 306 C477 338 451 364 420 364 L108 364 C77 364 51 338 51 306 C51 275 77 249 108 249 L108 249 Z " />
<glyph glyph-name="emdash" unicode="&#x2014;" horiz-adv-x="898" d="M108 249 L790 249 C821 249 847 275 847 306 C847 338 821 364 790 364 L108 364 C77 364 51 338 51 306 C51 275 77 249 108 249 L108 249 Z " />
<glyph glyph-name="quoteleft" unicode="&#x2018;" horiz-adv-x="269" d="M235 676 C235 692 225 704 204 704 C175 704 136 688 110 661 C78 630 60 583 60 515 L60 505 C60 451 88 417 132 417 C173 417 200 446 200 484 L200 492 C200 528 172 552 143 560 C141 604 165 635 211 649 C225 653 235 662 235 676 L235 676 Z " />
<glyph glyph-name="quoteright" unicode="&#x2019;" horiz-adv-x="269" d="M35 446 C35 430 45 418 66 418 C94 418 133 434 160 461 C191 492 209 539 209 607 L209 617 C209 671 181 705 137 705 C96 705 69 676 69 638 L69 630 C69 594 97 570 126 563 C128 518 104 487 58 473 C45 469 35 460 35 446 L35 446 Z " />
<glyph glyph-name="quotesinglbase" unicode="&#x201a;" horiz-adv-x="269" d="M30 -117 C30 -132 40 -145 61 -145 C89 -145 128 -128 155 -102 C186 -70 204 -24 204 44 L204 55 C204 109 177 143 132 143 C91 143 64 114 64 76 L64 68 C64 32 92 8 121 0 C123 -44 99 -75 53 -90 C40 -93 30 -103 30 -117 L30 -117 Z " />
<glyph glyph-name="quotedblleft" unicode="&#x201c;" horiz-adv-x="501" d="M467 676 C467 692 456 704 435 704 C407 704 368 688 341 661 C310 630 292 583 292 515 L292 505 C292 451 320 417 364 417 C405 417 432 446 432 484 L432 492 C432 528 404 552 375 560 C373 604 397 635 443 649 C457 653 467 662 467 676 L467 676 Z M235 676 C235 692 225 704 204 704 C175 704 136 688 110 661 C78 630 60 583 60 515 L60 505 C60 451 88 417 132 417 C173 417 200 446 200 484 L200 492 C200 528 172 552 143 560 C141 604 165 635 211 649 C225 653 235 662 235 676 L235 676 Z " />
<glyph glyph-name="quotedblright" unicode="&#x201d;" horiz-adv-x="501" d="M35 446 C35 430 45 418 66 418 C94 418 133 434 160 461 C191 492 209 539 209 607 L209 617 C209 671 181 705 137 705 C96 705 69 676 69 638 L69 630 C69 594 97 570 126 563 C128 518 104 487 58 473 C45 469 35 460 35 446 L35 446 Z M266 446 C266 430 276 418 297 418 C326 418 365 434 391 461 C423 492 441 539 441 607 L441 617 C441 671 413 705 369 705 C328 705 301 676 301 638 L301 630 C301 594 329 570 358 563 C360 518 336 487 290 473 C276 469 266 460 266 446 L266 446 Z " />
<glyph glyph-name="quotedblbase" unicode="&#x201e;" horiz-adv-x="501" d="M30 -117 C30 -132 40 -145 61 -145 C89 -145 128 -128 155 -102 C186 -70 204 -24 204 44 L204 55 C204 109 177 143 132 143 C91 143 64 114 64 76 L64 68 C64 32 92 8 121 0 C123 -44 99 -75 53 -90 C40 -93 30 -103 30 -117 L30 -117 Z M261 -117 C261 -132 271 -145 292 -145 C321 -145 360 -128 386 -102 C418 -70 436 -24 436 44 L436 55 C436 108 408 143 364 143 C323 143 296 114 296 76 L296 68 C296 32 324 8 353 0 C355 -44 331 -75 285 -90 C271 -93 261 -103 261 -117 L261 -117 Z " />
<glyph glyph-name="dagger" unicode="&#x2020;" horiz-adv-x="410" d="M170 270 C169 249 185 233 205 233 C225 233 241 249 240 271 L233 513 L322 506 C343 504 359 520 359 540 C359 559 344 575 323 573 L234 566 L242 664 C244 688 226 705 205 705 C184 705 166 688 168 664 L177 566 L87 573 C67 575 51 559 51 540 C51 520 67 504 88 506 L178 513 L170 270 Z " />
<glyph glyph-name="daggerdbl" unicode="&#x2021;" horiz-adv-x="430" d="M178 36 C176 12 194 -5 215 -5 C236 -5 254 12 252 36 L244 134 L333 127 C354 125 369 141 369 160 C369 180 353 196 332 194 L243 187 L251 350 L243 513 L332 506 C353 504 369 520 369 540 C369 559 354 575 333 573 L244 566 L252 664 C254 688 236 705 215 705 C194 705 176 688 178 664 L187 566 L97 573 C77 575 61 559 61 540 C61 520 77 504 98 506 L187 513 L179 350 L187 187 L98 194 C77 196 61 180 61 160 C61 141 77 125 97 127 L187 134 L178 36 Z " />
<glyph glyph-name="bullet" unicode="&#x2022;" horiz-adv-x="491" d="M246 211 C323 211 387 273 387 351 L387 353 C387 431 322 494 246 494 C169 494 104 431 104 353 L104 351 C104 273 168 211 246 211 L246 211 Z " />
<glyph glyph-name="ellipsis" unicode="&#x2026;" horiz-adv-x="792" d="M590 74 L590 64 C590 25 618 -5 659 -5 C700 -5 728 25 728 64 L728 74 C728 113 700 143 659 143 C618 143 590 113 590 74 L590 74 Z M327 74 L327 64 C327 25 355 -5 396 -5 C437 -5 465 25 465 64 L465 74 C465 113 437 143 396 143 C355 143 327 113 327 74 L327 74 Z M64 74 L64 64 C64 25 92 -5 133 -5 C174 -5 202 25 202 64 L202 74 C202 113 174 143 133 143 C92 143 64 113 64 74 L64 74 Z " />
<glyph glyph-name="perthousand" unicode="&#x2030;" horiz-adv-x="1228" d="M212 350 C312 350 378 432 378 529 L378 531 C378 627 313 708 214 708 C115 708 48 627 48 529 L48 527 C48 431 114 350 212 350 L212 350 Z M154 34 C154 12 171 -5 193 -5 C207 -5 220 1 228 13 L687 640 C692 647 696 656 696 666 C696 688 678 705 656 705 C642 705 629 699 622 687 L163 60 C158 53 154 44 154 34 L154 34 Z M1014 -8 C1113 -8 1180 74 1180 171 L1180 173 C1180 269 1114 350 1016 350 C917 350 850 269 850 171 L850 169 C850 73 916 -8 1014 -8 L1014 -8 Z M635 -8 C734 -8 801 74 801 171 L801 173 C801 269 735 350 637 350 C538 350 471 269 471 171 L471 169 C471 73 537 -8 635 -8 L635 -8 Z M214 427 C169 427 137 472 137 529 L137 531 C137 585 165 631 212 631 C257 631 289 585 289 529 L289 527 C289 473 261 427 214 427 L214 427 Z M1016 69 C971 69 939 114 939 171 L939 173 C939 227 967 273 1014 273 C1059 273 1091 227 1091 171 L1091 169 C1091 115 1063 69 1016 69 L1016 69 Z M637 69 C592 69 560 114 560 171 L560 173 C560 227 588 273 635 273 C680 273 712 227 712 171 L712 169 C712 115 684 69 637 69 L637 69 Z " />
<glyph glyph-name="guilsinglleft" unicode="&#x2039;" horiz-adv-x="354" d="M237 42 C265 42 287 64 287 92 C287 104 283 115 275 125 L167 265 L273 402 C280 411 286 423 286 436 C286 463 265 486 238 486 C219 486 203 476 192 462 L66 299 C57 288 52 277 52 264 C52 251 57 241 66 229 L195 63 C204 51 219 42 237 42 L237 42 Z " />
<glyph glyph-name="guilsinglright" unicode="&#x203a;" horiz-adv-x="354" d="M117 486 C89 486 68 464 67 436 C67 423 71 413 80 402 L187 262 L82 126 C74 117 68 104 68 92 C68 65 89 42 117 42 C135 42 152 52 162 66 L288 228 C297 240 303 250 303 263 C303 277 297 287 288 299 L159 464 C150 476 136 486 117 486 L117 486 Z " />
<glyph glyph-name="fraction" unicode="&#x2044;" horiz-adv-x="459" d="M-40 -57 C-40 -83 -18 -103 8 -103 C27 -103 43 -93 51 -78 L470 690 C474 698 477 707 477 717 C477 743 455 763 429 763 C410 763 394 753 386 738 L-33 -30 C-37 -38 -40 -47 -40 -57 L-40 -57 Z " />
<glyph glyph-name="Euro" unicode="&#x20ac;" horiz-adv-x="720" d="M670 140 C670 170 645 194 615 194 C596 194 582 186 572 174 C534 127 495 98 435 98 C356 98 299 145 271 225 L451 225 C474 225 493 244 493 268 C493 291 474 311 451 311 L253 311 C252 324 252 337 252 351 C252 366 252 381 254 395 L451 395 C474 395 493 414 493 437 C493 461 474 480 451 480 L273 480 C301 555 355 602 427 602 C489 602 528 577 566 531 C574 521 588 511 609 511 C641 511 668 537 668 569 C668 587 660 602 652 610 C600 670 536 712 430 712 C288 712 185 615 146 480 L90 480 C66 480 47 461 47 437 C47 414 66 395 90 395 L130 395 C128 380 128 364 128 349 C128 336 128 323 129 311 L90 311 C66 311 47 291 47 268 C47 244 66 225 90 225 L144 225 C182 83 286 -12 434 -12 C537 -12 604 35 658 105 C664 112 670 125 670 140 L670 140 Z " />
<glyph glyph-name="published" unicode="&#x2117;" horiz-adv-x="830" d="M414 -12 C617 -12 777 153 777 350 L777 352 C777 549 619 712 416 712 C213 712 53 547 53 350 L53 348 C53 151 211 -12 414 -12 L414 -12 Z M414 24 C230 24 91 169 91 348 L91 350 C91 529 231 676 416 676 C600 676 739 531 739 352 L739 350 C739 171 599 24 414 24 L414 24 Z M286 199 C286 178 303 162 323 162 C343 162 360 178 360 199 L360 287 L431 287 C515 287 586 331 586 417 L586 419 C586 497 529 547 439 547 L323 547 C303 547 286 530 286 510 L286 199 Z M360 352 L360 481 L433 481 C481 481 511 459 511 418 L511 416 C511 378 481 352 433 352 L360 352 Z " />
<glyph glyph-name="servicemark" unicode="&#x2120;" horiz-adv-x="705" d="M356 415 C356 399 369 387 384 387 C400 387 413 399 413 415 L413 594 L485 483 C492 473 499 468 511 468 C522 468 529 474 535 483 L609 595 L609 415 C609 399 621 387 637 387 C653 387 665 399 665 415 L665 674 C665 690 653 703 637 703 L630 703 C619 703 611 698 605 688 L511 540 L418 688 C413 696 404 703 392 703 L385 703 C369 703 356 690 356 674 L356 415 Z M33 448 C33 438 38 431 46 425 C78 402 124 386 168 386 C238 386 288 422 288 480 C288 533 244 556 177 571 C120 584 102 595 102 619 C102 640 122 656 158 656 C189 656 214 645 235 632 C239 629 245 627 251 627 C266 627 277 638 277 653 C277 663 272 671 262 677 C238 693 203 706 159 706 C90 706 45 667 45 613 L45 612 C45 556 90 537 158 521 C215 508 231 497 231 474 C231 450 209 434 171 434 C135 434 103 448 76 467 C71 471 65 473 58 473 C44 473 33 462 33 448 L33 448 Z " />
<glyph glyph-name="trademark" unicode="&#x2122;" horiz-adv-x="690" d="M121 416 C121 400 134 387 150 387 C167 387 180 400 180 416 L180 646 L254 646 C268 646 280 659 280 673 C280 688 268 700 254 700 L47 700 C33 700 21 688 21 673 C21 659 33 646 47 646 L121 646 L121 416 Z M341 415 C341 399 354 387 370 387 C385 387 398 399 398 415 L398 594 L471 483 C478 473 485 468 496 468 C508 468 515 474 521 483 L594 595 L594 415 C594 399 607 387 622 387 C638 387 651 399 651 415 L651 674 C651 690 638 703 623 703 L616 703 C604 703 596 698 590 688 L496 540 L404 688 C399 696 390 703 377 703 L370 703 C354 703 341 690 341 674 L341 415 Z " />
<glyph glyph-name="minus" unicode="&#x2212;" horiz-adv-x="634" d="M514 295 C546 295 571 320 571 351 C571 383 546 408 514 408 L119 408 C88 408 63 383 63 351 C63 320 88 295 119 295 L514 295 Z " />
<glyph glyph-name="f_f" unicode="&#xfb00;" horiz-adv-x="752" d="M103 55 C103 22 130 -5 163 -5 C197 -5 224 22 224 55 L224 424 L316 424 C344 424 367 446 367 474 C367 502 345 524 316 524 L222 524 L222 553 C222 608 246 633 292 633 C300 633 310 632 317 631 C345 630 368 653 368 681 C368 708 348 728 326 731 C309 734 289 736 265 736 C213 736 174 722 146 694 C118 666 103 622 103 564 L103 525 L82 525 C54 525 31 502 31 474 C31 446 54 424 82 424 L103 424 L103 55 Z M479 55 C479 22 506 -5 539 -5 C573 -5 600 22 600 55 L600 424 L692 424 C720 424 743 446 743 474 C743 502 721 524 692 524 L598 524 L598 553 C598 608 622 633 668 633 C676 633 686 632 693 631 C721 630 744 653 744 681 C744 708 724 728 702 731 C685 734 665 736 641 736 C589 736 550 722 522 694 C494 666 479 622 479 564 L479 525 L458 525 C430 525 407 502 407 474 C407 446 430 424 458 424 L479 424 L479 55 Z " />
<glyph glyph-name="fi" unicode="&#xfb01;" horiz-adv-x="662" d="M450 664 C450 628 480 604 519 604 C558 604 588 628 588 664 L588 670 C588 706 558 729 519 729 C480 729 450 706 450 670 L450 664 Z M459 55 C459 21 486 -5 519 -5 C553 -5 580 21 580 55 L580 473 C580 507 553 534 519 534 C485 534 459 507 459 473 L459 55 Z M103 55 C103 22 130 -5 163 -5 C197 -5 224 22 224 55 L224 424 L316 424 C344 424 367 446 367 474 C367 502 345 524 316 524 L222 524 L222 553 C222 608 246 633 292 633 C300 633 310 632 317 631 C345 630 368 653 368 681 C368 708 348 728 326 731 C309 734 289 736 265 736 C213 736 174 722 146 694 C118 666 103 622 103 564 L103 525 L82 525 C54 525 31 502 31 474 C31 446 54 424 82 424 L103 424 L103 55 Z " />
<glyph glyph-name="fl" unicode="&#xfb02;" horiz-adv-x="662" d="M459 55 C459 21 486 -5 519 -5 C553 -5 580 21 580 55 L580 675 C580 708 553 735 519 735 C485 735 459 708 459 675 L459 55 Z M103 55 C103 22 130 -5 163 -5 C197 -5 224 22 224 55 L224 424 L316 424 C344 424 367 446 367 474 C367 502 345 524 316 524 L222 524 L222 553 C222 608 246 633 292 633 C300 633 310 632 317 631 C345 630 368 653 368 681 C368 708 348 728 326 731 C309 734 289 736 265 736 C213 736 174 722 146 694 C118 666 103 622 103 564 L103 525 L82 525 C54 525 31 502 31 474 C31 446 54 424 82 424 L103 424 L103 55 Z " />
<glyph glyph-name="f_f_i" unicode="&#xfb03;" horiz-adv-x="1038" d="M826 664 C826 628 856 604 895 604 C934 604 964 628 964 664 L964 670 C964 706 934 729 895 729 C856 729 826 706 826 670 L826 664 Z M835 55 C835 21 862 -5 895 -5 C929 -5 956 21 956 55 L956 473 C956 507 929 534 895 534 C861 534 835 507 835 473 L835 55 Z M103 55 C103 22 130 -5 163 -5 C197 -5 224 22 224 55 L224 424 L316 424 C344 424 367 446 367 474 C367 502 345 524 316 524 L222 524 L222 553 C222 608 246 633 292 633 C300 633 310 632 317 631 C345 630 368 653 368 681 C368 708 348 728 326 731 C309 734 289 736 265 736 C213 736 174 722 146 694 C118 666 103 622 103 564 L103 525 L82 525 C54 525 31 502 31 474 C31 446 54 424 82 424 L103 424 L103 55 Z M479 55 C479 22 506 -5 539 -5 C573 -5 600 22 600 55 L600 424 L692 424 C720 424 743 446 743 474 C743 502 721 524 692 524 L598 524 L598 553 C598 608 622 633 668 633 C676 633 686 632 693 631 C721 630 744 653 744 681 C744 708 724 728 702 731 C685 734 665 736 641 736 C589 736 550 722 522 694 C494 666 479 622 479 564 L479 525 L458 525 C430 525 407 502 407 474 C407 446 430 424 458 424 L479 424 L479 55 Z " />
<glyph glyph-name="f_f_l" unicode="&#xfb04;" horiz-adv-x="1038" d="M103 55 C103 22 130 -5 163 -5 C197 -5 224 22 224 55 L224 424 L316 424 C344 424 367 446 367 474 C367 502 345 524 316 524 L222 524 L222 553 C222 608 246 633 292 633 C300 633 310 632 317 631 C345 630 368 653 368 681 C368 708 348 728 326 731 C309 734 289 736 265 736 C213 736 174 722 146 694 C118 666 103 622 103 564 L103 525 L82 525 C54 525 31 502 31 474 C31 446 54 424 82 424 L103 424 L103 55 Z M479 55 C479 22 506 -5 539 -5 C573 -5 600 22 600 55 L600 424 L692 424 C720 424 743 446 743 474 C743 502 721 524 692 524 L598 524 L598 553 C598 608 622 633 668 633 C676 633 686 632 693 631 C721 630 744 653 744 681 C744 708 724 728 702 731 C685 734 665 736 641 736 C589 736 550 722 522 694 C494 666 479 622 479 564 L479 525 L458 525 C430 525 407 502 407 474 C407 446 430 424 458 424 L479 424 L479 55 Z M835 55 C835 21 862 -5 895 -5 C929 -5 956 21 956 55 L956 675 C956 708 929 735 895 735 C861 735 835 708 835 675 L835 55 Z " />
</font>
</svg>
